<?xml version="1.0" encoding="UTF-8" standalone="no"?><svg xmlns="http://www.w3.org/2000/svg" xmlns:xlink="http://www.w3.org/1999/xlink" contentScriptType="application/ecmascript" contentStyleType="text/css" height="251px" preserveAspectRatio="none" style="width:299px;height:251px;" version="1.1" viewBox="0 0 299 251" width="299px" zoomAndPan="magnify"><defs><filter height="300%" id="f8csoj8l7sjhh" width="300%" x="-1" y="-1"><feGaussianBlur result="blurOut" stdDeviation="2.0"/><feColorMatrix in="blurOut" result="blurOut2" type="matrix" values="0 0 0 0 0 0 0 0 0 0 0 0 0 0 0 0 0 0 .4 0"/><feOffset dx="4.0" dy="4.0" in="blurOut2" result="blurOut3"/><feBlend in="SourceGraphic" in2="blurOut3" mode="normal"/></filter></defs><g><!--MD5=[41a5fbe8882835836874210d16e0e709]
class ObjectFragment--><rect fill="#FEFECE" filter="url(#f8csoj8l7sjhh)" height="124.8281" id="ObjectFragment" style="stroke: #A80036; stroke-width: 1.5;" width="282" x="6" y="116"/><ellipse cx="92.75" cy="132" fill="#ADD1B2" rx="11" ry="11" style="stroke: #A80036; stroke-width: 1.0;"/><path d="M95.7188,137.6406 Q95.1406,137.9375 94.5,138.0781 Q93.8594,138.2344 93.1563,138.2344 Q90.6563,138.2344 89.3281,136.5938 Q88.0156,134.9375 88.0156,131.8125 Q88.0156,128.6875 89.3281,127.0313 Q90.6563,125.375 93.1563,125.375 Q93.8594,125.375 94.5,125.5313 Q95.1563,125.6875 95.7188,125.9844 L95.7188,128.7031 Q95.0938,128.125 94.5,127.8594 Q93.9063,127.5781 93.2813,127.5781 Q91.9375,127.5781 91.25,128.6563 Q90.5625,129.7188 90.5625,131.8125 Q90.5625,133.9063 91.25,134.9844 Q91.9375,136.0469 93.2813,136.0469 Q93.9063,136.0469 94.5,135.7813 Q95.0938,135.5 95.7188,134.9219 L95.7188,137.6406 Z "/><text fill="#000000" font-family="sans-serif" font-size="12" lengthAdjust="spacingAndGlyphs" textLength="100" x="113.25" y="136.1543">ObjectFragment</text><line style="stroke: #A80036; stroke-width: 1.5;" x1="7" x2="287" y1="148" y2="148"/><rect fill="none" height="6" style="stroke: #C82930; stroke-width: 1.0;" width="6" x="14" y="156"/><text fill="#000000" font-family="sans-serif" font-size="11" lengthAdjust="spacingAndGlyphs" textLength="135" x="26" y="162.2104">elements : IdElement[*]</text><line style="stroke: #A80036; stroke-width: 1.5;" x1="7" x2="287" y1="168.8047" y2="168.8047"/><ellipse cx="17" cy="179.8047" fill="#84BE84" rx="3" ry="3" style="stroke: #038048; stroke-width: 1.0;"/><text fill="#000000" font-family="sans-serif" font-size="11" lengthAdjust="spacingAndGlyphs" textLength="238" x="26" y="183.0151">addElement (idElement : IdElement) : void</text><ellipse cx="17" cy="192.6094" fill="#84BE84" rx="3" ry="3" style="stroke: #038048; stroke-width: 1.0;"/><text fill="#000000" font-family="sans-serif" font-size="11" lengthAdjust="spacingAndGlyphs" textLength="256" x="26" y="195.8198">removeElement(idElement : IdElement) : void</text><ellipse cx="17" cy="205.4141" fill="#84BE84" rx="3" ry="3" style="stroke: #038048; stroke-width: 1.0;"/><text fill="#000000" font-family="sans-serif" font-size="11" lengthAdjust="spacingAndGlyphs" textLength="154" x="26" y="208.6245">getElement() : IdElement[*]</text><ellipse cx="17" cy="218.2188" fill="#84BE84" rx="3" ry="3" style="stroke: #038048; stroke-width: 1.0;"/><text fill="#000000" font-family="sans-serif" font-size="11" lengthAdjust="spacingAndGlyphs" textLength="84" x="26" y="221.4292">clearAll() : void</text><ellipse cx="17" cy="231.0234" fill="#84BE84" rx="3" ry="3" style="stroke: #038048; stroke-width: 1.0;"/><text fill="#000000" font-family="sans-serif" font-size="11" lengthAdjust="spacingAndGlyphs" textLength="86" x="26" y="234.2339">update () : void</text><!--MD5=[499a93d1a2128e7b640a788d1f7209bf]
class Fragment--><rect fill="#FEFECE" filter="url(#f8csoj8l7sjhh)" height="48" id="Fragment" style="stroke: #A80036; stroke-width: 1.5;" width="92" x="101" y="8"/><ellipse cx="116" cy="24" fill="#ADD1B2" rx="11" ry="11" style="stroke: #A80036; stroke-width: 1.0;"/><path d="M118.9688,29.6406 Q118.3906,29.9375 117.75,30.0781 Q117.1094,30.2344 116.4063,30.2344 Q113.9063,30.2344 112.5781,28.5938 Q111.2656,26.9375 111.2656,23.8125 Q111.2656,20.6875 112.5781,19.0313 Q113.9063,17.375 116.4063,17.375 Q117.1094,17.375 117.75,17.5313 Q118.4063,17.6875 118.9688,17.9844 L118.9688,20.7031 Q118.3438,20.125 117.75,19.8594 Q117.1563,19.5781 116.5313,19.5781 Q115.1875,19.5781 114.5,20.6563 Q113.8125,21.7188 113.8125,23.8125 Q113.8125,25.9063 114.5,26.9844 Q115.1875,28.0469 116.5313,28.0469 Q117.1563,28.0469 117.75,27.7813 Q118.3438,27.5 118.9688,26.9219 L118.9688,29.6406 Z "/><text fill="#000000" font-family="sans-serif" font-size="12" lengthAdjust="spacingAndGlyphs" textLength="60" x="130" y="28.1543">Fragment</text><line style="stroke: #A80036; stroke-width: 1.5;" x1="102" x2="192" y1="40" y2="40"/><line style="stroke: #A80036; stroke-width: 1.5;" x1="102" x2="192" y1="48" y2="48"/><!--MD5=[19ac53a7852773734c95538704924c13]
reverse link Fragment to ObjectFragment--><path d="M147,76.67 C147,89.05 147,102.77 147,115.99 " fill="none" id="Fragment&lt;-ObjectFragment" style="stroke: #A80036; stroke-width: 1.0;"/><polygon fill="none" points="140,76.22,147,56.22,154,76.22,140,76.22" style="stroke: #A80036; stroke-width: 1.0;"/><!--MD5=[d7e8fdd4059ddb673e66310c29b46f28]
@startuml
    class ObjectFragment extends Fragment{
        - elements : IdElement[*]
        +addElement (idElement : IdElement) : void
        +removeElement(idElement : IdElement) : void
        +getElement() : IdElement[*]
        +clearAll() : void
        +update () : void
        
    }


@enduml

PlantUML version 1.2020.02(Sun Mar 01 11:22:07 CET 2020)
(GPL source distribution)
Java Runtime: OpenJDK Runtime Environment
JVM: OpenJDK 64-Bit Server VM
Java Version: 11.0.19+7-post-Ubuntu-0ubuntu122.04.1
Operating System: Linux
Default Encoding: UTF-8
Language: fr
Country: FR
--></g></svg>