<?xml version="1.0" encoding="UTF-8" standalone="no"?><svg xmlns="http://www.w3.org/2000/svg" xmlns:xlink="http://www.w3.org/1999/xlink" contentScriptType="application/ecmascript" contentStyleType="text/css" height="200px" preserveAspectRatio="none" style="width:213px;height:200px;" version="1.1" viewBox="0 0 213 200" width="213px" zoomAndPan="magnify"><defs><filter height="300%" id="f1ttnqg2puc2qj" width="300%" x="-1" y="-1"><feGaussianBlur result="blurOut" stdDeviation="2.0"/><feColorMatrix in="blurOut" result="blurOut2" type="matrix" values="0 0 0 0 0 0 0 0 0 0 0 0 0 0 0 0 0 0 .4 0"/><feOffset dx="4.0" dy="4.0" in="blurOut2" result="blurOut3"/><feBlend in="SourceGraphic" in2="blurOut3" mode="normal"/></filter></defs><g><!--MD5=[5d95cff93df92e92a793cd60f40e8991]
class logManagerViewModel--><rect fill="#FEFECE" filter="url(#f1ttnqg2puc2qj)" height="73.6094" id="logManagerViewModel" style="stroke: #A80036; stroke-width: 1.5;" width="196" x="6" y="116"/><ellipse cx="32.25" cy="132" fill="#ADD1B2" rx="11" ry="11" style="stroke: #A80036; stroke-width: 1.0;"/><path d="M35.2188,137.6406 Q34.6406,137.9375 34,138.0781 Q33.3594,138.2344 32.6563,138.2344 Q30.1563,138.2344 28.8281,136.5938 Q27.5156,134.9375 27.5156,131.8125 Q27.5156,128.6875 28.8281,127.0313 Q30.1563,125.375 32.6563,125.375 Q33.3594,125.375 34,125.5313 Q34.6563,125.6875 35.2188,125.9844 L35.2188,128.7031 Q34.5938,128.125 34,127.8594 Q33.4063,127.5781 32.7813,127.5781 Q31.4375,127.5781 30.75,128.6563 Q30.0625,129.7188 30.0625,131.8125 Q30.0625,133.9063 30.75,134.9844 Q31.4375,136.0469 32.7813,136.0469 Q33.4063,136.0469 34,135.7813 Q34.5938,135.5 35.2188,134.9219 L35.2188,137.6406 Z "/><text fill="#000000" font-family="sans-serif" font-size="12" lengthAdjust="spacingAndGlyphs" textLength="139" x="48.75" y="136.1543">logManagerViewModel</text><line style="stroke: #A80036; stroke-width: 1.5;" x1="7" x2="201" y1="148" y2="148"/><line style="stroke: #A80036; stroke-width: 1.5;" x1="7" x2="201" y1="156" y2="156"/><text fill="#000000" font-family="sans-serif" font-size="11" lengthAdjust="spacingAndGlyphs" textLength="184" x="12" y="170.2104">getLogData() : LiveData&lt;String&gt;</text><text fill="#000000" font-family="sans-serif" font-size="11" lengthAdjust="spacingAndGlyphs" textLength="162" x="12" y="183.0151">setLogData(String log) : void</text><!--MD5=[b1d46488418bc0cd55cf54b5fc017696]
class ViewModel--><rect fill="#FEFECE" filter="url(#f1ttnqg2puc2qj)" height="48" id="ViewModel" style="stroke: #A80036; stroke-width: 1.5;" width="97" x="55.5" y="8"/><ellipse cx="70.5" cy="24" fill="#ADD1B2" rx="11" ry="11" style="stroke: #A80036; stroke-width: 1.0;"/><path d="M73.4688,29.6406 Q72.8906,29.9375 72.25,30.0781 Q71.6094,30.2344 70.9063,30.2344 Q68.4063,30.2344 67.0781,28.5938 Q65.7656,26.9375 65.7656,23.8125 Q65.7656,20.6875 67.0781,19.0313 Q68.4063,17.375 70.9063,17.375 Q71.6094,17.375 72.25,17.5313 Q72.9063,17.6875 73.4688,17.9844 L73.4688,20.7031 Q72.8438,20.125 72.25,19.8594 Q71.6563,19.5781 71.0313,19.5781 Q69.6875,19.5781 69,20.6563 Q68.3125,21.7188 68.3125,23.8125 Q68.3125,25.9063 69,26.9844 Q69.6875,28.0469 71.0313,28.0469 Q71.6563,28.0469 72.25,27.7813 Q72.8438,27.5 73.4688,26.9219 L73.4688,29.6406 Z "/><text fill="#000000" font-family="sans-serif" font-size="12" lengthAdjust="spacingAndGlyphs" textLength="65" x="84.5" y="28.1543">ViewModel</text><line style="stroke: #A80036; stroke-width: 1.5;" x1="56.5" x2="151.5" y1="40" y2="40"/><line style="stroke: #A80036; stroke-width: 1.5;" x1="56.5" x2="151.5" y1="48" y2="48"/><!--MD5=[438830a6115ed413c70fa86c3ee6f596]
reverse link ViewModel to logManagerViewModel--><path d="M104,76.43 C104,89.33 104,103.32 104,115.71 " fill="none" id="ViewModel&lt;-logManagerViewModel" style="stroke: #A80036; stroke-width: 1.0;"/><polygon fill="none" points="97,76.23,104,56.23,111,76.23,97,76.23" style="stroke: #A80036; stroke-width: 1.0;"/><!--MD5=[3088bca3fcea154dfd53133e774f48ed]
@startuml 
    class logManagerViewModel extends ViewModel{
        getLogData() : LiveData<String>
        setLogData(String log) : void
    }

@enduml

PlantUML version 1.2020.02(Sun Mar 01 11:22:07 CET 2020)
(GPL source distribution)
Java Runtime: OpenJDK Runtime Environment
JVM: OpenJDK 64-Bit Server VM
Java Version: 11.0.19+7-post-Ubuntu-0ubuntu122.04.1
Operating System: Linux
Default Encoding: UTF-8
Language: fr
Country: FR
--></g></svg>