<?xml version="1.0" encoding="UTF-8" standalone="no"?><svg xmlns="http://www.w3.org/2000/svg" xmlns:xlink="http://www.w3.org/1999/xlink" contentScriptType="application/ecmascript" contentStyleType="text/css" height="142px" preserveAspectRatio="none" style="width:229px;height:142px;" version="1.1" viewBox="0 0 229 142" width="229px" zoomAndPan="magnify"><defs><filter height="300%" id="fxji85axwcb8o" width="300%" x="-1" y="-1"><feGaussianBlur result="blurOut" stdDeviation="2.0"/><feColorMatrix in="blurOut" result="blurOut2" type="matrix" values="0 0 0 0 0 0 0 0 0 0 0 0 0 0 0 0 0 0 .4 0"/><feOffset dx="4.0" dy="4.0" in="blurOut2" result="blurOut3"/><feBlend in="SourceGraphic" in2="blurOut3" mode="normal"/></filter></defs><g><!--MD5=[aa79dc17db96389755dc992d78fcbbe0]
class FilesManager--><rect fill="#FEFECE" filter="url(#fxji85axwcb8o)" height="124.8281" id="FilesManager" style="stroke: #A80036; stroke-width: 1.5;" width="211" x="7" y="7"/><ellipse cx="66.75" cy="23" fill="#ADD1B2" rx="11" ry="11" style="stroke: #A80036; stroke-width: 1.0;"/><path d="M69.7188,28.6406 Q69.1406,28.9375 68.5,29.0781 Q67.8594,29.2344 67.1563,29.2344 Q64.6563,29.2344 63.3281,27.5938 Q62.0156,25.9375 62.0156,22.8125 Q62.0156,19.6875 63.3281,18.0313 Q64.6563,16.375 67.1563,16.375 Q67.8594,16.375 68.5,16.5313 Q69.1563,16.6875 69.7188,16.9844 L69.7188,19.7031 Q69.0938,19.125 68.5,18.8594 Q67.9063,18.5781 67.2813,18.5781 Q65.9375,18.5781 65.25,19.6563 Q64.5625,20.7188 64.5625,22.8125 Q64.5625,24.9063 65.25,25.9844 Q65.9375,27.0469 67.2813,27.0469 Q67.9063,27.0469 68.5,26.7813 Q69.0938,26.5 69.7188,25.9219 L69.7188,28.6406 Z "/><text fill="#000000" font-family="sans-serif" font-size="12" lengthAdjust="spacingAndGlyphs" textLength="83" x="87.25" y="27.1543">FilesManager</text><line style="stroke: #A80036; stroke-width: 1.5;" x1="8" x2="217" y1="39" y2="39"/><ellipse cx="18" cy="50" fill="none" rx="3" ry="3" style="stroke: #038048; stroke-width: 1.0;"/><text fill="#000000" font-family="sans-serif" font-size="11" lengthAdjust="spacingAndGlyphs" textLength="95" x="27" y="53.2104">MAX_FRAMES: int</text><line style="stroke: #A80036; stroke-width: 1.5;" x1="8" x2="217" y1="59.8047" y2="59.8047"/><ellipse cx="18" cy="70.8047" fill="#84BE84" rx="3" ry="3" style="stroke: #038048; stroke-width: 1.0;"/><text fill="#000000" font-family="sans-serif" font-size="11" lengthAdjust="spacingAndGlyphs" textLength="101" x="27" y="74.0151">createFiles(): void</text><ellipse cx="18" cy="83.6094" fill="#84BE84" rx="3" ry="3" style="stroke: #038048; stroke-width: 1.0;"/><text fill="#000000" font-family="sans-serif" font-size="11" lengthAdjust="spacingAndGlyphs" textLength="185" x="27" y="86.8198">writeOnFiles(frame: String): void</text><ellipse cx="18" cy="96.4141" fill="#84BE84" rx="3" ry="3" style="stroke: #038048; stroke-width: 1.0;"/><text fill="#000000" font-family="sans-serif" font-size="11" lengthAdjust="spacingAndGlyphs" textLength="170" x="27" y="99.6245">isMaxFramesReach(): boolean</text><rect fill="#F24D5C" height="6" style="stroke: #C82930; stroke-width: 1.0;" width="6" x="15" y="106.2188"/><text fill="#000000" font-family="sans-serif" font-size="11" lengthAdjust="spacingAndGlyphs" textLength="120" x="27" y="112.4292">getFileName(): String</text><rect fill="#F24D5C" height="6" style="stroke: #C82930; stroke-width: 1.0;" width="6" x="15" y="119.0234"/><text fill="#000000" font-family="sans-serif" font-size="11" lengthAdjust="spacingAndGlyphs" textLength="129" x="27" y="125.2339">getLignes(file: File): int</text><!--MD5=[ab839caa24ac3206efcd690d47763fc1]
@startuml

class FilesManager
{
    + MAX_FRAMES: int
    + createFiles(): void
    + writeOnFiles(frame: String): void
    + isMaxFramesReach(): boolean
    - getFileName(): String
    - getLignes(file: File): int
}

@enduml

PlantUML version 1.2020.02(Sun Mar 01 11:22:07 CET 2020)
(GPL source distribution)
Java Runtime: OpenJDK Runtime Environment
JVM: OpenJDK 64-Bit Server VM
Java Version: 11.0.19+7-post-Ubuntu-0ubuntu122.04.1
Operating System: Linux
Default Encoding: UTF-8
Language: fr
Country: FR
--></g></svg>