<?xml version="1.0" encoding="UTF-8" standalone="no"?><svg xmlns="http://www.w3.org/2000/svg" xmlns:xlink="http://www.w3.org/1999/xlink" contentScriptType="application/ecmascript" contentStyleType="text/css" height="307px" preserveAspectRatio="none" style="width:489px;height:307px;" version="1.1" viewBox="0 0 489 307" width="489px" zoomAndPan="magnify"><defs><filter height="300%" id="fq0j2v6swopdw" width="300%" x="-1" y="-1"><feGaussianBlur result="blurOut" stdDeviation="2.0"/><feColorMatrix in="blurOut" result="blurOut2" type="matrix" values="0 0 0 0 0 0 0 0 0 0 0 0 0 0 0 0 0 0 .4 0"/><feOffset dx="4.0" dy="4.0" in="blurOut2" result="blurOut3"/><feBlend in="SourceGraphic" in2="blurOut3" mode="normal"/></filter></defs><g><!--MD5=[7d5e5dbcd9dce300c48ce56a4efb5c19]
cluster Sniffer--><polygon fill="#FFFFFF" filter="url(#fq0j2v6swopdw)" points="22,24,81,24,88,46.2969,467,46.2969,467,295,22,295,22,24" style="stroke: #000000; stroke-width: 1.5;"/><line style="stroke: #000000; stroke-width: 1.5;" x1="22" x2="88" y1="46.2969" y2="46.2969"/><text fill="#000000" font-family="sans-serif" font-size="14" font-weight="bold" lengthAdjust="spacingAndGlyphs" textLength="53" x="26" y="38.9951">Sniffer</text><!--MD5=[aa4098d8ce999f211196fdaf8c851c7a]
class Sniffer.Adapter--><rect fill="#FEFECE" filter="url(#fq0j2v6swopdw)" height="99.2188" id="Sniffer.Adapter" style="stroke: #A80036; stroke-width: 1.5;" width="268" x="165" y="59"/><ellipse cx="269.75" cy="75" fill="#ADD1B2" rx="11" ry="11" style="stroke: #A80036; stroke-width: 1.0;"/><path d="M272.7188,80.6406 Q272.1406,80.9375 271.5,81.0781 Q270.8594,81.2344 270.1563,81.2344 Q267.6563,81.2344 266.3281,79.5938 Q265.0156,77.9375 265.0156,74.8125 Q265.0156,71.6875 266.3281,70.0313 Q267.6563,68.375 270.1563,68.375 Q270.8594,68.375 271.5,68.5313 Q272.1563,68.6875 272.7188,68.9844 L272.7188,71.7031 Q272.0938,71.125 271.5,70.8594 Q270.9063,70.5781 270.2813,70.5781 Q268.9375,70.5781 268.25,71.6563 Q267.5625,72.7188 267.5625,74.8125 Q267.5625,76.9063 268.25,77.9844 Q268.9375,79.0469 270.2813,79.0469 Q270.9063,79.0469 271.5,78.7813 Q272.0938,78.5 272.7188,77.9219 L272.7188,80.6406 Z "/><text fill="#000000" font-family="sans-serif" font-size="12" lengthAdjust="spacingAndGlyphs" textLength="50" x="290.25" y="79.1543">Adapter</text><line style="stroke: #A80036; stroke-width: 1.5;" x1="166" x2="432" y1="91" y2="91"/><line style="stroke: #A80036; stroke-width: 1.5;" x1="166" x2="432" y1="99" y2="99"/><ellipse cx="176" cy="110" fill="#84BE84" rx="3" ry="3" style="stroke: #038048; stroke-width: 1.0;"/><text fill="#000000" font-family="sans-serif" font-size="11" lengthAdjust="spacingAndGlyphs" textLength="198" x="185" y="113.2104">onCreateViewHolder() : ViewHolder</text><ellipse cx="176" cy="122.8047" fill="#84BE84" rx="3" ry="3" style="stroke: #038048; stroke-width: 1.0;"/><text fill="#000000" font-family="sans-serif" font-size="11" lengthAdjust="spacingAndGlyphs" textLength="145" x="185" y="126.0151">onBindViewHolder() : void</text><ellipse cx="176" cy="135.6094" fill="#84BE84" rx="3" ry="3" style="stroke: #038048; stroke-width: 1.0;"/><text fill="#000000" font-family="sans-serif" font-size="11" lengthAdjust="spacingAndGlyphs" textLength="242" x="185" y="138.8198">setData(ArrayList&lt;String&gt; newData) : void</text><ellipse cx="176" cy="148.4141" fill="#84BE84" rx="3" ry="3" style="stroke: #038048; stroke-width: 1.0;"/><text fill="#000000" font-family="sans-serif" font-size="11" lengthAdjust="spacingAndGlyphs" textLength="110" x="185" y="151.6245">getItemCount() : int</text><!--MD5=[e4f1bd18e7aec0d0a6a36070636ff1fe]
class Sniffer.RecyclerFragment--><rect fill="#FEFECE" filter="url(#fq0j2v6swopdw)" height="60.8047" id="Sniffer.RecyclerFragment" style="stroke: #A80036; stroke-width: 1.5;" width="343" x="37.5" y="218"/><ellipse cx="148.75" cy="234" fill="#ADD1B2" rx="11" ry="11" style="stroke: #A80036; stroke-width: 1.0;"/><path d="M151.7188,239.6406 Q151.1406,239.9375 150.5,240.0781 Q149.8594,240.2344 149.1563,240.2344 Q146.6563,240.2344 145.3281,238.5938 Q144.0156,236.9375 144.0156,233.8125 Q144.0156,230.6875 145.3281,229.0313 Q146.6563,227.375 149.1563,227.375 Q149.8594,227.375 150.5,227.5313 Q151.1563,227.6875 151.7188,227.9844 L151.7188,230.7031 Q151.0938,230.125 150.5,229.8594 Q149.9063,229.5781 149.2813,229.5781 Q147.9375,229.5781 147.25,230.6563 Q146.5625,231.7188 146.5625,233.8125 Q146.5625,235.9063 147.25,236.9844 Q147.9375,238.0469 149.2813,238.0469 Q149.9063,238.0469 150.5,237.7813 Q151.0938,237.5 151.7188,236.9219 L151.7188,239.6406 Z "/><text fill="#000000" font-family="sans-serif" font-size="12" lengthAdjust="spacingAndGlyphs" textLength="112" x="169.25" y="238.1543">RecyclerFragment</text><line style="stroke: #A80036; stroke-width: 1.5;" x1="38.5" x2="379.5" y1="250" y2="250"/><line style="stroke: #A80036; stroke-width: 1.5;" x1="38.5" x2="379.5" y1="258" y2="258"/><ellipse cx="48.5" cy="269" fill="#84BE84" rx="3" ry="3" style="stroke: #038048; stroke-width: 1.0;"/><text fill="#000000" font-family="sans-serif" font-size="11" lengthAdjust="spacingAndGlyphs" textLength="317" x="57.5" y="272.2104">mettreAJourListe(ArrayList&lt;String&gt; nouvelleListe) : void</text><!--MD5=[8d183ff8505c47dfcebe769246a97479]
class Sniffer.Fragment--><rect fill="#FEFECE" filter="url(#fq0j2v6swopdw)" height="48" id="Sniffer.Fragment" style="stroke: #A80036; stroke-width: 1.5;" width="92" x="38" y="84.5"/><ellipse cx="53" cy="100.5" fill="#ADD1B2" rx="11" ry="11" style="stroke: #A80036; stroke-width: 1.0;"/><path d="M55.9688,106.1406 Q55.3906,106.4375 54.75,106.5781 Q54.1094,106.7344 53.4063,106.7344 Q50.9063,106.7344 49.5781,105.0938 Q48.2656,103.4375 48.2656,100.3125 Q48.2656,97.1875 49.5781,95.5313 Q50.9063,93.875 53.4063,93.875 Q54.1094,93.875 54.75,94.0313 Q55.4063,94.1875 55.9688,94.4844 L55.9688,97.2031 Q55.3438,96.625 54.75,96.3594 Q54.1563,96.0781 53.5313,96.0781 Q52.1875,96.0781 51.5,97.1563 Q50.8125,98.2188 50.8125,100.3125 Q50.8125,102.4063 51.5,103.4844 Q52.1875,104.5469 53.5313,104.5469 Q54.1563,104.5469 54.75,104.2813 Q55.3438,104 55.9688,103.4219 L55.9688,106.1406 Z "/><text fill="#000000" font-family="sans-serif" font-size="12" lengthAdjust="spacingAndGlyphs" textLength="60" x="67" y="104.6543">Fragment</text><line style="stroke: #A80036; stroke-width: 1.5;" x1="39" x2="129" y1="116.5" y2="116.5"/><line style="stroke: #A80036; stroke-width: 1.5;" x1="39" x2="129" y1="124.5" y2="124.5"/><!--MD5=[3c256d01a8e4521de4a72e6efe976e84]
reverse link Sniffer.Adapter to Sniffer.Adapter--><path d="M452.63,90.11 C462.22,94.44 468,100.57 468,108.5 C468,120.87 453.92,128.87 433.23,132.5 " fill="none" id="Sniffer.Adapter&lt;-Sniffer.Adapter" style="stroke: #A80036; stroke-width: 1.0;"/><polygon fill="none" points="450.5,96.78,433.23,84.5,454.38,83.33,450.5,96.78" style="stroke: #A80036; stroke-width: 1.0;"/><!--MD5=[83122f2927e0ab147c101707198ad8b4]
reverse link Sniffer.Fragment to Sniffer.RecyclerFragment--><path d="M118.47,147.56 C138.47,169.63 163.29,197.04 181.89,217.57 " fill="none" id="Sniffer.Fragment&lt;-Sniffer.RecyclerFragment" style="stroke: #A80036; stroke-width: 1.0;"/><polygon fill="none" points="113.16,152.12,104.92,132.6,123.54,142.72,113.16,152.12" style="stroke: #A80036; stroke-width: 1.0;"/><!--MD5=[bc1aa89cababc2ea5c98a492b4df08e6]
@startuml
    namespace Sniffer {
        class Adapter extends Adapter{
            + onCreateViewHolder() : ViewHolder
            + onBindViewHolder() : void
            + setData(ArrayList<String> newData) : void
            + getItemCount() : int
        }

                    
        class RecyclerFragment extends Fragment {
            + mettreAJourListe(ArrayList<String> nouvelleListe) : void

        }
    }
@enduml

PlantUML version 1.2020.02(Sun Mar 01 11:22:07 CET 2020)
(GPL source distribution)
Java Runtime: OpenJDK Runtime Environment
JVM: OpenJDK 64-Bit Server VM
Java Version: 11.0.19+7-post-Ubuntu-0ubuntu122.04.1
Operating System: Linux
Default Encoding: UTF-8
Language: fr
Country: FR
--></g></svg>