<?xml version="1.0" encoding="UTF-8" standalone="no"?><svg xmlns="http://www.w3.org/2000/svg" xmlns:xlink="http://www.w3.org/1999/xlink" contentScriptType="application/ecmascript" contentStyleType="text/css" height="206px" preserveAspectRatio="none" style="width:574px;height:206px;" version="1.1" viewBox="0 0 574 206" width="574px" zoomAndPan="magnify"><defs><filter height="300%" id="f9uiu4ii2fdi1" width="300%" x="-1" y="-1"><feGaussianBlur result="blurOut" stdDeviation="2.0"/><feColorMatrix in="blurOut" result="blurOut2" type="matrix" values="0 0 0 0 0 0 0 0 0 0 0 0 0 0 0 0 0 0 .4 0"/><feOffset dx="4.0" dy="4.0" in="blurOut2" result="blurOut3"/><feBlend in="SourceGraphic" in2="blurOut3" mode="normal"/></filter></defs><g><!--MD5=[edef492696cee41fed76c3d2c05c6bec]
class DealerManager--><rect fill="#FEFECE" filter="url(#f9uiu4ii2fdi1)" height="188.8516" id="DealerManager" style="stroke: #A80036; stroke-width: 1.5;" width="556" x="7" y="7"/><ellipse cx="232.75" cy="23" fill="#ADD1B2" rx="11" ry="11" style="stroke: #A80036; stroke-width: 1.0;"/><path d="M235.7188,28.6406 Q235.1406,28.9375 234.5,29.0781 Q233.8594,29.2344 233.1563,29.2344 Q230.6563,29.2344 229.3281,27.5938 Q228.0156,25.9375 228.0156,22.8125 Q228.0156,19.6875 229.3281,18.0313 Q230.6563,16.375 233.1563,16.375 Q233.8594,16.375 234.5,16.5313 Q235.1563,16.6875 235.7188,16.9844 L235.7188,19.7031 Q235.0938,19.125 234.5,18.8594 Q233.9063,18.5781 233.2813,18.5781 Q231.9375,18.5781 231.25,19.6563 Q230.5625,20.7188 230.5625,22.8125 Q230.5625,24.9063 231.25,25.9844 Q231.9375,27.0469 233.2813,27.0469 Q233.9063,27.0469 234.5,26.7813 Q235.0938,26.5 235.7188,25.9219 L235.7188,28.6406 Z "/><text fill="#000000" font-family="sans-serif" font-size="12" lengthAdjust="spacingAndGlyphs" textLength="96" x="253.25" y="27.1543">DealerManager</text><line style="stroke: #A80036; stroke-width: 1.5;" x1="8" x2="562" y1="39" y2="39"/><line style="stroke: #A80036; stroke-width: 1.5;" x1="8" x2="562" y1="47" y2="47"/><ellipse cx="18" cy="58" fill="#84BE84" rx="3" ry="3" style="stroke: #038048; stroke-width: 1.0;"/><text fill="#000000" font-family="sans-serif" font-size="11" lengthAdjust="spacingAndGlyphs" textLength="314" x="27" y="61.2104">verifyObjectName(name: String, context: Context): bool</text><ellipse cx="18" cy="70.8047" fill="#84BE84" rx="3" ry="3" style="stroke: #038048; stroke-width: 1.0;"/><text fill="#000000" font-family="sans-serif" font-size="11" lengthAdjust="spacingAndGlyphs" textLength="216" x="27" y="74.0151">verifyFrameName(frame: String): bool</text><ellipse cx="18" cy="83.6094" fill="#84BE84" rx="3" ry="3" style="stroke: #038048; stroke-width: 1.0;"/><text fill="#000000" font-family="sans-serif" font-size="11" lengthAdjust="spacingAndGlyphs" textLength="157" x="27" y="86.8198">loadObjects() : IdElement[*]</text><ellipse cx="18" cy="96.4141" fill="#84BE84" rx="3" ry="3" style="stroke: #038048; stroke-width: 1.0;"/><text fill="#000000" font-family="sans-serif" font-size="11" lengthAdjust="spacingAndGlyphs" textLength="187" x="27" y="99.6245">saveObject(object : String) : bool</text><ellipse cx="18" cy="109.2188" fill="#84BE84" rx="3" ry="3" style="stroke: #038048; stroke-width: 1.0;"/><text fill="#000000" font-family="sans-serif" font-size="11" lengthAdjust="spacingAndGlyphs" textLength="164" x="27" y="112.4292">getListObject() : IdElement[*]</text><ellipse cx="18" cy="122.0234" fill="#84BE84" rx="3" ry="3" style="stroke: #038048; stroke-width: 1.0;"/><text fill="#000000" font-family="sans-serif" font-size="11" lengthAdjust="spacingAndGlyphs" textLength="234" x="27" y="125.2339">getObject(idElement : IdElement) : Object</text><ellipse cx="18" cy="134.8281" fill="#84BE84" rx="3" ry="3" style="stroke: #038048; stroke-width: 1.0;"/><text fill="#000000" font-family="sans-serif" font-size="11" lengthAdjust="spacingAndGlyphs" textLength="234" x="27" y="138.0386">getFrame(idElement : IdElement) : Frame</text><ellipse cx="18" cy="147.6328" fill="#84BE84" rx="3" ry="3" style="stroke: #038048; stroke-width: 1.0;"/><text fill="#000000" font-family="sans-serif" font-size="11" lengthAdjust="spacingAndGlyphs" textLength="502" x="27" y="150.8433">saveNewFrame(idObject : IdObject, frame : String, mode : SenderMode, periodicity : int)</text><ellipse cx="18" cy="160.4375" fill="#84BE84" rx="3" ry="3" style="stroke: #038048; stroke-width: 1.0;"/><text fill="#000000" font-family="sans-serif" font-size="11" lengthAdjust="spacingAndGlyphs" textLength="269" x="27" y="163.6479">getDefaultObjectName(context: Context): String</text><ellipse cx="18" cy="173.2422" fill="#84BE84" rx="3" ry="3" style="stroke: #038048; stroke-width: 1.0;"/><text fill="#000000" font-family="sans-serif" font-size="11" lengthAdjust="spacingAndGlyphs" textLength="530" x="27" y="176.4526">deleteArticles(deleteObject: List&lt;Object&gt;, deleteFrame: List&lt;Frame&gt;, context: Context): void</text><rect fill="#F24D5C" height="6" style="stroke: #C82930; stroke-width: 1.0;" width="6" x="15" y="183.0469"/><text fill="#000000" font-family="sans-serif" font-size="11" lengthAdjust="spacingAndGlyphs" textLength="172" x="27" y="189.2573">getMaxId(context: Context): int</text><!--MD5=[60a6d539cc7ca9bff8dcb306bb61ed21]
@startuml

class DealerManager {
    + verifyObjectName(name: String, context: Context): bool
    + verifyFrameName(frame: String): bool
    + loadObjects() : IdElement[*]
    + saveObject(object : String) : bool
    + getListObject() : IdElement[*]
    + getObject(idElement : IdElement) : Object
    + getFrame(idElement : IdElement) : Frame
    + saveNewFrame(idObject : IdObject, frame : String, mode : SenderMode, periodicity : int)
    + getDefaultObjectName(context: Context): String
    + deleteArticles(deleteObject: List<Object>, deleteFrame: List<Frame>, context: Context): void
    - getMaxId(context: Context): int
}

@enduml

PlantUML version 1.2020.02(Sun Mar 01 11:22:07 CET 2020)
(GPL source distribution)
Java Runtime: OpenJDK Runtime Environment
JVM: OpenJDK 64-Bit Server VM
Java Version: 11.0.19+7-post-Ubuntu-0ubuntu122.04.1
Operating System: Linux
Default Encoding: UTF-8
Language: fr
Country: FR
--></g></svg>