<?xml version="1.0" encoding="UTF-8" standalone="no"?><svg xmlns="http://www.w3.org/2000/svg" xmlns:xlink="http://www.w3.org/1999/xlink" contentScriptType="application/ecmascript" contentStyleType="text/css" height="142px" preserveAspectRatio="none" style="width:306px;height:142px;" version="1.1" viewBox="0 0 306 142" width="306px" zoomAndPan="magnify"><defs><filter height="300%" id="fv3ak8em2fx18" width="300%" x="-1" y="-1"><feGaussianBlur result="blurOut" stdDeviation="2.0"/><feColorMatrix in="blurOut" result="blurOut2" type="matrix" values="0 0 0 0 0 0 0 0 0 0 0 0 0 0 0 0 0 0 .4 0"/><feOffset dx="4.0" dy="4.0" in="blurOut2" result="blurOut3"/><feBlend in="SourceGraphic" in2="blurOut3" mode="normal"/></filter></defs><g><!--MD5=[2f74120ea8d679a9886ef287b8511154]
class MainActivityViewModel--><rect fill="#FEFECE" filter="url(#fv3ak8em2fx18)" height="124.8281" id="MainActivityViewModel" style="stroke: #A80036; stroke-width: 1.5;" width="288" x="7" y="7"/><ellipse cx="78.25" cy="23" fill="#ADD1B2" rx="11" ry="11" style="stroke: #A80036; stroke-width: 1.0;"/><path d="M81.2188,28.6406 Q80.6406,28.9375 80,29.0781 Q79.3594,29.2344 78.6563,29.2344 Q76.1563,29.2344 74.8281,27.5938 Q73.5156,25.9375 73.5156,22.8125 Q73.5156,19.6875 74.8281,18.0313 Q76.1563,16.375 78.6563,16.375 Q79.3594,16.375 80,16.5313 Q80.6563,16.6875 81.2188,16.9844 L81.2188,19.7031 Q80.5938,19.125 80,18.8594 Q79.4063,18.5781 78.7813,18.5781 Q77.4375,18.5781 76.75,19.6563 Q76.0625,20.7188 76.0625,22.8125 Q76.0625,24.9063 76.75,25.9844 Q77.4375,27.0469 78.7813,27.0469 Q79.4063,27.0469 80,26.7813 Q80.5938,26.5 81.2188,25.9219 L81.2188,28.6406 Z "/><text fill="#000000" font-family="sans-serif" font-size="12" lengthAdjust="spacingAndGlyphs" textLength="137" x="98.75" y="27.1543">MainActivityViewModel</text><line style="stroke: #A80036; stroke-width: 1.5;" x1="8" x2="294" y1="39" y2="39"/><line style="stroke: #A80036; stroke-width: 1.5;" x1="8" x2="294" y1="47" y2="47"/><ellipse cx="18" cy="58" fill="#84BE84" rx="3" ry="3" style="stroke: #038048; stroke-width: 1.0;"/><text fill="#000000" font-family="sans-serif" font-size="11" lengthAdjust="spacingAndGlyphs" textLength="262" x="27" y="61.2104">getStateConnection(): MutableLiveData&lt;Bool&gt;</text><ellipse cx="18" cy="70.8047" fill="#84BE84" rx="3" ry="3" style="stroke: #038048; stroke-width: 1.0;"/><text fill="#000000" font-family="sans-serif" font-size="11" lengthAdjust="spacingAndGlyphs" textLength="228" x="27" y="74.0151">getSendMode(): MutableLiveData&lt;Bool&gt;</text><ellipse cx="18" cy="83.6094" fill="#84BE84" rx="3" ry="3" style="stroke: #038048; stroke-width: 1.0;"/><text fill="#000000" font-family="sans-serif" font-size="11" lengthAdjust="spacingAndGlyphs" textLength="234" x="27" y="86.8198">getPauseMode(): MutableLiveData&lt;Bool&gt;</text><ellipse cx="18" cy="96.4141" fill="#84BE84" rx="3" ry="3" style="stroke: #038048; stroke-width: 1.0;"/><text fill="#000000" font-family="sans-serif" font-size="11" lengthAdjust="spacingAndGlyphs" textLength="137" x="27" y="99.6245">updateSendMode(): void</text><ellipse cx="18" cy="109.2188" fill="#84BE84" rx="3" ry="3" style="stroke: #038048; stroke-width: 1.0;"/><text fill="#000000" font-family="sans-serif" font-size="11" lengthAdjust="spacingAndGlyphs" textLength="171" x="27" y="112.4292">updateStateConnection(): void</text><ellipse cx="18" cy="122.0234" fill="#84BE84" rx="3" ry="3" style="stroke: #038048; stroke-width: 1.0;"/><text fill="#000000" font-family="sans-serif" font-size="11" lengthAdjust="spacingAndGlyphs" textLength="143" x="27" y="125.2339">updatePauseMode(): void</text><!--MD5=[b7f7988cdbb32620e278dc96ed0bb2af]
@startuml

class MainActivityViewModel {
    + getStateConnection(): MutableLiveData<Bool>
    + getSendMode(): MutableLiveData<Bool>
    + getPauseMode(): MutableLiveData<Bool>
    + updateSendMode(): void
    + updateStateConnection(): void
    + updatePauseMode(): void

}

@enduml

PlantUML version 1.2020.02(Sun Mar 01 11:22:07 CET 2020)
(GPL source distribution)
Java Runtime: OpenJDK Runtime Environment
JVM: OpenJDK 64-Bit Server VM
Java Version: 11.0.19+7-post-Ubuntu-0ubuntu122.04.1
Operating System: Linux
Default Encoding: UTF-8
Language: fr
Country: FR
--></g></svg>