<?xml version="1.0" encoding="UTF-8" standalone="no"?><svg xmlns="http://www.w3.org/2000/svg" xmlns:xlink="http://www.w3.org/1999/xlink" contentScriptType="application/ecmascript" contentStyleType="text/css" height="269px" preserveAspectRatio="none" style="width:1880px;height:269px;" version="1.1" viewBox="0 0 1880 269" width="1880px" zoomAndPan="magnify"><defs><filter height="300%" id="f1textsjsbwz6d" width="300%" x="-1" y="-1"><feGaussianBlur result="blurOut" stdDeviation="2.0"/><feColorMatrix in="blurOut" result="blurOut2" type="matrix" values="0 0 0 0 0 0 0 0 0 0 0 0 0 0 0 0 0 0 .4 0"/><feOffset dx="4.0" dy="4.0" in="blurOut2" result="blurOut3"/><feBlend in="SourceGraphic" in2="blurOut3" mode="normal"/></filter></defs><g><!--MD5=[7d1699504207ece9797a4e2188b3c286]
cluster PopUp--><polygon fill="#FFFFFF" filter="url(#f1textsjsbwz6d)" points="22,24,79,24,86,46.2969,1858,46.2969,1858,257,22,257,22,24" style="stroke: #000000; stroke-width: 1.5;"/><line style="stroke: #000000; stroke-width: 1.5;" x1="22" x2="86" y1="46.2969" y2="46.2969"/><text fill="#000000" font-family="sans-serif" font-size="14" font-weight="bold" lengthAdjust="spacingAndGlyphs" textLength="51" x="26" y="38.9951">PopUp</text><!--MD5=[40557e115bc23fb15c39f4f22e9034f1]
class PopupAjoutObjet--><rect fill="#FEFECE" filter="url(#f1textsjsbwz6d)" height="60.8047" id="PopupAjoutObjet" style="stroke: #A80036; stroke-width: 1.5;" width="217" x="38.5" y="173.5"/><ellipse cx="90.25" cy="189.5" fill="#ADD1B2" rx="11" ry="11" style="stroke: #A80036; stroke-width: 1.0;"/><path d="M93.2188,195.1406 Q92.6406,195.4375 92,195.5781 Q91.3594,195.7344 90.6563,195.7344 Q88.1563,195.7344 86.8281,194.0938 Q85.5156,192.4375 85.5156,189.3125 Q85.5156,186.1875 86.8281,184.5313 Q88.1563,182.875 90.6563,182.875 Q91.3594,182.875 92,183.0313 Q92.6563,183.1875 93.2188,183.4844 L93.2188,186.2031 Q92.5938,185.625 92,185.3594 Q91.4063,185.0781 90.7813,185.0781 Q89.4375,185.0781 88.75,186.1563 Q88.0625,187.2188 88.0625,189.3125 Q88.0625,191.4063 88.75,192.4844 Q89.4375,193.5469 90.7813,193.5469 Q91.4063,193.5469 92,193.2813 Q92.5938,193 93.2188,192.4219 L93.2188,195.1406 Z "/><text fill="#000000" font-family="sans-serif" font-size="12" lengthAdjust="spacingAndGlyphs" textLength="105" x="110.75" y="193.6543">PopupAjoutObjet</text><line style="stroke: #A80036; stroke-width: 1.5;" x1="39.5" x2="254.5" y1="205.5" y2="205.5"/><line style="stroke: #A80036; stroke-width: 1.5;" x1="39.5" x2="254.5" y1="213.5" y2="213.5"/><ellipse cx="49.5" cy="224.5" fill="#84BE84" rx="3" ry="3" style="stroke: #038048; stroke-width: 1.0;"/><text fill="#000000" font-family="sans-serif" font-size="11" lengthAdjust="spacingAndGlyphs" textLength="191" x="58.5" y="227.7104">namingObject(String name) : void</text><!--MD5=[5839a728ddc01d792fb5317e858e9ae0]
class AppCompatActivity--><rect fill="#FEFECE" filter="url(#f1textsjsbwz6d)" height="48" id="AppCompatActivity" style="stroke: #A80036; stroke-width: 1.5;" width="147" x="865.5" y="59"/><ellipse cx="880.5" cy="75" fill="#ADD1B2" rx="11" ry="11" style="stroke: #A80036; stroke-width: 1.0;"/><path d="M883.4688,80.6406 Q882.8906,80.9375 882.25,81.0781 Q881.6094,81.2344 880.9063,81.2344 Q878.4063,81.2344 877.0781,79.5938 Q875.7656,77.9375 875.7656,74.8125 Q875.7656,71.6875 877.0781,70.0313 Q878.4063,68.375 880.9063,68.375 Q881.6094,68.375 882.25,68.5313 Q882.9063,68.6875 883.4688,68.9844 L883.4688,71.7031 Q882.8438,71.125 882.25,70.8594 Q881.6563,70.5781 881.0313,70.5781 Q879.6875,70.5781 879,71.6563 Q878.3125,72.7188 878.3125,74.8125 Q878.3125,76.9063 879,77.9844 Q879.6875,79.0469 881.0313,79.0469 Q881.6563,79.0469 882.25,78.7813 Q882.8438,78.5 883.4688,77.9219 L883.4688,80.6406 Z "/><text fill="#000000" font-family="sans-serif" font-size="12" lengthAdjust="spacingAndGlyphs" textLength="115" x="894.5" y="79.1543">AppCompatActivity</text><line style="stroke: #A80036; stroke-width: 1.5;" x1="866.5" x2="1011.5" y1="91" y2="91"/><line style="stroke: #A80036; stroke-width: 1.5;" x1="866.5" x2="1011.5" y1="99" y2="99"/><!--MD5=[f7051d58de28055d1f9a8ce143b49183]
class PopupErreurNombreObjet--><rect fill="#FEFECE" filter="url(#f1textsjsbwz6d)" height="60.8047" id="PopupErreurNombreObjet" style="stroke: #A80036; stroke-width: 1.5;" width="193" x="290.5" y="173.5"/><ellipse cx="305.5" cy="189.5" fill="#ADD1B2" rx="11" ry="11" style="stroke: #A80036; stroke-width: 1.0;"/><path d="M308.4688,195.1406 Q307.8906,195.4375 307.25,195.5781 Q306.6094,195.7344 305.9063,195.7344 Q303.4063,195.7344 302.0781,194.0938 Q300.7656,192.4375 300.7656,189.3125 Q300.7656,186.1875 302.0781,184.5313 Q303.4063,182.875 305.9063,182.875 Q306.6094,182.875 307.25,183.0313 Q307.9063,183.1875 308.4688,183.4844 L308.4688,186.2031 Q307.8438,185.625 307.25,185.3594 Q306.6563,185.0781 306.0313,185.0781 Q304.6875,185.0781 304,186.1563 Q303.3125,187.2188 303.3125,189.3125 Q303.3125,191.4063 304,192.4844 Q304.6875,193.5469 306.0313,193.5469 Q306.6563,193.5469 307.25,193.2813 Q307.8438,193 308.4688,192.4219 L308.4688,195.1406 Z "/><text fill="#000000" font-family="sans-serif" font-size="12" lengthAdjust="spacingAndGlyphs" textLength="161" x="319.5" y="193.6543">PopupErreurNombreObjet</text><line style="stroke: #A80036; stroke-width: 1.5;" x1="291.5" x2="482.5" y1="205.5" y2="205.5"/><line style="stroke: #A80036; stroke-width: 1.5;" x1="291.5" x2="482.5" y1="213.5" y2="213.5"/><ellipse cx="301.5" cy="224.5" fill="#84BE84" rx="3" ry="3" style="stroke: #038048; stroke-width: 1.0;"/><text fill="#000000" font-family="sans-serif" font-size="11" lengthAdjust="spacingAndGlyphs" textLength="79" x="310.5" y="227.7104">cancel() : void</text><!--MD5=[b8b81d797d0206e14ed41c5e03b12eab]
class PopupModeEnvoiTrame--><rect fill="#FEFECE" filter="url(#f1textsjsbwz6d)" height="73.6094" id="PopupModeEnvoiTrame" style="stroke: #A80036; stroke-width: 1.5;" width="178" x="519" y="167"/><ellipse cx="534" cy="183" fill="#ADD1B2" rx="11" ry="11" style="stroke: #A80036; stroke-width: 1.0;"/><path d="M536.9688,188.6406 Q536.3906,188.9375 535.75,189.0781 Q535.1094,189.2344 534.4063,189.2344 Q531.9063,189.2344 530.5781,187.5938 Q529.2656,185.9375 529.2656,182.8125 Q529.2656,179.6875 530.5781,178.0313 Q531.9063,176.375 534.4063,176.375 Q535.1094,176.375 535.75,176.5313 Q536.4063,176.6875 536.9688,176.9844 L536.9688,179.7031 Q536.3438,179.125 535.75,178.8594 Q535.1563,178.5781 534.5313,178.5781 Q533.1875,178.5781 532.5,179.6563 Q531.8125,180.7188 531.8125,182.8125 Q531.8125,184.9063 532.5,185.9844 Q533.1875,187.0469 534.5313,187.0469 Q535.1563,187.0469 535.75,186.7813 Q536.3438,186.5 536.9688,185.9219 L536.9688,188.6406 Z "/><text fill="#000000" font-family="sans-serif" font-size="12" lengthAdjust="spacingAndGlyphs" textLength="146" x="548" y="187.1543">PopupModeEnvoiTrame</text><line style="stroke: #A80036; stroke-width: 1.5;" x1="520" x2="696" y1="199" y2="199"/><line style="stroke: #A80036; stroke-width: 1.5;" x1="520" x2="696" y1="207" y2="207"/><ellipse cx="530" cy="218" fill="#84BE84" rx="3" ry="3" style="stroke: #038048; stroke-width: 1.0;"/><text fill="#000000" font-family="sans-serif" font-size="11" lengthAdjust="spacingAndGlyphs" textLength="118" x="539" y="221.2104">sendingMode() : void</text><ellipse cx="530" cy="230.8047" fill="#84BE84" rx="3" ry="3" style="stroke: #038048; stroke-width: 1.0;"/><text fill="#000000" font-family="sans-serif" font-size="11" lengthAdjust="spacingAndGlyphs" textLength="79" x="539" y="234.0151">cancel() : void</text><!--MD5=[3e644c183032af18520ea6a5f6784bdf]
class PopupErreurSaisieTrame--><rect fill="#FEFECE" filter="url(#f1textsjsbwz6d)" height="60.8047" id="PopupErreurSaisieTrame" style="stroke: #A80036; stroke-width: 1.5;" width="187" x="731.5" y="173.5"/><ellipse cx="746.5" cy="189.5" fill="#ADD1B2" rx="11" ry="11" style="stroke: #A80036; stroke-width: 1.0;"/><path d="M749.4688,195.1406 Q748.8906,195.4375 748.25,195.5781 Q747.6094,195.7344 746.9063,195.7344 Q744.4063,195.7344 743.0781,194.0938 Q741.7656,192.4375 741.7656,189.3125 Q741.7656,186.1875 743.0781,184.5313 Q744.4063,182.875 746.9063,182.875 Q747.6094,182.875 748.25,183.0313 Q748.9063,183.1875 749.4688,183.4844 L749.4688,186.2031 Q748.8438,185.625 748.25,185.3594 Q747.6563,185.0781 747.0313,185.0781 Q745.6875,185.0781 745,186.1563 Q744.3125,187.2188 744.3125,189.3125 Q744.3125,191.4063 745,192.4844 Q745.6875,193.5469 747.0313,193.5469 Q747.6563,193.5469 748.25,193.2813 Q748.8438,193 749.4688,192.4219 L749.4688,195.1406 Z "/><text fill="#000000" font-family="sans-serif" font-size="12" lengthAdjust="spacingAndGlyphs" textLength="155" x="760.5" y="193.6543">PopupErreurSaisieTrame</text><line style="stroke: #A80036; stroke-width: 1.5;" x1="732.5" x2="917.5" y1="205.5" y2="205.5"/><line style="stroke: #A80036; stroke-width: 1.5;" x1="732.5" x2="917.5" y1="213.5" y2="213.5"/><ellipse cx="742.5" cy="224.5" fill="#84BE84" rx="3" ry="3" style="stroke: #038048; stroke-width: 1.0;"/><text fill="#000000" font-family="sans-serif" font-size="11" lengthAdjust="spacingAndGlyphs" textLength="86" x="751.5" y="227.7104">cancel() : voids</text><!--MD5=[8e38276bed7d0c049eed510f7969214c]
class PopupErreurNombreTrame--><rect fill="#FEFECE" filter="url(#f1textsjsbwz6d)" height="60.8047" id="PopupErreurNombreTrame" style="stroke: #A80036; stroke-width: 1.5;" width="199" x="953.5" y="173.5"/><ellipse cx="968.5" cy="189.5" fill="#ADD1B2" rx="11" ry="11" style="stroke: #A80036; stroke-width: 1.0;"/><path d="M971.4688,195.1406 Q970.8906,195.4375 970.25,195.5781 Q969.6094,195.7344 968.9063,195.7344 Q966.4063,195.7344 965.0781,194.0938 Q963.7656,192.4375 963.7656,189.3125 Q963.7656,186.1875 965.0781,184.5313 Q966.4063,182.875 968.9063,182.875 Q969.6094,182.875 970.25,183.0313 Q970.9063,183.1875 971.4688,183.4844 L971.4688,186.2031 Q970.8438,185.625 970.25,185.3594 Q969.6563,185.0781 969.0313,185.0781 Q967.6875,185.0781 967,186.1563 Q966.3125,187.2188 966.3125,189.3125 Q966.3125,191.4063 967,192.4844 Q967.6875,193.5469 969.0313,193.5469 Q969.6563,193.5469 970.25,193.2813 Q970.8438,193 971.4688,192.4219 L971.4688,195.1406 Z "/><text fill="#000000" font-family="sans-serif" font-size="12" lengthAdjust="spacingAndGlyphs" textLength="167" x="982.5" y="193.6543">PopupErreurNombreTrame</text><line style="stroke: #A80036; stroke-width: 1.5;" x1="954.5" x2="1151.5" y1="205.5" y2="205.5"/><line style="stroke: #A80036; stroke-width: 1.5;" x1="954.5" x2="1151.5" y1="213.5" y2="213.5"/><ellipse cx="964.5" cy="224.5" fill="#84BE84" rx="3" ry="3" style="stroke: #038048; stroke-width: 1.0;"/><text fill="#000000" font-family="sans-serif" font-size="11" lengthAdjust="spacingAndGlyphs" textLength="79" x="973.5" y="227.7104">cancel() : void</text><!--MD5=[f76c4fcaba8b485b085bc3871448dbce]
class PopupArretEnvoi--><rect fill="#FEFECE" filter="url(#f1textsjsbwz6d)" height="73.6094" id="PopupArretEnvoi" style="stroke: #A80036; stroke-width: 1.5;" width="170" x="1188" y="167"/><ellipse cx="1218.3" cy="183" fill="#ADD1B2" rx="11" ry="11" style="stroke: #A80036; stroke-width: 1.0;"/><path d="M1221.2688,188.6406 Q1220.6906,188.9375 1220.05,189.0781 Q1219.4094,189.2344 1218.7063,189.2344 Q1216.2063,189.2344 1214.8781,187.5938 Q1213.5656,185.9375 1213.5656,182.8125 Q1213.5656,179.6875 1214.8781,178.0313 Q1216.2063,176.375 1218.7063,176.375 Q1219.4094,176.375 1220.05,176.5313 Q1220.7063,176.6875 1221.2688,176.9844 L1221.2688,179.7031 Q1220.6438,179.125 1220.05,178.8594 Q1219.4563,178.5781 1218.8313,178.5781 Q1217.4875,178.5781 1216.8,179.6563 Q1216.1125,180.7188 1216.1125,182.8125 Q1216.1125,184.9063 1216.8,185.9844 Q1217.4875,187.0469 1218.8313,187.0469 Q1219.4563,187.0469 1220.05,186.7813 Q1220.6438,186.5 1221.2688,185.9219 L1221.2688,188.6406 Z "/><text fill="#000000" font-family="sans-serif" font-size="12" lengthAdjust="spacingAndGlyphs" textLength="104" x="1235.7" y="187.1543">PopupArretEnvoi</text><line style="stroke: #A80036; stroke-width: 1.5;" x1="1189" x2="1357" y1="199" y2="199"/><line style="stroke: #A80036; stroke-width: 1.5;" x1="1189" x2="1357" y1="207" y2="207"/><ellipse cx="1199" cy="218" fill="#84BE84" rx="3" ry="3" style="stroke: #038048; stroke-width: 1.0;"/><text fill="#000000" font-family="sans-serif" font-size="11" lengthAdjust="spacingAndGlyphs" textLength="144" x="1208" y="221.2104">stopSendingMode() : void</text><ellipse cx="1199" cy="230.8047" fill="#84BE84" rx="3" ry="3" style="stroke: #038048; stroke-width: 1.0;"/><text fill="#000000" font-family="sans-serif" font-size="11" lengthAdjust="spacingAndGlyphs" textLength="79" x="1208" y="234.0151">cancel() : void</text><!--MD5=[a0781c55c549714363cb4674733272b5]
class PopupDemandeReconnexion--><rect fill="#FEFECE" filter="url(#f1textsjsbwz6d)" height="73.6094" id="PopupDemandeReconnexion" style="stroke: #A80036; stroke-width: 1.5;" width="212" x="1393" y="167"/><ellipse cx="1408" cy="183" fill="#ADD1B2" rx="11" ry="11" style="stroke: #A80036; stroke-width: 1.0;"/><path d="M1410.9688,188.6406 Q1410.3906,188.9375 1409.75,189.0781 Q1409.1094,189.2344 1408.4063,189.2344 Q1405.9063,189.2344 1404.5781,187.5938 Q1403.2656,185.9375 1403.2656,182.8125 Q1403.2656,179.6875 1404.5781,178.0313 Q1405.9063,176.375 1408.4063,176.375 Q1409.1094,176.375 1409.75,176.5313 Q1410.4063,176.6875 1410.9688,176.9844 L1410.9688,179.7031 Q1410.3438,179.125 1409.75,178.8594 Q1409.1563,178.5781 1408.5313,178.5781 Q1407.1875,178.5781 1406.5,179.6563 Q1405.8125,180.7188 1405.8125,182.8125 Q1405.8125,184.9063 1406.5,185.9844 Q1407.1875,187.0469 1408.5313,187.0469 Q1409.1563,187.0469 1409.75,186.7813 Q1410.3438,186.5 1410.9688,185.9219 L1410.9688,188.6406 Z "/><text fill="#000000" font-family="sans-serif" font-size="12" lengthAdjust="spacingAndGlyphs" textLength="180" x="1422" y="187.1543">PopupDemandeReconnexion</text><line style="stroke: #A80036; stroke-width: 1.5;" x1="1394" x2="1604" y1="199" y2="199"/><line style="stroke: #A80036; stroke-width: 1.5;" x1="1394" x2="1604" y1="207" y2="207"/><ellipse cx="1404" cy="218" fill="#84BE84" rx="3" ry="3" style="stroke: #038048; stroke-width: 1.0;"/><text fill="#000000" font-family="sans-serif" font-size="11" lengthAdjust="spacingAndGlyphs" textLength="116" x="1413" y="221.2104">reconnection() : void</text><ellipse cx="1404" cy="230.8047" fill="#84BE84" rx="3" ry="3" style="stroke: #038048; stroke-width: 1.0;"/><text fill="#000000" font-family="sans-serif" font-size="11" lengthAdjust="spacingAndGlyphs" textLength="79" x="1413" y="234.0151">cancel() : void</text><!--MD5=[968bbb15440313b13b9aa3d4bc6ead58]
class PopupSuppressionElement--><rect fill="#FEFECE" filter="url(#f1textsjsbwz6d)" height="73.6094" id="PopupSuppressionElement" style="stroke: #A80036; stroke-width: 1.5;" width="201" x="1640.5" y="167"/><ellipse cx="1655.5" cy="183" fill="#ADD1B2" rx="11" ry="11" style="stroke: #A80036; stroke-width: 1.0;"/><path d="M1658.4688,188.6406 Q1657.8906,188.9375 1657.25,189.0781 Q1656.6094,189.2344 1655.9063,189.2344 Q1653.4063,189.2344 1652.0781,187.5938 Q1650.7656,185.9375 1650.7656,182.8125 Q1650.7656,179.6875 1652.0781,178.0313 Q1653.4063,176.375 1655.9063,176.375 Q1656.6094,176.375 1657.25,176.5313 Q1657.9063,176.6875 1658.4688,176.9844 L1658.4688,179.7031 Q1657.8438,179.125 1657.25,178.8594 Q1656.6563,178.5781 1656.0313,178.5781 Q1654.6875,178.5781 1654,179.6563 Q1653.3125,180.7188 1653.3125,182.8125 Q1653.3125,184.9063 1654,185.9844 Q1654.6875,187.0469 1656.0313,187.0469 Q1656.6563,187.0469 1657.25,186.7813 Q1657.8438,186.5 1658.4688,185.9219 L1658.4688,188.6406 Z "/><text fill="#000000" font-family="sans-serif" font-size="12" lengthAdjust="spacingAndGlyphs" textLength="169" x="1669.5" y="187.1543">PopupSuppressionElement</text><line style="stroke: #A80036; stroke-width: 1.5;" x1="1641.5" x2="1840.5" y1="199" y2="199"/><line style="stroke: #A80036; stroke-width: 1.5;" x1="1641.5" x2="1840.5" y1="207" y2="207"/><ellipse cx="1651.5" cy="218" fill="#84BE84" rx="3" ry="3" style="stroke: #038048; stroke-width: 1.0;"/><text fill="#000000" font-family="sans-serif" font-size="11" lengthAdjust="spacingAndGlyphs" textLength="131" x="1660.5" y="221.2104">deleteElements() : void</text><ellipse cx="1651.5" cy="230.8047" fill="#84BE84" rx="3" ry="3" style="stroke: #038048; stroke-width: 1.0;"/><text fill="#000000" font-family="sans-serif" font-size="11" lengthAdjust="spacingAndGlyphs" textLength="79" x="1660.5" y="234.0151">cancel() : void</text><!--MD5=[973b647aceb392fe4d8a3e3fff508851]
reverse link AppCompatActivity to PopupAjoutObjet--><path d="M845.27,91.09 C715.68,101.93 474.91,125.83 273,167 C263.86,168.86 254.42,171.05 245,173.42 " fill="none" id="AppCompatActivity&lt;-PopupAjoutObjet" style="stroke: #A80036; stroke-width: 1.0;"/><polygon fill="none" points="844.97,84.09,865.47,89.43,846.11,98.04,844.97,84.09" style="stroke: #A80036; stroke-width: 1.0;"/><!--MD5=[cd528f2e78ab47289c2b0a983d741bcb]
reverse link AppCompatActivity to PopupErreurNombreObjet--><path d="M845.49,98.54 C756.54,113.13 619.27,137.61 502,167 C494.19,168.96 486.12,171.14 478.06,173.44 " fill="none" id="AppCompatActivity&lt;-PopupErreurNombreObjet" style="stroke: #A80036; stroke-width: 1.0;"/><polygon fill="none" points="844.5,91.61,865.37,95.31,846.75,105.43,844.5,91.61" style="stroke: #A80036; stroke-width: 1.0;"/><!--MD5=[3f31c11576eab12f763be59107450eb7]
reverse link AppCompatActivity to PopupModeEnvoiTrame--><path d="M855.9,113.88 C807.49,131.28 746.46,153.22 697.07,170.98 " fill="none" id="AppCompatActivity&lt;-PopupModeEnvoiTrame" style="stroke: #A80036; stroke-width: 1.0;"/><polygon fill="none" points="853.6,107.26,874.79,107.09,858.33,120.44,853.6,107.26" style="stroke: #A80036; stroke-width: 1.0;"/><!--MD5=[b5493256fe495ebb02cbb91b1b518122]
reverse link AppCompatActivity to PopupErreurSaisieTrame--><path d="M902.67,121.92 C886.69,138.61 868.2,157.91 853.27,173.49 " fill="none" id="AppCompatActivity&lt;-PopupErreurSaisieTrame" style="stroke: #A80036; stroke-width: 1.0;"/><polygon fill="none" points="897.86,116.83,916.75,107.23,907.97,126.51,897.86,116.83" style="stroke: #A80036; stroke-width: 1.0;"/><!--MD5=[6e2b8b89f7212d98705709d2fcf794f2]
reverse link AppCompatActivity to PopupErreurNombreTrame--><path d="M975.33,121.92 C991.31,138.61 1009.8,157.91 1024.73,173.49 " fill="none" id="AppCompatActivity&lt;-PopupErreurNombreTrame" style="stroke: #A80036; stroke-width: 1.0;"/><polygon fill="none" points="970.03,126.51,961.25,107.23,980.14,116.83,970.03,126.51" style="stroke: #A80036; stroke-width: 1.0;"/><!--MD5=[e9ca71f2bb5defe72be19a932c32911b]
reverse link AppCompatActivity to PopupArretEnvoi--><path d="M1022.74,113.84 C1073.15,131.8 1137.16,154.6 1187.82,172.65 " fill="none" id="AppCompatActivity&lt;-PopupArretEnvoi" style="stroke: #A80036; stroke-width: 1.0;"/><polygon fill="none" points="1020.29,120.39,1003.79,107.09,1024.98,107.2,1020.29,120.39" style="stroke: #A80036; stroke-width: 1.0;"/><!--MD5=[740d60e6bda617a8819dd2d879349489]
reverse link AppCompatActivity to PopupDemandeReconnexion--><path d="M1032.39,99.04 C1121.25,113.98 1258.46,138.71 1376,167 C1381.52,168.33 1387.15,169.75 1392.83,171.23 " fill="none" id="AppCompatActivity&lt;-PopupDemandeReconnexion" style="stroke: #A80036; stroke-width: 1.0;"/><polygon fill="none" points="1031.11,105.92,1012.53,95.72,1033.41,92.11,1031.11,105.92" style="stroke: #A80036; stroke-width: 1.0;"/><!--MD5=[d8c0a3946309d812bf71fe61c0ca8bbc]
reverse link AppCompatActivity to PopupSuppressionElement--><path d="M1032.83,90.15 C1165.43,100.03 1414.71,122.94 1623,167 C1628.66,168.2 1634.43,169.54 1640.24,170.99 " fill="none" id="AppCompatActivity&lt;-PopupSuppressionElement" style="stroke: #A80036; stroke-width: 1.0;"/><polygon fill="none" points="1032.02,97.11,1012.58,88.68,1033.03,83.15,1032.02,97.11" style="stroke: #A80036; stroke-width: 1.0;"/><!--MD5=[128e12fde1d61c3617932c215c90599b]
@startuml
package PopUp{

    class PopupAjoutObjet extends AppCompatActivity {
        +namingObject(String name) : void
    }
                
    class PopupErreurNombreObjet extends AppCompatActivity {
        +cancel() : void
    }

    class PopupModeEnvoiTrame extends AppCompatActivity {
        +sendingMode() : void
        +cancel() : void
    }
                
    class PopupErreurSaisieTrame extends AppCompatActivity {
        +cancel() : voids
    }
    class PopupErreurNombreTrame extends AppCompatActivity {
        +cancel() : void
    }
                
    class PopupArretEnvoi extends AppCompatActivity {
        +stopSendingMode() : void
        +cancel() : void
    }			
                
    class PopupDemandeReconnexion extends AppCompatActivity {
        +reconnection() : void
        +cancel() : void
    }			
                
    class PopupSuppressionElement extends AppCompatActivity {
        +deleteElements() : void
        +cancel() : void
    }
}


@enduml

PlantUML version 1.2020.02(Sun Mar 01 11:22:07 CET 2020)
(GPL source distribution)
Java Runtime: OpenJDK Runtime Environment
JVM: OpenJDK 64-Bit Server VM
Java Version: 11.0.19+7-post-Ubuntu-0ubuntu122.04.1
Operating System: Linux
Default Encoding: UTF-8
Language: fr
Country: FR
--></g></svg>