<?xml version="1.0" encoding="UTF-8" standalone="no"?><svg xmlns="http://www.w3.org/2000/svg" xmlns:xlink="http://www.w3.org/1999/xlink" contentScriptType="application/ecmascript" contentStyleType="text/css" height="175px" preserveAspectRatio="none" style="width:149px;height:175px;" version="1.1" viewBox="0 0 149 175" width="149px" zoomAndPan="magnify"><defs><filter height="300%" id="f97d3aawcevyu" width="300%" x="-1" y="-1"><feGaussianBlur result="blurOut" stdDeviation="2.0"/><feColorMatrix in="blurOut" result="blurOut2" type="matrix" values="0 0 0 0 0 0 0 0 0 0 0 0 0 0 0 0 0 0 .4 0"/><feOffset dx="4.0" dy="4.0" in="blurOut2" result="blurOut3"/><feBlend in="SourceGraphic" in2="blurOut3" mode="normal"/></filter></defs><g><!--MD5=[41a5fbe8882835836874210d16e0e709]
class ObjectFragment--><rect fill="#FEFECE" filter="url(#f97d3aawcevyu)" height="48" id="ObjectFragment" style="stroke: #A80036; stroke-width: 1.5;" width="132" x="6" y="116"/><ellipse cx="21" cy="132" fill="#ADD1B2" rx="11" ry="11" style="stroke: #A80036; stroke-width: 1.0;"/><path d="M23.9688,137.6406 Q23.3906,137.9375 22.75,138.0781 Q22.1094,138.2344 21.4063,138.2344 Q18.9063,138.2344 17.5781,136.5938 Q16.2656,134.9375 16.2656,131.8125 Q16.2656,128.6875 17.5781,127.0313 Q18.9063,125.375 21.4063,125.375 Q22.1094,125.375 22.75,125.5313 Q23.4063,125.6875 23.9688,125.9844 L23.9688,128.7031 Q23.3438,128.125 22.75,127.8594 Q22.1563,127.5781 21.5313,127.5781 Q20.1875,127.5781 19.5,128.6563 Q18.8125,129.7188 18.8125,131.8125 Q18.8125,133.9063 19.5,134.9844 Q20.1875,136.0469 21.5313,136.0469 Q22.1563,136.0469 22.75,135.7813 Q23.3438,135.5 23.9688,134.9219 L23.9688,137.6406 Z "/><text fill="#000000" font-family="sans-serif" font-size="12" lengthAdjust="spacingAndGlyphs" textLength="100" x="35" y="136.1543">ObjectFragment</text><line style="stroke: #A80036; stroke-width: 1.5;" x1="7" x2="137" y1="148" y2="148"/><line style="stroke: #A80036; stroke-width: 1.5;" x1="7" x2="137" y1="156" y2="156"/><!--MD5=[499a93d1a2128e7b640a788d1f7209bf]
class Fragment--><rect fill="#FEFECE" filter="url(#f97d3aawcevyu)" height="48" id="Fragment" style="stroke: #A80036; stroke-width: 1.5;" width="92" x="26" y="8"/><ellipse cx="41" cy="24" fill="#ADD1B2" rx="11" ry="11" style="stroke: #A80036; stroke-width: 1.0;"/><path d="M43.9688,29.6406 Q43.3906,29.9375 42.75,30.0781 Q42.1094,30.2344 41.4063,30.2344 Q38.9063,30.2344 37.5781,28.5938 Q36.2656,26.9375 36.2656,23.8125 Q36.2656,20.6875 37.5781,19.0313 Q38.9063,17.375 41.4063,17.375 Q42.1094,17.375 42.75,17.5313 Q43.4063,17.6875 43.9688,17.9844 L43.9688,20.7031 Q43.3438,20.125 42.75,19.8594 Q42.1563,19.5781 41.5313,19.5781 Q40.1875,19.5781 39.5,20.6563 Q38.8125,21.7188 38.8125,23.8125 Q38.8125,25.9063 39.5,26.9844 Q40.1875,28.0469 41.5313,28.0469 Q42.1563,28.0469 42.75,27.7813 Q43.3438,27.5 43.9688,26.9219 L43.9688,29.6406 Z "/><text fill="#000000" font-family="sans-serif" font-size="12" lengthAdjust="spacingAndGlyphs" textLength="60" x="55" y="28.1543">Fragment</text><line style="stroke: #A80036; stroke-width: 1.5;" x1="27" x2="117" y1="40" y2="40"/><line style="stroke: #A80036; stroke-width: 1.5;" x1="27" x2="117" y1="48" y2="48"/><!--MD5=[19ac53a7852773734c95538704924c13]
reverse link Fragment to ObjectFragment--><path d="M72,76.02 C72,89.58 72,104.04 72,115.68 " fill="none" id="Fragment&lt;-ObjectFragment" style="stroke: #A80036; stroke-width: 1.0;"/><polygon fill="none" points="65,76,72,56,79,76,65,76" style="stroke: #A80036; stroke-width: 1.0;"/><!--MD5=[116f55e6d431e14a883b929266e0248c]
@startuml
    class ObjectFragment extends Fragment {
    }
@enduml

PlantUML version 1.2020.02(Sun Mar 01 11:22:07 CET 2020)
(GPL source distribution)
Java Runtime: OpenJDK Runtime Environment
JVM: OpenJDK 64-Bit Server VM
Java Version: 11.0.19+7-post-Ubuntu-0ubuntu122.04.1
Operating System: Linux
Default Encoding: UTF-8
Language: fr
Country: FR
--></g></svg>