<?xml version="1.0" encoding="UTF-8" standalone="no"?><svg xmlns="http://www.w3.org/2000/svg" xmlns:xlink="http://www.w3.org/1999/xlink" contentScriptType="application/ecmascript" contentStyleType="text/css" height="187px" preserveAspectRatio="none" style="width:219px;height:187px;" version="1.1" viewBox="0 0 219 187" width="219px" zoomAndPan="magnify"><defs><filter height="300%" id="fuf4xcyvdgr30" width="300%" x="-1" y="-1"><feGaussianBlur result="blurOut" stdDeviation="2.0"/><feColorMatrix in="blurOut" result="blurOut2" type="matrix" values="0 0 0 0 0 0 0 0 0 0 0 0 0 0 0 0 0 0 .4 0"/><feOffset dx="4.0" dy="4.0" in="blurOut2" result="blurOut3"/><feBlend in="SourceGraphic" in2="blurOut3" mode="normal"/></filter></defs><g><!--MD5=[724d6dccb1e6bbb12a396d734640ac76]
class AddObject--><rect fill="#FEFECE" filter="url(#fuf4xcyvdgr30)" height="60.8047" id="AddObject" style="stroke: #A80036; stroke-width: 1.5;" width="202" x="6" y="116"/><ellipse cx="70.75" cy="132" fill="#ADD1B2" rx="11" ry="11" style="stroke: #A80036; stroke-width: 1.0;"/><path d="M73.7188,137.6406 Q73.1406,137.9375 72.5,138.0781 Q71.8594,138.2344 71.1563,138.2344 Q68.6563,138.2344 67.3281,136.5938 Q66.0156,134.9375 66.0156,131.8125 Q66.0156,128.6875 67.3281,127.0313 Q68.6563,125.375 71.1563,125.375 Q71.8594,125.375 72.5,125.5313 Q73.1563,125.6875 73.7188,125.9844 L73.7188,128.7031 Q73.0938,128.125 72.5,127.8594 Q71.9063,127.5781 71.2813,127.5781 Q69.9375,127.5781 69.25,128.6563 Q68.5625,129.7188 68.5625,131.8125 Q68.5625,133.9063 69.25,134.9844 Q69.9375,136.0469 71.2813,136.0469 Q71.9063,136.0469 72.5,135.7813 Q73.0938,135.5 73.7188,134.9219 L73.7188,137.6406 Z "/><text fill="#000000" font-family="sans-serif" font-size="12" lengthAdjust="spacingAndGlyphs" textLength="64" x="91.25" y="136.1543">AddObject</text><line style="stroke: #A80036; stroke-width: 1.5;" x1="7" x2="207" y1="148" y2="148"/><line style="stroke: #A80036; stroke-width: 1.5;" x1="7" x2="207" y1="156" y2="156"/><rect fill="#F24D5C" height="6" style="stroke: #C82930; stroke-width: 1.0;" width="6" x="14" y="164"/><text fill="#000000" font-family="sans-serif" font-size="11" lengthAdjust="spacingAndGlyphs" textLength="176" x="26" y="170.2104">addObject (String object) : void</text><!--MD5=[499a93d1a2128e7b640a788d1f7209bf]
class Fragment--><rect fill="#FEFECE" filter="url(#fuf4xcyvdgr30)" height="48" id="Fragment" style="stroke: #A80036; stroke-width: 1.5;" width="92" x="61" y="8"/><ellipse cx="76" cy="24" fill="#ADD1B2" rx="11" ry="11" style="stroke: #A80036; stroke-width: 1.0;"/><path d="M78.9688,29.6406 Q78.3906,29.9375 77.75,30.0781 Q77.1094,30.2344 76.4063,30.2344 Q73.9063,30.2344 72.5781,28.5938 Q71.2656,26.9375 71.2656,23.8125 Q71.2656,20.6875 72.5781,19.0313 Q73.9063,17.375 76.4063,17.375 Q77.1094,17.375 77.75,17.5313 Q78.4063,17.6875 78.9688,17.9844 L78.9688,20.7031 Q78.3438,20.125 77.75,19.8594 Q77.1563,19.5781 76.5313,19.5781 Q75.1875,19.5781 74.5,20.6563 Q73.8125,21.7188 73.8125,23.8125 Q73.8125,25.9063 74.5,26.9844 Q75.1875,28.0469 76.5313,28.0469 Q77.1563,28.0469 77.75,27.7813 Q78.3438,27.5 78.9688,26.9219 L78.9688,29.6406 Z "/><text fill="#000000" font-family="sans-serif" font-size="12" lengthAdjust="spacingAndGlyphs" textLength="60" x="90" y="28.1543">Fragment</text><line style="stroke: #A80036; stroke-width: 1.5;" x1="62" x2="152" y1="40" y2="40"/><line style="stroke: #A80036; stroke-width: 1.5;" x1="62" x2="152" y1="48" y2="48"/><!--MD5=[09893cd3586a08238f17c7a6f10e2fd3]
reverse link Fragment to AddObject--><path d="M107,76.11 C107,89.31 107,103.54 107,115.65 " fill="none" id="Fragment&lt;-AddObject" style="stroke: #A80036; stroke-width: 1.0;"/><polygon fill="none" points="100,76.04,107,56.04,114,76.04,100,76.04" style="stroke: #A80036; stroke-width: 1.0;"/><!--MD5=[9811efd91e12fe6f030bc456fd93aab1]
@startuml
class AddObject extends Fragment {
    -addObject (String object) : void
}
@enduml

PlantUML version 1.2020.02(Sun Mar 01 11:22:07 CET 2020)
(GPL source distribution)
Java Runtime: OpenJDK Runtime Environment
JVM: OpenJDK 64-Bit Server VM
Java Version: 11.0.19+7-post-Ubuntu-0ubuntu122.04.1
Operating System: Linux
Default Encoding: UTF-8
Language: fr
Country: FR
--></g></svg>