<?xml version="1.0" encoding="UTF-8" standalone="no"?><svg xmlns="http://www.w3.org/2000/svg" xmlns:xlink="http://www.w3.org/1999/xlink" contentScriptType="application/ecmascript" contentStyleType="text/css" height="226px" preserveAspectRatio="none" style="width:254px;height:226px;" version="1.1" viewBox="0 0 254 226" width="254px" zoomAndPan="magnify"><defs><filter height="300%" id="fl7amt6s5wnxc" width="300%" x="-1" y="-1"><feGaussianBlur result="blurOut" stdDeviation="2.0"/><feColorMatrix in="blurOut" result="blurOut2" type="matrix" values="0 0 0 0 0 0 0 0 0 0 0 0 0 0 0 0 0 0 .4 0"/><feOffset dx="4.0" dy="4.0" in="blurOut2" result="blurOut3"/><feBlend in="SourceGraphic" in2="blurOut3" mode="normal"/></filter></defs><g><!--MD5=[529cab3b0c5a0c2d0a7e390be753685b]
class CommunicationCANdroid--><rect fill="#FEFECE" filter="url(#fl7amt6s5wnxc)" height="99.2188" id="CommunicationCANdroid" style="stroke: #A80036; stroke-width: 1.5;" width="213" x="6" y="116"/><ellipse cx="33.6" cy="132" fill="#ADD1B2" rx="11" ry="11" style="stroke: #A80036; stroke-width: 1.0;"/><path d="M36.5688,137.6406 Q35.9906,137.9375 35.35,138.0781 Q34.7094,138.2344 34.0063,138.2344 Q31.5063,138.2344 30.1781,136.5938 Q28.8656,134.9375 28.8656,131.8125 Q28.8656,128.6875 30.1781,127.0313 Q31.5063,125.375 34.0063,125.375 Q34.7094,125.375 35.35,125.5313 Q36.0063,125.6875 36.5688,125.9844 L36.5688,128.7031 Q35.9438,128.125 35.35,127.8594 Q34.7563,127.5781 34.1313,127.5781 Q32.7875,127.5781 32.1,128.6563 Q31.4125,129.7188 31.4125,131.8125 Q31.4125,133.9063 32.1,134.9844 Q32.7875,136.0469 34.1313,136.0469 Q34.7563,136.0469 35.35,135.7813 Q35.9438,135.5 36.5688,134.9219 L36.5688,137.6406 Z "/><text fill="#000000" font-family="sans-serif" font-size="12" lengthAdjust="spacingAndGlyphs" textLength="153" x="50.4" y="136.1543">CommunicationCANdroid</text><line style="stroke: #A80036; stroke-width: 1.5;" x1="7" x2="218" y1="148" y2="148"/><line style="stroke: #A80036; stroke-width: 1.5;" x1="7" x2="218" y1="156" y2="156"/><rect fill="#F24D5C" height="6" style="stroke: #C82930; stroke-width: 1.0;" width="6" x="14" y="164"/><text fill="#000000" font-family="sans-serif" font-size="11" lengthAdjust="spacingAndGlyphs" textLength="120" x="26" y="170.2104">receiveFrame() : void</text><ellipse cx="17" cy="179.8047" fill="#84BE84" rx="3" ry="3" style="stroke: #038048; stroke-width: 1.0;"/><text fill="#000000" font-family="sans-serif" font-size="11" lengthAdjust="spacingAndGlyphs" textLength="119" x="26" y="183.0151">connectClient() : void</text><ellipse cx="17" cy="192.6094" fill="#84BE84" rx="3" ry="3" style="stroke: #038048; stroke-width: 1.0;"/><text fill="#000000" font-family="sans-serif" font-size="11" lengthAdjust="spacingAndGlyphs" textLength="136" x="26" y="195.8198">disconnectClient() : void</text><ellipse cx="17" cy="205.4141" fill="#84BE84" rx="3" ry="3" style="stroke: #038048; stroke-width: 1.0;"/><text fill="#000000" font-family="sans-serif" font-size="11" lengthAdjust="spacingAndGlyphs" textLength="187" x="26" y="208.6245">sendFrame(frame : String) : void</text><!--MD5=[948346f2dfe9866ea883595a582714fa]
class Thread--><rect fill="#FEFECE" filter="url(#fl7amt6s5wnxc)" height="48" id="Thread" style="stroke: #A80036; stroke-width: 1.5;" width="76" x="6.5" y="8"/><ellipse cx="21.5" cy="24" fill="#ADD1B2" rx="11" ry="11" style="stroke: #A80036; stroke-width: 1.0;"/><path d="M24.4688,29.6406 Q23.8906,29.9375 23.25,30.0781 Q22.6094,30.2344 21.9063,30.2344 Q19.4063,30.2344 18.0781,28.5938 Q16.7656,26.9375 16.7656,23.8125 Q16.7656,20.6875 18.0781,19.0313 Q19.4063,17.375 21.9063,17.375 Q22.6094,17.375 23.25,17.5313 Q23.9063,17.6875 24.4688,17.9844 L24.4688,20.7031 Q23.8438,20.125 23.25,19.8594 Q22.6563,19.5781 22.0313,19.5781 Q20.6875,19.5781 20,20.6563 Q19.3125,21.7188 19.3125,23.8125 Q19.3125,25.9063 20,26.9844 Q20.6875,28.0469 22.0313,28.0469 Q22.6563,28.0469 23.25,27.7813 Q23.8438,27.5 24.4688,26.9219 L24.4688,29.6406 Z "/><text fill="#000000" font-family="sans-serif" font-size="12" lengthAdjust="spacingAndGlyphs" textLength="44" x="35.5" y="28.1543">Thread</text><line style="stroke: #A80036; stroke-width: 1.5;" x1="7.5" x2="81.5" y1="40" y2="40"/><line style="stroke: #A80036; stroke-width: 1.5;" x1="7.5" x2="81.5" y1="48" y2="48"/><!--MD5=[3334dbde63ce3d00708e67c78dbfb583]
class SocketListener--><rect fill="#FEFECE" filter="url(#fl7amt6s5wnxc)" height="48" id="SocketListener" style="stroke: #A80036; stroke-width: 1.5;" width="125" x="118" y="8"/><ellipse cx="133" cy="24" fill="#B4A7E5" rx="11" ry="11" style="stroke: #A80036; stroke-width: 1.0;"/><path d="M128.9219,19.7656 L128.9219,17.6094 L136.3125,17.6094 L136.3125,19.7656 L133.8438,19.7656 L133.8438,27.8438 L136.3125,27.8438 L136.3125,30 L128.9219,30 L128.9219,27.8438 L131.3906,27.8438 L131.3906,19.7656 L128.9219,19.7656 Z "/><text fill="#000000" font-family="sans-serif" font-size="12" font-style="italic" lengthAdjust="spacingAndGlyphs" textLength="93" x="147" y="28.1543">SocketListener</text><line style="stroke: #A80036; stroke-width: 1.5;" x1="119" x2="242" y1="40" y2="40"/><line style="stroke: #A80036; stroke-width: 1.5;" x1="119" x2="242" y1="48" y2="48"/><!--MD5=[657e08da5fda12ae69568723c24366d2]
reverse link Thread to CommunicationCANdroid--><path d="M65.8,74.19 C72.64,87.42 80.29,102.21 87.38,115.93 " fill="none" id="Thread&lt;-CommunicationCANdroid" style="stroke: #A80036; stroke-width: 1.0;"/><polygon fill="none" points="59.47,77.19,56.5,56.21,71.91,70.76,59.47,77.19" style="stroke: #A80036; stroke-width: 1.0;"/><!--MD5=[0470239505dcc073b2a1d20eee8f67b3]
reverse link SocketListener to CommunicationCANdroid--><path d="M159.2,74.19 C152.36,87.42 144.71,102.21 137.62,115.93 " fill="none" id="SocketListener&lt;-CommunicationCANdroid" style="stroke: #A80036; stroke-width: 1.0; stroke-dasharray: 7.0,7.0;"/><polygon fill="none" points="153.09,70.76,168.5,56.21,165.53,77.19,153.09,70.76" style="stroke: #A80036; stroke-width: 1.0;"/><!--MD5=[b017a4a2b95bd751b63b97f82f9ccd07]
@startuml

class CommunicationCANdroid extends Thread implements SocketListener
{
- receiveFrame() : void
+ connectClient() : void
+ disconnectClient() : void
+ sendFrame(frame : String) : void
}

@enduml

PlantUML version 1.2020.02(Sun Mar 01 11:22:07 CET 2020)
(GPL source distribution)
Java Runtime: OpenJDK Runtime Environment
JVM: OpenJDK 64-Bit Server VM
Java Version: 11.0.19+7-post-Ubuntu-0ubuntu122.04.1
Operating System: Linux
Default Encoding: UTF-8
Language: fr
Country: FR
--></g></svg>