<?xml version="1.0" encoding="UTF-8" standalone="no"?><svg xmlns="http://www.w3.org/2000/svg" xmlns:xlink="http://www.w3.org/1999/xlink" contentScriptType="application/ecmascript" contentStyleType="text/css" height="315px" preserveAspectRatio="none" style="width:496px;height:315px;" version="1.1" viewBox="0 0 496 315" width="496px" zoomAndPan="magnify"><defs><filter height="300%" id="f1lio0173lxljg" width="300%" x="-1" y="-1"><feGaussianBlur result="blurOut" stdDeviation="2.0"/><feColorMatrix in="blurOut" result="blurOut2" type="matrix" values="0 0 0 0 0 0 0 0 0 0 0 0 0 0 0 0 0 0 .4 0"/><feOffset dx="4.0" dy="4.0" in="blurOut2" result="blurOut3"/><feBlend in="SourceGraphic" in2="blurOut3" mode="normal"/></filter></defs><g><!--MD5=[045f95fe2bea24e84c101d08e36f28f6]
class BasketManager--><rect fill="#FEFECE" filter="url(#f1lio0173lxljg)" height="188.8516" id="BasketManager" style="stroke: #A80036; stroke-width: 1.5;" width="479" x="6" y="116"/><ellipse cx="192.25" cy="132" fill="#ADD1B2" rx="11" ry="11" style="stroke: #A80036; stroke-width: 1.0;"/><path d="M195.2188,137.6406 Q194.6406,137.9375 194,138.0781 Q193.3594,138.2344 192.6563,138.2344 Q190.1563,138.2344 188.8281,136.5938 Q187.5156,134.9375 187.5156,131.8125 Q187.5156,128.6875 188.8281,127.0313 Q190.1563,125.375 192.6563,125.375 Q193.3594,125.375 194,125.5313 Q194.6563,125.6875 195.2188,125.9844 L195.2188,128.7031 Q194.5938,128.125 194,127.8594 Q193.4063,127.5781 192.7813,127.5781 Q191.4375,127.5781 190.75,128.6563 Q190.0625,129.7188 190.0625,131.8125 Q190.0625,133.9063 190.75,134.9844 Q191.4375,136.0469 192.7813,136.0469 Q193.4063,136.0469 194,135.7813 Q194.5938,135.5 195.2188,134.9219 L195.2188,137.6406 Z "/><text fill="#000000" font-family="sans-serif" font-size="12" lengthAdjust="spacingAndGlyphs" textLength="98" x="212.75" y="136.1543">BasketManager</text><line style="stroke: #A80036; stroke-width: 1.5;" x1="7" x2="484" y1="148" y2="148"/><rect fill="none" height="6" style="stroke: #C82930; stroke-width: 1.0;" width="6" x="14" y="156"/><text fill="#000000" font-family="sans-serif" font-size="11" lengthAdjust="spacingAndGlyphs" textLength="135" x="26" y="162.2104">elements : IdElement[*]</text><line style="stroke: #A80036; stroke-width: 1.5;" x1="7" x2="484" y1="168.8047" y2="168.8047"/><ellipse cx="17" cy="179.8047" fill="#84BE84" rx="3" ry="3" style="stroke: #038048; stroke-width: 1.0;"/><text fill="#000000" font-family="sans-serif" font-size="11" lengthAdjust="spacingAndGlyphs" textLength="323" x="26" y="183.0151">onBindViewHolder (ViewHolder holder, int position) : void</text><ellipse cx="17" cy="192.6094" fill="#84BE84" rx="3" ry="3" style="stroke: #038048; stroke-width: 1.0;"/><text fill="#000000" font-family="sans-serif" font-size="11" lengthAdjust="spacingAndGlyphs" textLength="110" x="26" y="195.8198">getItemCount() : int</text><ellipse cx="17" cy="205.4141" fill="#84BE84" rx="3" ry="3" style="stroke: #038048; stroke-width: 1.0;"/><text fill="#000000" font-family="sans-serif" font-size="11" lengthAdjust="spacingAndGlyphs" textLength="453" x="26" y="208.6245">bindRecyclerViewData(RecyclerView recyclerView, ArrayList&lt;String&gt; data) : void</text><ellipse cx="17" cy="218.2188" fill="#84BE84" rx="3" ry="3" style="stroke: #038048; stroke-width: 1.0;"/><text fill="#000000" font-family="sans-serif" font-size="11" lengthAdjust="spacingAndGlyphs" textLength="242" x="26" y="221.4292">setData(ArrayList&lt;String&gt; newData) : void</text><ellipse cx="17" cy="231.0234" fill="#84BE84" rx="3" ry="3" style="stroke: #038048; stroke-width: 1.0;"/><text fill="#000000" font-family="sans-serif" font-size="11" lengthAdjust="spacingAndGlyphs" textLength="110" x="26" y="234.2339">ViewHolder () : void</text><ellipse cx="17" cy="243.8281" fill="#84BE84" rx="3" ry="3" style="stroke: #038048; stroke-width: 1.0;"/><text fill="#000000" font-family="sans-serif" font-size="11" lengthAdjust="spacingAndGlyphs" textLength="238" x="26" y="247.0386">addElement (idElement : IdElement) : void</text><ellipse cx="17" cy="256.6328" fill="#84BE84" rx="3" ry="3" style="stroke: #038048; stroke-width: 1.0;"/><text fill="#000000" font-family="sans-serif" font-size="11" lengthAdjust="spacingAndGlyphs" textLength="256" x="26" y="259.8433">removeElement(idElement : IdElement) : void</text><ellipse cx="17" cy="269.4375" fill="#84BE84" rx="3" ry="3" style="stroke: #038048; stroke-width: 1.0;"/><text fill="#000000" font-family="sans-serif" font-size="11" lengthAdjust="spacingAndGlyphs" textLength="154" x="26" y="272.6479">getElement() : IdElement[*]</text><ellipse cx="17" cy="282.2422" fill="#84BE84" rx="3" ry="3" style="stroke: #038048; stroke-width: 1.0;"/><text fill="#000000" font-family="sans-serif" font-size="11" lengthAdjust="spacingAndGlyphs" textLength="84" x="26" y="285.4526">clearAll() : void</text><ellipse cx="17" cy="295.0469" fill="#84BE84" rx="3" ry="3" style="stroke: #038048; stroke-width: 1.0;"/><text fill="#000000" font-family="sans-serif" font-size="11" lengthAdjust="spacingAndGlyphs" textLength="86" x="26" y="298.2573">update () : void</text><!--MD5=[499a93d1a2128e7b640a788d1f7209bf]
class Fragment--><rect fill="#FEFECE" filter="url(#f1lio0173lxljg)" height="48" id="Fragment" style="stroke: #A80036; stroke-width: 1.5;" width="92" x="199.5" y="8"/><ellipse cx="214.5" cy="24" fill="#ADD1B2" rx="11" ry="11" style="stroke: #A80036; stroke-width: 1.0;"/><path d="M217.4688,29.6406 Q216.8906,29.9375 216.25,30.0781 Q215.6094,30.2344 214.9063,30.2344 Q212.4063,30.2344 211.0781,28.5938 Q209.7656,26.9375 209.7656,23.8125 Q209.7656,20.6875 211.0781,19.0313 Q212.4063,17.375 214.9063,17.375 Q215.6094,17.375 216.25,17.5313 Q216.9063,17.6875 217.4688,17.9844 L217.4688,20.7031 Q216.8438,20.125 216.25,19.8594 Q215.6563,19.5781 215.0313,19.5781 Q213.6875,19.5781 213,20.6563 Q212.3125,21.7188 212.3125,23.8125 Q212.3125,25.9063 213,26.9844 Q213.6875,28.0469 215.0313,28.0469 Q215.6563,28.0469 216.25,27.7813 Q216.8438,27.5 217.4688,26.9219 L217.4688,29.6406 Z "/><text fill="#000000" font-family="sans-serif" font-size="12" lengthAdjust="spacingAndGlyphs" textLength="60" x="228.5" y="28.1543">Fragment</text><line style="stroke: #A80036; stroke-width: 1.5;" x1="200.5" x2="290.5" y1="40" y2="40"/><line style="stroke: #A80036; stroke-width: 1.5;" x1="200.5" x2="290.5" y1="48" y2="48"/><!--MD5=[856204deb0ad599038167c0fa1abd1f6]
reverse link Fragment to BasketManager--><path d="M245.5,76.38 C245.5,88.4 245.5,101.93 245.5,115.65 " fill="none" id="Fragment&lt;-BasketManager" style="stroke: #A80036; stroke-width: 1.0;"/><polygon fill="none" points="238.5,76.07,245.5,56.07,252.5,76.07,238.5,76.07" style="stroke: #A80036; stroke-width: 1.0;"/><!--MD5=[5282211bc2d9e3a22f134ffbb8952fd1]
@startuml
    class BasketManager extends Fragment{
        - elements : IdElement[*]
        +onBindViewHolder (ViewHolder holder, int position) : void
        +getItemCount() : int
        +bindRecyclerViewData(RecyclerView recyclerView, ArrayList<String> data) : void
        +setData(ArrayList<String> newData) : void
        +ViewHolder () : void
        +addElement (idElement : IdElement) : void
        +removeElement(idElement : IdElement) : void
        +getElement() : IdElement[*]
        +clearAll() : void
        +update () : void
    }


@enduml

PlantUML version 1.2020.02(Sun Mar 01 11:22:07 CET 2020)
(GPL source distribution)
Java Runtime: OpenJDK Runtime Environment
JVM: OpenJDK 64-Bit Server VM
Java Version: 11.0.19+7-post-Ubuntu-0ubuntu122.04.1
Operating System: Linux
Default Encoding: UTF-8
Language: fr
Country: FR
--></g></svg>