<?xml version="1.0" encoding="UTF-8" standalone="no"?><svg xmlns="http://www.w3.org/2000/svg" xmlns:xlink="http://www.w3.org/1999/xlink" contentScriptType="application/ecmascript" contentStyleType="text/css" height="155px" preserveAspectRatio="none" style="width:223px;height:155px;" version="1.1" viewBox="0 0 223 155" width="223px" zoomAndPan="magnify"><defs><filter height="300%" id="f1bwyzyz53o717" width="300%" x="-1" y="-1"><feGaussianBlur result="blurOut" stdDeviation="2.0"/><feColorMatrix in="blurOut" result="blurOut2" type="matrix" values="0 0 0 0 0 0 0 0 0 0 0 0 0 0 0 0 0 0 .4 0"/><feOffset dx="4.0" dy="4.0" in="blurOut2" result="blurOut3"/><feBlend in="SourceGraphic" in2="blurOut3" mode="normal"/></filter></defs><g><!--MD5=[678ba86161b65c93147b2a3a8cf02be2]
class Frame--><rect fill="#FEFECE" filter="url(#f1bwyzyz53o717)" height="137.6328" id="Frame" style="stroke: #A80036; stroke-width: 1.5;" width="205" x="7" y="7"/><ellipse cx="85.75" cy="23" fill="#ADD1B2" rx="11" ry="11" style="stroke: #A80036; stroke-width: 1.0;"/><path d="M88.7188,28.6406 Q88.1406,28.9375 87.5,29.0781 Q86.8594,29.2344 86.1563,29.2344 Q83.6563,29.2344 82.3281,27.5938 Q81.0156,25.9375 81.0156,22.8125 Q81.0156,19.6875 82.3281,18.0313 Q83.6563,16.375 86.1563,16.375 Q86.8594,16.375 87.5,16.5313 Q88.1563,16.6875 88.7188,16.9844 L88.7188,19.7031 Q88.0938,19.125 87.5,18.8594 Q86.9063,18.5781 86.2813,18.5781 Q84.9375,18.5781 84.25,19.6563 Q83.5625,20.7188 83.5625,22.8125 Q83.5625,24.9063 84.25,25.9844 Q84.9375,27.0469 86.2813,27.0469 Q86.9063,27.0469 87.5,26.7813 Q88.0938,26.5 88.7188,25.9219 L88.7188,28.6406 Z "/><text fill="#000000" font-family="sans-serif" font-size="12" lengthAdjust="spacingAndGlyphs" textLength="39" x="106.25" y="27.1543">Frame</text><line style="stroke: #A80036; stroke-width: 1.5;" x1="8" x2="211" y1="39" y2="39"/><ellipse cx="18" cy="50" fill="none" rx="3" ry="3" style="stroke: #038048; stroke-width: 1.0;"/><text fill="#000000" font-family="sans-serif" font-size="11" lengthAdjust="spacingAndGlyphs" textLength="36" x="27" y="53.2104">id : int</text><ellipse cx="18" cy="62.8047" fill="none" rx="3" ry="3" style="stroke: #038048; stroke-width: 1.0;"/><text fill="#000000" font-family="sans-serif" font-size="11" lengthAdjust="spacingAndGlyphs" textLength="92" x="27" y="66.0151">idFrame : String</text><ellipse cx="18" cy="75.6094" fill="none" rx="3" ry="3" style="stroke: #038048; stroke-width: 1.0;"/><text fill="#000000" font-family="sans-serif" font-size="11" lengthAdjust="spacingAndGlyphs" textLength="48" x="27" y="78.8198">size : int</text><ellipse cx="18" cy="88.4141" fill="none" rx="3" ry="3" style="stroke: #038048; stroke-width: 1.0;"/><text fill="#000000" font-family="sans-serif" font-size="11" lengthAdjust="spacingAndGlyphs" textLength="71" x="27" y="91.6245">data : String</text><ellipse cx="18" cy="101.2188" fill="none" rx="3" ry="3" style="stroke: #038048; stroke-width: 1.0;"/><text fill="#000000" font-family="sans-serif" font-size="11" lengthAdjust="spacingAndGlyphs" textLength="84" x="27" y="104.4292">perioditicy : int</text><ellipse cx="18" cy="114.0234" fill="none" rx="3" ry="3" style="stroke: #038048; stroke-width: 1.0;"/><text fill="#000000" font-family="sans-serif" font-size="11" lengthAdjust="spacingAndGlyphs" textLength="72" x="27" y="117.2339">idObject : int</text><line style="stroke: #A80036; stroke-width: 1.5;" x1="8" x2="211" y1="123.8281" y2="123.8281"/><ellipse cx="18" cy="134.8281" fill="#84BE84" rx="3" ry="3" style="stroke: #038048; stroke-width: 1.0;"/><text fill="#000000" font-family="sans-serif" font-size="11" lengthAdjust="spacingAndGlyphs" textLength="179" x="27" y="138.0386">setIdObject(idObject : int) : void</text><!--MD5=[0f40ee3c2a7a5219edaa1346f31e057a]
@startuml

class Frame
{
    + id : int
    + idFrame : String
    + size : int
    + data : String
    + perioditicy : int
    + idObject : int
    + setIdObject(idObject : int) : void
}

@enduml

PlantUML version 1.2020.02(Sun Mar 01 11:22:07 CET 2020)
(GPL source distribution)
Java Runtime: OpenJDK Runtime Environment
JVM: OpenJDK 64-Bit Server VM
Java Version: 11.0.19+7-post-Ubuntu-0ubuntu122.04.1
Operating System: Linux
Default Encoding: UTF-8
Language: fr
Country: FR
--></g></svg>