<?xml version="1.0" encoding="UTF-8" standalone="no"?><svg xmlns="http://www.w3.org/2000/svg" xmlns:xlink="http://www.w3.org/1999/xlink" contentScriptType="application/ecmascript" contentStyleType="text/css" height="78px" preserveAspectRatio="none" style="width:219px;height:78px;" version="1.1" viewBox="0 0 219 78" width="219px" zoomAndPan="magnify"><defs><filter height="300%" id="f1hoash6icuh6s" width="300%" x="-1" y="-1"><feGaussianBlur result="blurOut" stdDeviation="2.0"/><feColorMatrix in="blurOut" result="blurOut2" type="matrix" values="0 0 0 0 0 0 0 0 0 0 0 0 0 0 0 0 0 0 .4 0"/><feOffset dx="4.0" dy="4.0" in="blurOut2" result="blurOut3"/><feBlend in="SourceGraphic" in2="blurOut3" mode="normal"/></filter></defs><g><!--MD5=[8377efa590c81e76e542760390739437]
class DispatcherCANdroid--><rect fill="#FEFECE" filter="url(#f1hoash6icuh6s)" height="60.8047" id="DispatcherCANdroid" style="stroke: #A80036; stroke-width: 1.5;" width="201" x="7" y="7"/><ellipse cx="41.8" cy="23" fill="#ADD1B2" rx="11" ry="11" style="stroke: #A80036; stroke-width: 1.0;"/><path d="M44.7688,28.6406 Q44.1906,28.9375 43.55,29.0781 Q42.9094,29.2344 42.2063,29.2344 Q39.7063,29.2344 38.3781,27.5938 Q37.0656,25.9375 37.0656,22.8125 Q37.0656,19.6875 38.3781,18.0313 Q39.7063,16.375 42.2063,16.375 Q42.9094,16.375 43.55,16.5313 Q44.2063,16.6875 44.7688,16.9844 L44.7688,19.7031 Q44.1438,19.125 43.55,18.8594 Q42.9563,18.5781 42.3313,18.5781 Q40.9875,18.5781 40.3,19.6563 Q39.6125,20.7188 39.6125,22.8125 Q39.6125,24.9063 40.3,25.9844 Q40.9875,27.0469 42.3313,27.0469 Q42.9563,27.0469 43.55,26.7813 Q44.1438,26.5 44.7688,25.9219 L44.7688,28.6406 Z "/><text fill="#000000" font-family="sans-serif" font-size="12" lengthAdjust="spacingAndGlyphs" textLength="125" x="60.2" y="27.1543">DispatcherCANdroid</text><line style="stroke: #A80036; stroke-width: 1.5;" x1="8" x2="207" y1="39" y2="39"/><line style="stroke: #A80036; stroke-width: 1.5;" x1="8" x2="207" y1="47" y2="47"/><ellipse cx="18" cy="58" fill="#84BE84" rx="3" ry="3" style="stroke: #038048; stroke-width: 1.0;"/><text fill="#000000" font-family="sans-serif" font-size="11" lengthAdjust="spacingAndGlyphs" textLength="175" x="27" y="61.2104">dispatch(frame : String ) : void</text><!--MD5=[c113664ab2a06df57bd0252d55529687]
@startuml

class DispatcherCANdroid {
    + dispatch(frame : String ) : void
}

@enduml

PlantUML version 1.2020.02(Sun Mar 01 11:22:07 CET 2020)
(GPL source distribution)
Java Runtime: OpenJDK Runtime Environment
JVM: OpenJDK 64-Bit Server VM
Java Version: 11.0.19+7-post-Ubuntu-0ubuntu122.04.1
Operating System: Linux
Default Encoding: UTF-8
Language: fr
Country: FR
--></g></svg>