<?xml version="1.0" encoding="UTF-8" standalone="no"?><svg xmlns="http://www.w3.org/2000/svg" xmlns:xlink="http://www.w3.org/1999/xlink" contentScriptType="application/ecmascript" contentStyleType="text/css" height="91px" preserveAspectRatio="none" style="width:122px;height:91px;" version="1.1" viewBox="0 0 122 91" width="122px" zoomAndPan="magnify"><defs><filter height="300%" id="f1i7gc9zdn0p6i" width="300%" x="-1" y="-1"><feGaussianBlur result="blurOut" stdDeviation="2.0"/><feColorMatrix in="blurOut" result="blurOut2" type="matrix" values="0 0 0 0 0 0 0 0 0 0 0 0 0 0 0 0 0 0 .4 0"/><feOffset dx="4.0" dy="4.0" in="blurOut2" result="blurOut3"/><feBlend in="SourceGraphic" in2="blurOut3" mode="normal"/></filter></defs><g><!--MD5=[aa7f586532e18719e6cefa70fc650583]
class Object--><rect fill="#FEFECE" filter="url(#f1i7gc9zdn0p6i)" height="73.6094" id="Object" style="stroke: #A80036; stroke-width: 1.5;" width="104" x="7" y="7"/><ellipse cx="36.4" cy="23" fill="#ADD1B2" rx="11" ry="11" style="stroke: #A80036; stroke-width: 1.0;"/><path d="M39.3688,28.6406 Q38.7906,28.9375 38.15,29.0781 Q37.5094,29.2344 36.8063,29.2344 Q34.3063,29.2344 32.9781,27.5938 Q31.6656,25.9375 31.6656,22.8125 Q31.6656,19.6875 32.9781,18.0313 Q34.3063,16.375 36.8063,16.375 Q37.5094,16.375 38.15,16.5313 Q38.8063,16.6875 39.3688,16.9844 L39.3688,19.7031 Q38.7438,19.125 38.15,18.8594 Q37.5563,18.5781 36.9313,18.5781 Q35.5875,18.5781 34.9,19.6563 Q34.2125,20.7188 34.2125,22.8125 Q34.2125,24.9063 34.9,25.9844 Q35.5875,27.0469 36.9313,27.0469 Q37.5563,27.0469 38.15,26.7813 Q38.7438,26.5 39.3688,25.9219 L39.3688,28.6406 Z "/><text fill="#000000" font-family="sans-serif" font-size="12" lengthAdjust="spacingAndGlyphs" textLength="40" x="53.6" y="27.1543">Object</text><line style="stroke: #A80036; stroke-width: 1.5;" x1="8" x2="110" y1="39" y2="39"/><ellipse cx="18" cy="50" fill="none" rx="3" ry="3" style="stroke: #038048; stroke-width: 1.0;"/><text fill="#000000" font-family="sans-serif" font-size="11" lengthAdjust="spacingAndGlyphs" textLength="36" x="27" y="53.2104">id : int</text><ellipse cx="18" cy="62.8047" fill="none" rx="3" ry="3" style="stroke: #038048; stroke-width: 1.0;"/><text fill="#000000" font-family="sans-serif" font-size="11" lengthAdjust="spacingAndGlyphs" textLength="78" x="27" y="66.0151">name : String</text><line style="stroke: #A80036; stroke-width: 1.5;" x1="8" x2="110" y1="72.6094" y2="72.6094"/><!--MD5=[d191c429a3d915d4ff6bb30dacea2dab]
@startuml

class Object {

    + id : int
    + name : String
}

@enduml

PlantUML version 1.2020.02(Sun Mar 01 11:22:07 CET 2020)
(GPL source distribution)
Java Runtime: OpenJDK Runtime Environment
JVM: OpenJDK 64-Bit Server VM
Java Version: 11.0.19+7-post-Ubuntu-0ubuntu122.04.1
Operating System: Linux
Default Encoding: UTF-8
Language: fr
Country: FR
--></g></svg>