<?xml version="1.0" encoding="UTF-8" standalone="no"?><svg xmlns="http://www.w3.org/2000/svg" xmlns:xlink="http://www.w3.org/1999/xlink" contentScriptType="application/ecmascript" contentStyleType="text/css" height="175px" preserveAspectRatio="none" style="width:130px;height:175px;" version="1.1" viewBox="0 0 130 175" width="130px" zoomAndPan="magnify"><defs><filter height="300%" id="freprak8fq3gb" width="300%" x="-1" y="-1"><feGaussianBlur result="blurOut" stdDeviation="2.0"/><feColorMatrix in="blurOut" result="blurOut2" type="matrix" values="0 0 0 0 0 0 0 0 0 0 0 0 0 0 0 0 0 0 .4 0"/><feOffset dx="4.0" dy="4.0" in="blurOut2" result="blurOut3"/><feBlend in="SourceGraphic" in2="blurOut3" mode="normal"/></filter></defs><g><!--MD5=[59eaf4e12de7c99de052192a984f5f7a]
class DeleteSniffer--><rect fill="#FEFECE" filter="url(#freprak8fq3gb)" height="48" id="DeleteSniffer" style="stroke: #A80036; stroke-width: 1.5;" width="113" x="6" y="116"/><ellipse cx="21" cy="132" fill="#ADD1B2" rx="11" ry="11" style="stroke: #A80036; stroke-width: 1.0;"/><path d="M23.9688,137.6406 Q23.3906,137.9375 22.75,138.0781 Q22.1094,138.2344 21.4063,138.2344 Q18.9063,138.2344 17.5781,136.5938 Q16.2656,134.9375 16.2656,131.8125 Q16.2656,128.6875 17.5781,127.0313 Q18.9063,125.375 21.4063,125.375 Q22.1094,125.375 22.75,125.5313 Q23.4063,125.6875 23.9688,125.9844 L23.9688,128.7031 Q23.3438,128.125 22.75,127.8594 Q22.1563,127.5781 21.5313,127.5781 Q20.1875,127.5781 19.5,128.6563 Q18.8125,129.7188 18.8125,131.8125 Q18.8125,133.9063 19.5,134.9844 Q20.1875,136.0469 21.5313,136.0469 Q22.1563,136.0469 22.75,135.7813 Q23.3438,135.5 23.9688,134.9219 L23.9688,137.6406 Z "/><text fill="#000000" font-family="sans-serif" font-size="12" lengthAdjust="spacingAndGlyphs" textLength="81" x="35" y="136.1543">DeleteSniffer</text><line style="stroke: #A80036; stroke-width: 1.5;" x1="7" x2="118" y1="148" y2="148"/><line style="stroke: #A80036; stroke-width: 1.5;" x1="7" x2="118" y1="156" y2="156"/><!--MD5=[499a93d1a2128e7b640a788d1f7209bf]
class Fragment--><rect fill="#FEFECE" filter="url(#freprak8fq3gb)" height="48" id="Fragment" style="stroke: #A80036; stroke-width: 1.5;" width="92" x="16.5" y="8"/><ellipse cx="31.5" cy="24" fill="#ADD1B2" rx="11" ry="11" style="stroke: #A80036; stroke-width: 1.0;"/><path d="M34.4688,29.6406 Q33.8906,29.9375 33.25,30.0781 Q32.6094,30.2344 31.9063,30.2344 Q29.4063,30.2344 28.0781,28.5938 Q26.7656,26.9375 26.7656,23.8125 Q26.7656,20.6875 28.0781,19.0313 Q29.4063,17.375 31.9063,17.375 Q32.6094,17.375 33.25,17.5313 Q33.9063,17.6875 34.4688,17.9844 L34.4688,20.7031 Q33.8438,20.125 33.25,19.8594 Q32.6563,19.5781 32.0313,19.5781 Q30.6875,19.5781 30,20.6563 Q29.3125,21.7188 29.3125,23.8125 Q29.3125,25.9063 30,26.9844 Q30.6875,28.0469 32.0313,28.0469 Q32.6563,28.0469 33.25,27.7813 Q33.8438,27.5 34.4688,26.9219 L34.4688,29.6406 Z "/><text fill="#000000" font-family="sans-serif" font-size="12" lengthAdjust="spacingAndGlyphs" textLength="60" x="45.5" y="28.1543">Fragment</text><line style="stroke: #A80036; stroke-width: 1.5;" x1="17.5" x2="107.5" y1="40" y2="40"/><line style="stroke: #A80036; stroke-width: 1.5;" x1="17.5" x2="107.5" y1="48" y2="48"/><!--MD5=[06d0da7db864bd9b7a0d7239b557c7b2]
reverse link Fragment to DeleteSniffer--><path d="M62.5,76.02 C62.5,89.58 62.5,104.04 62.5,115.68 " fill="none" id="Fragment&lt;-DeleteSniffer" style="stroke: #A80036; stroke-width: 1.0;"/><polygon fill="none" points="55.5,76,62.5,56,69.5,76,55.5,76" style="stroke: #A80036; stroke-width: 1.0;"/><!--MD5=[37233f7cc7b226be3c1e7e2ab38dd484]
@startuml
    class DeleteSniffer extends Fragment{
    }
@enduml

PlantUML version 1.2020.02(Sun Mar 01 11:22:07 CET 2020)
(GPL source distribution)
Java Runtime: OpenJDK Runtime Environment
JVM: OpenJDK 64-Bit Server VM
Java Version: 11.0.19+7-post-Ubuntu-0ubuntu122.04.1
Operating System: Linux
Default Encoding: UTF-8
Language: fr
Country: FR
--></g></svg>