<?xml version="1.0" encoding="UTF-8" standalone="no"?><svg xmlns="http://www.w3.org/2000/svg" xmlns:xlink="http://www.w3.org/1999/xlink" contentScriptType="application/ecmascript" contentStyleType="text/css" height="392px" preserveAspectRatio="none" style="width:337px;height:392px;" version="1.1" viewBox="0 0 337 392" width="337px" zoomAndPan="magnify"><defs><filter height="300%" id="f1ajdni5xjlhdf" width="300%" x="-1" y="-1"><feGaussianBlur result="blurOut" stdDeviation="2.0"/><feColorMatrix in="blurOut" result="blurOut2" type="matrix" values="0 0 0 0 0 0 0 0 0 0 0 0 0 0 0 0 0 0 .4 0"/><feOffset dx="4.0" dy="4.0" in="blurOut2" result="blurOut3"/><feBlend in="SourceGraphic" in2="blurOut3" mode="normal"/></filter></defs><g><!--MD5=[5db00888549904919e3a09c35d77129e]
class MainActivity--><rect fill="#FEFECE" filter="url(#f1ajdni5xjlhdf)" height="265.6797" id="MainActivity" style="stroke: #A80036; stroke-width: 1.5;" width="320" x="6" y="116"/><ellipse cx="125.75" cy="132" fill="#ADD1B2" rx="11" ry="11" style="stroke: #A80036; stroke-width: 1.0;"/><path d="M128.7188,137.6406 Q128.1406,137.9375 127.5,138.0781 Q126.8594,138.2344 126.1563,138.2344 Q123.6563,138.2344 122.3281,136.5938 Q121.0156,134.9375 121.0156,131.8125 Q121.0156,128.6875 122.3281,127.0313 Q123.6563,125.375 126.1563,125.375 Q126.8594,125.375 127.5,125.5313 Q128.1563,125.6875 128.7188,125.9844 L128.7188,128.7031 Q128.0938,128.125 127.5,127.8594 Q126.9063,127.5781 126.2813,127.5781 Q124.9375,127.5781 124.25,128.6563 Q123.5625,129.7188 123.5625,131.8125 Q123.5625,133.9063 124.25,134.9844 Q124.9375,136.0469 126.2813,136.0469 Q126.9063,136.0469 127.5,135.7813 Q128.0938,135.5 128.7188,134.9219 L128.7188,137.6406 Z "/><text fill="#000000" font-family="sans-serif" font-size="12" lengthAdjust="spacingAndGlyphs" textLength="72" x="146.25" y="136.1543">MainActivity</text><line style="stroke: #A80036; stroke-width: 1.5;" x1="7" x2="325" y1="148" y2="148"/><line style="stroke: #A80036; stroke-width: 1.5;" x1="7" x2="325" y1="156" y2="156"/><ellipse cx="17" cy="167" fill="#84BE84" rx="3" ry="3" style="stroke: #038048; stroke-width: 1.0;"/><text fill="#000000" font-family="sans-serif" font-size="11" lengthAdjust="spacingAndGlyphs" textLength="294" x="26" y="170.2104">setNetworkAvailability(networkState : NetworkState)</text><ellipse cx="17" cy="179.8047" fill="#84BE84" rx="3" ry="3" style="stroke: #038048; stroke-width: 1.0;"/><text fill="#000000" font-family="sans-serif" font-size="11" lengthAdjust="spacingAndGlyphs" textLength="265" x="26" y="183.0151">setSendingState(sendingState : SendingState)</text><ellipse cx="17" cy="192.6094" fill="#84BE84" rx="3" ry="3" style="stroke: #038048; stroke-width: 1.0;"/><text fill="#000000" font-family="sans-serif" font-size="11" lengthAdjust="spacingAndGlyphs" textLength="220" x="26" y="195.8198">onClickSetConnection(view View) : void</text><ellipse cx="17" cy="205.4141" fill="#84BE84" rx="3" ry="3" style="stroke: #038048; stroke-width: 1.0;"/><text fill="#000000" font-family="sans-serif" font-size="11" lengthAdjust="spacingAndGlyphs" textLength="167" x="26" y="208.6245">onClickSend(view View) : void</text><ellipse cx="17" cy="218.2188" fill="#84BE84" rx="3" ry="3" style="stroke: #038048; stroke-width: 1.0;"/><text fill="#000000" font-family="sans-serif" font-size="11" lengthAdjust="spacingAndGlyphs" textLength="209" x="26" y="221.4292">onClickStartReceive(view View) : void</text><ellipse cx="17" cy="231.0234" fill="#84BE84" rx="3" ry="3" style="stroke: #038048; stroke-width: 1.0;"/><text fill="#000000" font-family="sans-serif" font-size="11" lengthAdjust="spacingAndGlyphs" textLength="101" x="26" y="234.2339">onDestroy() : void</text><ellipse cx="17" cy="243.8281" fill="#84BE84" rx="3" ry="3" style="stroke: #038048; stroke-width: 1.0;"/><text fill="#000000" font-family="sans-serif" font-size="11" lengthAdjust="spacingAndGlyphs" textLength="203" x="26" y="247.0386">onClickSeeReceive(view View) : void</text><ellipse cx="17" cy="256.6328" fill="#84BE84" rx="3" ry="3" style="stroke: #038048; stroke-width: 1.0;"/><text fill="#000000" font-family="sans-serif" font-size="11" lengthAdjust="spacingAndGlyphs" textLength="200" x="26" y="259.8433">onClickDisconnect(view View) : void</text><ellipse cx="17" cy="269.4375" fill="#84BE84" rx="3" ry="3" style="stroke: #038048; stroke-width: 1.0;"/><text fill="#000000" font-family="sans-serif" font-size="11" lengthAdjust="spacingAndGlyphs" textLength="195" x="26" y="272.6479">onClickAddFrame(view View) : void</text><ellipse cx="17" cy="282.2422" fill="#84BE84" rx="3" ry="3" style="stroke: #038048; stroke-width: 1.0;"/><text fill="#000000" font-family="sans-serif" font-size="11" lengthAdjust="spacingAndGlyphs" textLength="195" x="26" y="285.4526">onClickAddObject(view View) : void</text><ellipse cx="17" cy="295.0469" fill="#84BE84" rx="3" ry="3" style="stroke: #038048; stroke-width: 1.0;"/><text fill="#000000" font-family="sans-serif" font-size="11" lengthAdjust="spacingAndGlyphs" textLength="174" x="26" y="298.2573">onClickDelete(view View) : void</text><ellipse cx="17" cy="307.8516" fill="#84BE84" rx="3" ry="3" style="stroke: #038048; stroke-width: 1.0;"/><text fill="#000000" font-family="sans-serif" font-size="11" lengthAdjust="spacingAndGlyphs" textLength="196" x="26" y="311.062">onClickPlayPause(view View) : void</text><ellipse cx="17" cy="320.6563" fill="#84BE84" rx="3" ry="3" style="stroke: #038048; stroke-width: 1.0;"/><text fill="#000000" font-family="sans-serif" font-size="11" lengthAdjust="spacingAndGlyphs" textLength="200" x="26" y="323.8667">onClickBackToTop(view View) : void</text><ellipse cx="17" cy="333.4609" fill="#84BE84" rx="3" ry="3" style="stroke: #038048; stroke-width: 1.0;"/><text fill="#000000" font-family="sans-serif" font-size="11" lengthAdjust="spacingAndGlyphs" textLength="215" x="26" y="336.6714">onCLickExportSniffer(view View) : void</text><ellipse cx="17" cy="346.2656" fill="#84BE84" rx="3" ry="3" style="stroke: #038048; stroke-width: 1.0;"/><text fill="#000000" font-family="sans-serif" font-size="11" lengthAdjust="spacingAndGlyphs" textLength="208" x="26" y="349.4761">onClickCleanSniffer(view View) : void</text><rect fill="#F24D5C" height="6" style="stroke: #C82930; stroke-width: 1.0;" width="6" x="14" y="356.0703"/><text fill="#000000" font-family="sans-serif" font-size="11" lengthAdjust="spacingAndGlyphs" textLength="112" x="26" y="362.2808">getFrame () : String</text><rect fill="#F24D5C" height="6" style="stroke: #C82930; stroke-width: 1.0;" width="6" x="14" y="368.875"/><text fill="#000000" font-family="sans-serif" font-size="11" lengthAdjust="spacingAndGlyphs" textLength="181" x="26" y="375.0854">setFrame (frame : String) : void</text><!--MD5=[5839a728ddc01d792fb5317e858e9ae0]
class AppCompatActivity--><rect fill="#FEFECE" filter="url(#f1ajdni5xjlhdf)" height="48" id="AppCompatActivity" style="stroke: #A80036; stroke-width: 1.5;" width="147" x="92.5" y="8"/><ellipse cx="107.5" cy="24" fill="#ADD1B2" rx="11" ry="11" style="stroke: #A80036; stroke-width: 1.0;"/><path d="M110.4688,29.6406 Q109.8906,29.9375 109.25,30.0781 Q108.6094,30.2344 107.9063,30.2344 Q105.4063,30.2344 104.0781,28.5938 Q102.7656,26.9375 102.7656,23.8125 Q102.7656,20.6875 104.0781,19.0313 Q105.4063,17.375 107.9063,17.375 Q108.6094,17.375 109.25,17.5313 Q109.9063,17.6875 110.4688,17.9844 L110.4688,20.7031 Q109.8438,20.125 109.25,19.8594 Q108.6563,19.5781 108.0313,19.5781 Q106.6875,19.5781 106,20.6563 Q105.3125,21.7188 105.3125,23.8125 Q105.3125,25.9063 106,26.9844 Q106.6875,28.0469 108.0313,28.0469 Q108.6563,28.0469 109.25,27.7813 Q109.8438,27.5 110.4688,26.9219 L110.4688,29.6406 Z "/><text fill="#000000" font-family="sans-serif" font-size="12" lengthAdjust="spacingAndGlyphs" textLength="115" x="121.5" y="28.1543">AppCompatActivity</text><line style="stroke: #A80036; stroke-width: 1.5;" x1="93.5" x2="238.5" y1="40" y2="40"/><line style="stroke: #A80036; stroke-width: 1.5;" x1="93.5" x2="238.5" y1="48" y2="48"/><!--MD5=[ed15e4b4378ef2b54f6eaba16beaf40a]
reverse link AppCompatActivity to MainActivity--><path d="M166,76.45 C166,88.26 166,101.7 166,115.73 " fill="none" id="AppCompatActivity&lt;-MainActivity" style="stroke: #A80036; stroke-width: 1.0;"/><polygon fill="none" points="159,76.01,166,56.01,173,76.01,159,76.01" style="stroke: #A80036; stroke-width: 1.0;"/><!--MD5=[868a5f7166dc0fc228690da4981f823f]
@startuml

    class MainActivity extends AppCompatActivity  {
        +setNetworkAvailability(networkState : NetworkState)
        +setSendingState(sendingState : SendingState)
        +onClickSetConnection(view View) : void
        +onClickSend(view View) : void
        +onClickStartReceive(view View) : void
        +onDestroy() : void
        +onClickSeeReceive(view View) : void
        +onClickDisconnect(view View) : void
        +onClickAddFrame(view View) : void
        +onClickAddObject(view View) : void
        +onClickDelete(view View) : void
        +onClickPlayPause(view View) : void
        +onClickBackToTop(view View) : void
        +onCLickExportSniffer(view View) : void
        +onClickCleanSniffer(view View) : void
        -getFrame () : String
        -setFrame (frame : String) : void


    }
@enduml

PlantUML version 1.2020.02(Sun Mar 01 11:22:07 CET 2020)
(GPL source distribution)
Java Runtime: OpenJDK Runtime Environment
JVM: OpenJDK 64-Bit Server VM
Java Version: 11.0.19+7-post-Ubuntu-0ubuntu122.04.1
Operating System: Linux
Default Encoding: UTF-8
Language: fr
Country: FR
--></g></svg>