<?xml version="1.0" encoding="UTF-8" standalone="no"?><svg xmlns="http://www.w3.org/2000/svg" xmlns:xlink="http://www.w3.org/1999/xlink" contentScriptType="application/ecmascript" contentStyleType="text/css" height="105px" preserveAspectRatio="none" style="width:277px;height:105px;" version="1.1" viewBox="0 0 277 105" width="277px" zoomAndPan="magnify"><defs><filter height="300%" id="fvfsy06u3ofu5" width="300%" x="-1" y="-1"><feGaussianBlur result="blurOut" stdDeviation="2.0"/><feColorMatrix in="blurOut" result="blurOut2" type="matrix" values="0 0 0 0 0 0 0 0 0 0 0 0 0 0 0 0 0 0 .4 0"/><feOffset dx="4.0" dy="4.0" in="blurOut2" result="blurOut3"/><feBlend in="SourceGraphic" in2="blurOut3" mode="normal"/></filter></defs><g><!--MD5=[f38a85e47f7d4f812523dd9b6d7d2c16]
class Adapter--><rect fill="#FEFECE" filter="url(#fvfsy06u3ofu5)" height="86.4141" id="Adapter" style="stroke: #A80036; stroke-width: 1.5;" width="224" x="6" y="8"/><ellipse cx="88.75" cy="24" fill="#ADD1B2" rx="11" ry="11" style="stroke: #A80036; stroke-width: 1.0;"/><path d="M91.7188,29.6406 Q91.1406,29.9375 90.5,30.0781 Q89.8594,30.2344 89.1563,30.2344 Q86.6563,30.2344 85.3281,28.5938 Q84.0156,26.9375 84.0156,23.8125 Q84.0156,20.6875 85.3281,19.0313 Q86.6563,17.375 89.1563,17.375 Q89.8594,17.375 90.5,17.5313 Q91.1563,17.6875 91.7188,17.9844 L91.7188,20.7031 Q91.0938,20.125 90.5,19.8594 Q89.9063,19.5781 89.2813,19.5781 Q87.9375,19.5781 87.25,20.6563 Q86.5625,21.7188 86.5625,23.8125 Q86.5625,25.9063 87.25,26.9844 Q87.9375,28.0469 89.2813,28.0469 Q89.9063,28.0469 90.5,27.7813 Q91.0938,27.5 91.7188,26.9219 L91.7188,29.6406 Z "/><text fill="#000000" font-family="sans-serif" font-size="12" lengthAdjust="spacingAndGlyphs" textLength="50" x="109.25" y="28.1543">Adapter</text><line style="stroke: #A80036; stroke-width: 1.5;" x1="7" x2="229" y1="40" y2="40"/><line style="stroke: #A80036; stroke-width: 1.5;" x1="7" x2="229" y1="48" y2="48"/><ellipse cx="17" cy="59" fill="#84BE84" rx="3" ry="3" style="stroke: #038048; stroke-width: 1.0;"/><text fill="#000000" font-family="sans-serif" font-size="11" lengthAdjust="spacingAndGlyphs" textLength="198" x="26" y="62.2104">onCreateViewHolder() : ViewHolder</text><ellipse cx="17" cy="71.8047" fill="#84BE84" rx="3" ry="3" style="stroke: #038048; stroke-width: 1.0;"/><text fill="#000000" font-family="sans-serif" font-size="11" lengthAdjust="spacingAndGlyphs" textLength="145" x="26" y="75.0151">onBindViewHolder() : void</text><ellipse cx="17" cy="84.6094" fill="#84BE84" rx="3" ry="3" style="stroke: #038048; stroke-width: 1.0;"/><text fill="#000000" font-family="sans-serif" font-size="11" lengthAdjust="spacingAndGlyphs" textLength="110" x="26" y="87.8198">getItemCount() : int</text><!--MD5=[1c0a4a1f87061373766706685c3b5540]
reverse link Adapter to Adapter--><path d="M250.18,39.26 C259.39,41.94 265,45.86 265,51 C265,59.23 250.64,64.31 230.16,66.24 " fill="none" id="Adapter&lt;-Adapter" style="stroke: #A80036; stroke-width: 1.0;"/><polygon fill="none" points="248.66,46.1,230.16,35.76,251.07,32.31,248.66,46.1" style="stroke: #A80036; stroke-width: 1.0;"/><!--MD5=[5efcc83aba880ed20139161221742836]
@startuml
    class Adapter extends Adapter{
        +onCreateViewHolder() : ViewHolder
        +onBindViewHolder() : void
        +getItemCount() : int
    }


@enduml

PlantUML version 1.2020.02(Sun Mar 01 11:22:07 CET 2020)
(GPL source distribution)
Java Runtime: OpenJDK Runtime Environment
JVM: OpenJDK 64-Bit Server VM
Java Version: 11.0.19+7-post-Ubuntu-0ubuntu122.04.1
Operating System: Linux
Default Encoding: UTF-8
Language: fr
Country: FR
--></g></svg>