<?xml version="1.0" encoding="UTF-8" standalone="no"?><svg xmlns="http://www.w3.org/2000/svg" xmlns:xlink="http://www.w3.org/1999/xlink" contentScriptType="application/ecmascript" contentStyleType="text/css" height="281px" preserveAspectRatio="none" style="width:583px;height:281px;" version="1.1" viewBox="0 0 583 281" width="583px" zoomAndPan="magnify"><defs><filter height="300%" id="fsbnyzzotuu4g" width="300%" x="-1" y="-1"><feGaussianBlur result="blurOut" stdDeviation="2.0"/><feColorMatrix in="blurOut" result="blurOut2" type="matrix" values="0 0 0 0 0 0 0 0 0 0 0 0 0 0 0 0 0 0 .4 0"/><feOffset dx="4.0" dy="4.0" in="blurOut2" result="blurOut3"/><feBlend in="SourceGraphic" in2="blurOut3" mode="normal"/></filter></defs><g><!--MD5=[f7063bcb33931c4476f04506dbc63d28]
cluster Objects--><polygon fill="#FFFFFF" filter="url(#fsbnyzzotuu4g)" points="22,24,88,24,95,46.2969,561,46.2969,561,269,22,269,22,24" style="stroke: #000000; stroke-width: 1.5;"/><line style="stroke: #000000; stroke-width: 1.5;" x1="22" x2="95" y1="46.2969" y2="46.2969"/><text fill="#000000" font-family="sans-serif" font-size="14" font-weight="bold" lengthAdjust="spacingAndGlyphs" textLength="60" x="26" y="38.9951">Objects</text><!--MD5=[5f176c32cd1b922306881c1651c56092]
class ObjectsAdapter--><rect fill="#FEFECE" filter="url(#fsbnyzzotuu4g)" height="86.4141" id="ObjectsAdapter" style="stroke: #A80036; stroke-width: 1.5;" width="224" x="321" y="167"/><ellipse cx="380.25" cy="183" fill="#ADD1B2" rx="11" ry="11" style="stroke: #A80036; stroke-width: 1.0;"/><path d="M383.2188,188.6406 Q382.6406,188.9375 382,189.0781 Q381.3594,189.2344 380.6563,189.2344 Q378.1563,189.2344 376.8281,187.5938 Q375.5156,185.9375 375.5156,182.8125 Q375.5156,179.6875 376.8281,178.0313 Q378.1563,176.375 380.6563,176.375 Q381.3594,176.375 382,176.5313 Q382.6563,176.6875 383.2188,176.9844 L383.2188,179.7031 Q382.5938,179.125 382,178.8594 Q381.4063,178.5781 380.7813,178.5781 Q379.4375,178.5781 378.75,179.6563 Q378.0625,180.7188 378.0625,182.8125 Q378.0625,184.9063 378.75,185.9844 Q379.4375,187.0469 380.7813,187.0469 Q381.4063,187.0469 382,186.7813 Q382.5938,186.5 383.2188,185.9219 L383.2188,188.6406 Z "/><text fill="#000000" font-family="sans-serif" font-size="12" lengthAdjust="spacingAndGlyphs" textLength="97" x="400.75" y="187.1543">ObjectsAdapter</text><line style="stroke: #A80036; stroke-width: 1.5;" x1="322" x2="544" y1="199" y2="199"/><line style="stroke: #A80036; stroke-width: 1.5;" x1="322" x2="544" y1="207" y2="207"/><ellipse cx="332" cy="218" fill="#84BE84" rx="3" ry="3" style="stroke: #038048; stroke-width: 1.0;"/><text fill="#000000" font-family="sans-serif" font-size="11" lengthAdjust="spacingAndGlyphs" textLength="198" x="341" y="221.2104">onCreateViewHolder() : ViewHolder</text><ellipse cx="332" cy="230.8047" fill="#84BE84" rx="3" ry="3" style="stroke: #038048; stroke-width: 1.0;"/><text fill="#000000" font-family="sans-serif" font-size="11" lengthAdjust="spacingAndGlyphs" textLength="145" x="341" y="234.0151">onBindViewHolder() : void</text><ellipse cx="332" cy="243.6094" fill="#84BE84" rx="3" ry="3" style="stroke: #038048; stroke-width: 1.0;"/><text fill="#000000" font-family="sans-serif" font-size="11" lengthAdjust="spacingAndGlyphs" textLength="110" x="341" y="246.8198">getItemCount() : int</text><!--MD5=[f38a85e47f7d4f812523dd9b6d7d2c16]
class Adapter--><rect fill="#FEFECE" filter="url(#fsbnyzzotuu4g)" height="48" id="Adapter" style="stroke: #A80036; stroke-width: 1.5;" width="82" x="392" y="59"/><ellipse cx="407" cy="75" fill="#ADD1B2" rx="11" ry="11" style="stroke: #A80036; stroke-width: 1.0;"/><path d="M409.9688,80.6406 Q409.3906,80.9375 408.75,81.0781 Q408.1094,81.2344 407.4063,81.2344 Q404.9063,81.2344 403.5781,79.5938 Q402.2656,77.9375 402.2656,74.8125 Q402.2656,71.6875 403.5781,70.0313 Q404.9063,68.375 407.4063,68.375 Q408.1094,68.375 408.75,68.5313 Q409.4063,68.6875 409.9688,68.9844 L409.9688,71.7031 Q409.3438,71.125 408.75,70.8594 Q408.1563,70.5781 407.5313,70.5781 Q406.1875,70.5781 405.5,71.6563 Q404.8125,72.7188 404.8125,74.8125 Q404.8125,76.9063 405.5,77.9844 Q406.1875,79.0469 407.5313,79.0469 Q408.1563,79.0469 408.75,78.7813 Q409.3438,78.5 409.9688,77.9219 L409.9688,80.6406 Z "/><text fill="#000000" font-family="sans-serif" font-size="12" lengthAdjust="spacingAndGlyphs" textLength="50" x="421" y="79.1543">Adapter</text><line style="stroke: #A80036; stroke-width: 1.5;" x1="393" x2="473" y1="91" y2="91"/><line style="stroke: #A80036; stroke-width: 1.5;" x1="393" x2="473" y1="99" y2="99"/><!--MD5=[eeba1c606e366cf2a25ba48aa0d5ee54]
class ObjectsFragment--><rect fill="#FEFECE" filter="url(#fsbnyzzotuu4g)" height="86.4141" id="ObjectsFragment" style="stroke: #A80036; stroke-width: 1.5;" width="248" x="38" y="167"/><ellipse cx="104.25" cy="183" fill="#ADD1B2" rx="11" ry="11" style="stroke: #A80036; stroke-width: 1.0;"/><path d="M107.2188,188.6406 Q106.6406,188.9375 106,189.0781 Q105.3594,189.2344 104.6563,189.2344 Q102.1563,189.2344 100.8281,187.5938 Q99.5156,185.9375 99.5156,182.8125 Q99.5156,179.6875 100.8281,178.0313 Q102.1563,176.375 104.6563,176.375 Q105.3594,176.375 106,176.5313 Q106.6563,176.6875 107.2188,176.9844 L107.2188,179.7031 Q106.5938,179.125 106,178.8594 Q105.4063,178.5781 104.7813,178.5781 Q103.4375,178.5781 102.75,179.6563 Q102.0625,180.7188 102.0625,182.8125 Q102.0625,184.9063 102.75,185.9844 Q103.4375,187.0469 104.7813,187.0469 Q105.4063,187.0469 106,186.7813 Q106.5938,186.5 107.2188,185.9219 L107.2188,188.6406 Z "/><text fill="#000000" font-family="sans-serif" font-size="12" lengthAdjust="spacingAndGlyphs" textLength="107" x="124.75" y="187.1543">ObjectsFragment</text><line style="stroke: #A80036; stroke-width: 1.5;" x1="39" x2="285" y1="199" y2="199"/><ellipse cx="49" cy="210" fill="none" rx="3" ry="3" style="stroke: #038048; stroke-width: 1.0;"/><text fill="#000000" font-family="sans-serif" font-size="11" lengthAdjust="spacingAndGlyphs" textLength="78" x="58" y="213.2104">name : String</text><ellipse cx="49" cy="222.8047" fill="none" rx="3" ry="3" style="stroke: #038048; stroke-width: 1.0;"/><text fill="#000000" font-family="sans-serif" font-size="11" lengthAdjust="spacingAndGlyphs" textLength="88" x="58" y="226.0151">frame : String[]</text><ellipse cx="49" cy="235.6094" fill="none" rx="3" ry="3" style="stroke: #038048; stroke-width: 1.0;"/><text fill="#000000" font-family="sans-serif" font-size="11" lengthAdjust="spacingAndGlyphs" textLength="222" x="58" y="238.8198">foldingStateObject : FoldingStateObject</text><line style="stroke: #A80036; stroke-width: 1.5;" x1="39" x2="285" y1="245.4141" y2="245.4141"/><!--MD5=[499a93d1a2128e7b640a788d1f7209bf]
class Fragment--><rect fill="#FEFECE" filter="url(#fsbnyzzotuu4g)" height="48" id="Fragment" style="stroke: #A80036; stroke-width: 1.5;" width="92" x="116" y="59"/><ellipse cx="131" cy="75" fill="#ADD1B2" rx="11" ry="11" style="stroke: #A80036; stroke-width: 1.0;"/><path d="M133.9688,80.6406 Q133.3906,80.9375 132.75,81.0781 Q132.1094,81.2344 131.4063,81.2344 Q128.9063,81.2344 127.5781,79.5938 Q126.2656,77.9375 126.2656,74.8125 Q126.2656,71.6875 127.5781,70.0313 Q128.9063,68.375 131.4063,68.375 Q132.1094,68.375 132.75,68.5313 Q133.4063,68.6875 133.9688,68.9844 L133.9688,71.7031 Q133.3438,71.125 132.75,70.8594 Q132.1563,70.5781 131.5313,70.5781 Q130.1875,70.5781 129.5,71.6563 Q128.8125,72.7188 128.8125,74.8125 Q128.8125,76.9063 129.5,77.9844 Q130.1875,79.0469 131.5313,79.0469 Q132.1563,79.0469 132.75,78.7813 Q133.3438,78.5 133.9688,77.9219 L133.9688,80.6406 Z "/><text fill="#000000" font-family="sans-serif" font-size="12" lengthAdjust="spacingAndGlyphs" textLength="60" x="145" y="79.1543">Fragment</text><line style="stroke: #A80036; stroke-width: 1.5;" x1="117" x2="207" y1="91" y2="91"/><line style="stroke: #A80036; stroke-width: 1.5;" x1="117" x2="207" y1="99" y2="99"/><!--MD5=[036ce44a7e490c8d46ff14649885245b]
reverse link Adapter to ObjectsAdapter--><path d="M433,127.27 C433,140.12 433,154.17 433,166.94 " fill="none" id="Adapter&lt;-ObjectsAdapter" style="stroke: #A80036; stroke-width: 1.0;"/><polygon fill="none" points="426,127.22,433,107.22,440,127.22,426,127.22" style="stroke: #A80036; stroke-width: 1.0;"/><!--MD5=[2fd58e7a0a0d6e31ed77d6a1ff66cdb3]
reverse link Fragment to ObjectsFragment--><path d="M162,127.27 C162,140.12 162,154.17 162,166.94 " fill="none" id="Fragment&lt;-ObjectsFragment" style="stroke: #A80036; stroke-width: 1.0;"/><polygon fill="none" points="155,127.22,162,107.22,169,127.22,155,127.22" style="stroke: #A80036; stroke-width: 1.0;"/><!--MD5=[bced3ed5bf4895b81bc5b2f73bfa2da4]
@startuml
    package Objects {
        class ObjectsAdapter extends Adapter{
            +onCreateViewHolder() : ViewHolder
            +onBindViewHolder() : void
            +getItemCount() : int
        }
                    
        class ObjectsFragment extends Fragment {
            + name : String
            + frame : String[]
            + foldingStateObject : FoldingStateObject
        }
    }	
@enduml

PlantUML version 1.2020.02(Sun Mar 01 11:22:07 CET 2020)
(GPL source distribution)
Java Runtime: OpenJDK Runtime Environment
JVM: OpenJDK 64-Bit Server VM
Java Version: 11.0.19+7-post-Ubuntu-0ubuntu122.04.1
Operating System: Linux
Default Encoding: UTF-8
Language: fr
Country: FR
--></g></svg>