<?xml version="1.0" encoding="UTF-8" standalone="no"?><svg xmlns="http://www.w3.org/2000/svg" xmlns:xlink="http://www.w3.org/1999/xlink" contentScriptType="application/ecmascript" contentStyleType="text/css" height="239px" preserveAspectRatio="none" style="width:469px;height:239px;" version="1.1" viewBox="0 0 469 239" width="469px" zoomAndPan="magnify"><defs><filter height="300%" id="f1qkoxsm1sktpq" width="300%" x="-1" y="-1"><feGaussianBlur result="blurOut" stdDeviation="2.0"/><feColorMatrix in="blurOut" result="blurOut2" type="matrix" values="0 0 0 0 0 0 0 0 0 0 0 0 0 0 0 0 0 0 .4 0"/><feOffset dx="4.0" dy="4.0" in="blurOut2" result="blurOut3"/><feBlend in="SourceGraphic" in2="blurOut3" mode="normal"/></filter></defs><g><!--MD5=[99679ccb8a39986f3eac1913fd232647]
class BasketAdapter--><rect fill="#FEFECE" filter="url(#f1qkoxsm1sktpq)" height="112.0234" id="BasketAdapter" style="stroke: #A80036; stroke-width: 1.5;" width="452" x="6" y="116"/><ellipse cx="181.25" cy="132" fill="#ADD1B2" rx="11" ry="11" style="stroke: #A80036; stroke-width: 1.0;"/><path d="M184.2188,137.6406 Q183.6406,137.9375 183,138.0781 Q182.3594,138.2344 181.6563,138.2344 Q179.1563,138.2344 177.8281,136.5938 Q176.5156,134.9375 176.5156,131.8125 Q176.5156,128.6875 177.8281,127.0313 Q179.1563,125.375 181.6563,125.375 Q182.3594,125.375 183,125.5313 Q183.6563,125.6875 184.2188,125.9844 L184.2188,128.7031 Q183.5938,128.125 183,127.8594 Q182.4063,127.5781 181.7813,127.5781 Q180.4375,127.5781 179.75,128.6563 Q179.0625,129.7188 179.0625,131.8125 Q179.0625,133.9063 179.75,134.9844 Q180.4375,136.0469 181.7813,136.0469 Q182.4063,136.0469 183,135.7813 Q183.5938,135.5 184.2188,134.9219 L184.2188,137.6406 Z "/><text fill="#000000" font-family="sans-serif" font-size="12" lengthAdjust="spacingAndGlyphs" textLength="93" x="201.75" y="136.1543">BasketAdapter</text><line style="stroke: #A80036; stroke-width: 1.5;" x1="7" x2="457" y1="148" y2="148"/><line style="stroke: #A80036; stroke-width: 1.5;" x1="7" x2="457" y1="156" y2="156"/><ellipse cx="17" cy="167" fill="#84BE84" rx="3" ry="3" style="stroke: #038048; stroke-width: 1.0;"/><text fill="#000000" font-family="sans-serif" font-size="11" lengthAdjust="spacingAndGlyphs" textLength="323" x="26" y="170.2104">onBindViewHolder (ViewHolder holder, int position) : void</text><ellipse cx="17" cy="179.8047" fill="#84BE84" rx="3" ry="3" style="stroke: #038048; stroke-width: 1.0;"/><text fill="#000000" font-family="sans-serif" font-size="11" lengthAdjust="spacingAndGlyphs" textLength="110" x="26" y="183.0151">getItemCount() : int</text><ellipse cx="17" cy="192.6094" fill="#84BE84" rx="3" ry="3" style="stroke: #038048; stroke-width: 1.0;"/><text fill="#000000" font-family="sans-serif" font-size="11" lengthAdjust="spacingAndGlyphs" textLength="426" x="26" y="195.8198">bindListViewData(RecyclerView recyclerView, ArrayList&lt;String&gt; data) : void</text><ellipse cx="17" cy="205.4141" fill="#84BE84" rx="3" ry="3" style="stroke: #038048; stroke-width: 1.0;"/><text fill="#000000" font-family="sans-serif" font-size="11" lengthAdjust="spacingAndGlyphs" textLength="242" x="26" y="208.6245">setData(ArrayList&lt;String&gt; newData) : void</text><ellipse cx="17" cy="218.2188" fill="#84BE84" rx="3" ry="3" style="stroke: #038048; stroke-width: 1.0;"/><text fill="#000000" font-family="sans-serif" font-size="11" lengthAdjust="spacingAndGlyphs" textLength="110" x="26" y="221.4292">ViewHolder () : void</text><!--MD5=[f38a85e47f7d4f812523dd9b6d7d2c16]
class Adapter--><rect fill="#FEFECE" filter="url(#f1qkoxsm1sktpq)" height="48" id="Adapter" style="stroke: #A80036; stroke-width: 1.5;" width="82" x="191" y="8"/><ellipse cx="206" cy="24" fill="#ADD1B2" rx="11" ry="11" style="stroke: #A80036; stroke-width: 1.0;"/><path d="M208.9688,29.6406 Q208.3906,29.9375 207.75,30.0781 Q207.1094,30.2344 206.4063,30.2344 Q203.9063,30.2344 202.5781,28.5938 Q201.2656,26.9375 201.2656,23.8125 Q201.2656,20.6875 202.5781,19.0313 Q203.9063,17.375 206.4063,17.375 Q207.1094,17.375 207.75,17.5313 Q208.4063,17.6875 208.9688,17.9844 L208.9688,20.7031 Q208.3438,20.125 207.75,19.8594 Q207.1563,19.5781 206.5313,19.5781 Q205.1875,19.5781 204.5,20.6563 Q203.8125,21.7188 203.8125,23.8125 Q203.8125,25.9063 204.5,26.9844 Q205.1875,28.0469 206.5313,28.0469 Q207.1563,28.0469 207.75,27.7813 Q208.3438,27.5 208.9688,26.9219 L208.9688,29.6406 Z "/><text fill="#000000" font-family="sans-serif" font-size="12" lengthAdjust="spacingAndGlyphs" textLength="50" x="220" y="28.1543">Adapter</text><line style="stroke: #A80036; stroke-width: 1.5;" x1="192" x2="272" y1="40" y2="40"/><line style="stroke: #A80036; stroke-width: 1.5;" x1="192" x2="272" y1="48" y2="48"/><!--MD5=[2cc3e502c8d3edfdefa67431cf7544f2]
reverse link Adapter to BasketAdapter--><path d="M232,76.25 C232,88.82 232,102.73 232,115.93 " fill="none" id="Adapter&lt;-BasketAdapter" style="stroke: #A80036; stroke-width: 1.0;"/><polygon fill="none" points="225,76.1,232,56.1,239,76.1,225,76.1" style="stroke: #A80036; stroke-width: 1.0;"/><!--MD5=[bd9f30d45b41e7bd5c2e35d9b1b71635]
@startuml
    class BasketAdapter extends Adapter{
        +onBindViewHolder (ViewHolder holder, int position) : void
        +getItemCount() : int
        +bindListViewData(RecyclerView recyclerView, ArrayList<String> data) : void
        +setData(ArrayList<String> newData) : void
        +ViewHolder () : void
    }


@enduml

PlantUML version 1.2020.02(Sun Mar 01 11:22:07 CET 2020)
(GPL source distribution)
Java Runtime: OpenJDK Runtime Environment
JVM: OpenJDK 64-Bit Server VM
Java Version: 11.0.19+7-post-Ubuntu-0ubuntu122.04.1
Operating System: Linux
Default Encoding: UTF-8
Language: fr
Country: FR
--></g></svg>