<?xml version="1.0" encoding="UTF-8" standalone="no"?><svg xmlns="http://www.w3.org/2000/svg" xmlns:xlink="http://www.w3.org/1999/xlink" contentScriptType="application/ecmascript" contentStyleType="text/css" height="84px" preserveAspectRatio="none" style="width:218px;height:84px;" version="1.1" viewBox="0 0 218 84" width="218px" zoomAndPan="magnify"><defs><filter height="300%" id="f1m8bfsp6xm6vc" width="300%" x="-1" y="-1"><feGaussianBlur result="blurOut" stdDeviation="2.0"/><feColorMatrix in="blurOut" result="blurOut2" type="matrix" values="0 0 0 0 0 0 0 0 0 0 0 0 0 0 0 0 0 0 .4 0"/><feOffset dx="4.0" dy="4.0" in="blurOut2" result="blurOut3"/><feBlend in="SourceGraphic" in2="blurOut3" mode="normal"/></filter></defs><g><!--MD5=[9b95352b2669b688d6ed22ae7d6882ad]
class LED--><rect fill="#FEFECE" filter="url(#f1m8bfsp6xm6vc)" height="66.7422" id="LED" style="stroke: #A80036; stroke-width: 1.5;" width="200" x="7" y="7"/><ellipse cx="67.75" cy="25.9688" fill="#ADD1B2" rx="11" ry="11" style="stroke: #A80036; stroke-width: 1.0;"/><path d="M70.7188,31.6094 Q70.1406,31.9063 69.5,32.0469 Q68.8594,32.2031 68.1563,32.2031 Q65.6563,32.2031 64.3281,30.5625 Q63.0156,28.9063 63.0156,25.7813 Q63.0156,22.6563 64.3281,21 Q65.6563,19.3438 68.1563,19.3438 Q68.8594,19.3438 69.5,19.5 Q70.1563,19.6563 70.7188,19.9531 L70.7188,22.6719 Q70.0938,22.0938 69.5,21.8281 Q68.9063,21.5469 68.2813,21.5469 Q66.9375,21.5469 66.25,22.625 Q65.5625,23.6875 65.5625,25.7813 Q65.5625,27.875 66.25,28.9531 Q66.9375,30.0156 68.2813,30.0156 Q68.9063,30.0156 69.5,29.75 Q70.0938,29.4688 70.7188,28.8906 L70.7188,31.6094 Z "/><text fill="#000000" font-family="sans-serif" font-size="12" font-style="italic" lengthAdjust="spacingAndGlyphs" textLength="74" x="86.25" y="23.1387">«boundary»</text><text fill="#000000" font-family="sans-serif" font-size="12" lengthAdjust="spacingAndGlyphs" textLength="23" x="111.75" y="37.1074">LED</text><line style="stroke: #A80036; stroke-width: 1.5;" x1="8" x2="206" y1="44.9375" y2="44.9375"/><line style="stroke: #A80036; stroke-width: 1.5;" x1="8" x2="206" y1="52.9375" y2="52.9375"/><ellipse cx="18" cy="63.9375" fill="#84BE84" rx="3" ry="3" style="stroke: #038048; stroke-width: 1.0;"/><text fill="#000000" font-family="sans-serif" font-size="11" lengthAdjust="spacingAndGlyphs" textLength="174" x="27" y="67.1479">setLED(state : LEDState) : void</text><!--MD5=[8c30612200015b9cd66ca45f52abe991]
@startuml

class LED <<boundary>>{
        + setLED(state : LEDState) : void
}

@enduml

PlantUML version 1.2020.02(Sun Mar 01 11:22:07 CET 2020)
(GPL source distribution)
Java Runtime: OpenJDK Runtime Environment
JVM: OpenJDK 64-Bit Server VM
Java Version: 11.0.19+7-post-Ubuntu-0ubuntu122.04.1
Operating System: Linux
Default Encoding: UTF-8
Language: fr
Country: FR
--></g></svg>