<?xml version="1.0" encoding="UTF-8" standalone="no"?><svg xmlns="http://www.w3.org/2000/svg" xmlns:xlink="http://www.w3.org/1999/xlink" contentScriptType="application/ecmascript" contentStyleType="text/css" height="219px" preserveAspectRatio="none" style="width:392px;height:219px;" version="1.1" viewBox="0 0 392 219" width="392px" zoomAndPan="magnify"><defs><filter height="300%" id="f10gbplkk2o6vs" width="300%" x="-1" y="-1"><feGaussianBlur result="blurOut" stdDeviation="2.0"/><feColorMatrix in="blurOut" result="blurOut2" type="matrix" values="0 0 0 0 0 0 0 0 0 0 0 0 0 0 0 0 0 0 .4 0"/><feOffset dx="4.0" dy="4.0" in="blurOut2" result="blurOut3"/><feBlend in="SourceGraphic" in2="blurOut3" mode="normal"/></filter></defs><g><!--MD5=[b3e73fb1cbb6904de4d99cbb878bea55]
class LogManager--><rect fill="#FEFECE" filter="url(#f10gbplkk2o6vs)" height="201.6563" id="LogManager" style="stroke: #A80036; stroke-width: 1.5;" width="374" x="7" y="7"/><ellipse cx="151.25" cy="23" fill="#ADD1B2" rx="11" ry="11" style="stroke: #A80036; stroke-width: 1.0;"/><path d="M154.2188,28.6406 Q153.6406,28.9375 153,29.0781 Q152.3594,29.2344 151.6563,29.2344 Q149.1563,29.2344 147.8281,27.5938 Q146.5156,25.9375 146.5156,22.8125 Q146.5156,19.6875 147.8281,18.0313 Q149.1563,16.375 151.6563,16.375 Q152.3594,16.375 153,16.5313 Q153.6563,16.6875 154.2188,16.9844 L154.2188,19.7031 Q153.5938,19.125 153,18.8594 Q152.4063,18.5781 151.7813,18.5781 Q150.4375,18.5781 149.75,19.6563 Q149.0625,20.7188 149.0625,22.8125 Q149.0625,24.9063 149.75,25.9844 Q150.4375,27.0469 151.7813,27.0469 Q152.4063,27.0469 153,26.7813 Q153.5938,26.5 154.2188,25.9219 L154.2188,28.6406 Z "/><text fill="#000000" font-family="sans-serif" font-size="12" lengthAdjust="spacingAndGlyphs" textLength="77" x="171.75" y="27.1543">LogManager</text><line style="stroke: #A80036; stroke-width: 1.5;" x1="8" x2="380" y1="39" y2="39"/><line style="stroke: #A80036; stroke-width: 1.5;" x1="8" x2="380" y1="47" y2="47"/><ellipse cx="18" cy="58" fill="#84BE84" rx="3" ry="3" style="stroke: #038048; stroke-width: 1.0;"/><text fill="#000000" font-family="sans-serif" font-size="11" lengthAdjust="spacingAndGlyphs" textLength="184" x="27" y="61.2104">getFrames(frame : String) : void</text><ellipse cx="18" cy="70.8047" fill="#84BE84" rx="3" ry="3" style="stroke: #038048; stroke-width: 1.0;"/><text fill="#000000" font-family="sans-serif" font-size="11" lengthAdjust="spacingAndGlyphs" textLength="84" x="27" y="74.0151">clearAll() : void</text><ellipse cx="18" cy="83.6094" fill="#84BE84" rx="3" ry="3" style="stroke: #038048; stroke-width: 1.0;"/><text fill="#000000" font-family="sans-serif" font-size="11" lengthAdjust="spacingAndGlyphs" textLength="70" x="27" y="86.8198">save() : void</text><ellipse cx="18" cy="96.4141" fill="#84BE84" rx="3" ry="3" style="stroke: #038048; stroke-width: 1.0;"/><text fill="#000000" font-family="sans-serif" font-size="11" lengthAdjust="spacingAndGlyphs" textLength="243" x="27" y="99.6245">getInstance(context: Context): LogManager</text><ellipse cx="18" cy="109.2188" fill="#84BE84" rx="3" ry="3" style="stroke: #038048; stroke-width: 1.0;"/><text fill="#000000" font-family="sans-serif" font-size="11" lengthAdjust="spacingAndGlyphs" textLength="156" x="27" y="112.4292">getThesaurus(): Thesaurus</text><ellipse cx="18" cy="122.0234" fill="#84BE84" rx="3" ry="3" style="stroke: #038048; stroke-width: 1.0;"/><text fill="#000000" font-family="sans-serif" font-size="11" lengthAdjust="spacingAndGlyphs" textLength="202" x="27" y="125.2339">dicoFrameSent(frame: Frame): void</text><ellipse cx="18" cy="134.8281" fill="#84BE84" rx="3" ry="3" style="stroke: #038048; stroke-width: 1.0;"/><text fill="#000000" font-family="sans-serif" font-size="11" lengthAdjust="spacingAndGlyphs" textLength="348" x="27" y="138.0386">setLoggerviewModel(viewModel: LogManagerViewModel): void</text><ellipse cx="18" cy="147.6328" fill="#84BE84" rx="3" ry="3" style="stroke: #038048; stroke-width: 1.0;"/><text fill="#000000" font-family="sans-serif" font-size="11" lengthAdjust="spacingAndGlyphs" textLength="151" x="27" y="150.8433">log(message: String): void</text><ellipse cx="18" cy="160.4375" fill="#84BE84" rx="3" ry="3" style="stroke: #038048; stroke-width: 1.0;"/><text fill="#000000" font-family="sans-serif" font-size="11" lengthAdjust="spacingAndGlyphs" textLength="96" x="27" y="163.6479">getTime(): String</text><rect fill="#F24D5C" height="6" style="stroke: #C82930; stroke-width: 1.0;" width="6" x="15" y="170.2422"/><text fill="#000000" font-family="sans-serif" font-size="11" lengthAdjust="spacingAndGlyphs" textLength="197" x="27" y="176.4526">setFrames(frame: Frame): String[]</text><rect fill="#F24D5C" height="6" style="stroke: #C82930; stroke-width: 1.0;" width="6" x="15" y="183.0469"/><text fill="#000000" font-family="sans-serif" font-size="11" lengthAdjust="spacingAndGlyphs" textLength="120" x="27" y="189.2573">updateTable(): String</text><rect fill="#F24D5C" height="6" style="stroke: #C82930; stroke-width: 1.0;" width="6" x="15" y="195.8516"/><text fill="#000000" font-family="sans-serif" font-size="11" lengthAdjust="spacingAndGlyphs" textLength="277" x="27" y="202.062">StringTableToString(stringTable: String[]): String</text><!--MD5=[740fe4a2d765377879f0d137bdb87561]
@startuml

class LogManager {
    + getFrames(frame : String) : void
    + clearAll() : void
    + save() : void
    + getInstance(context: Context): LogManager
    + getThesaurus(): Thesaurus
    + dicoFrameSent(frame: Frame): void
    + setLoggerviewModel(viewModel: LogManagerViewModel): void
    + log(message: String): void
    + getTime(): String
    - setFrames(frame: Frame): String[]
    - updateTable(): String
    - StringTableToString(stringTable: String[]): String
}

@enduml

PlantUML version 1.2020.02(Sun Mar 01 11:22:07 CET 2020)
(GPL source distribution)
Java Runtime: OpenJDK Runtime Environment
JVM: OpenJDK 64-Bit Server VM
Java Version: 11.0.19+7-post-Ubuntu-0ubuntu122.04.1
Operating System: Linux
Default Encoding: UTF-8
Language: fr
Country: FR
--></g></svg>