<?xml version="1.0" encoding="UTF-8" standalone="no"?><svg xmlns="http://www.w3.org/2000/svg" xmlns:xlink="http://www.w3.org/1999/xlink" contentScriptType="application/ecmascript" contentStyleType="text/css" height="104px" preserveAspectRatio="none" style="width:299px;height:104px;" version="1.1" viewBox="0 0 299 104" width="299px" zoomAndPan="magnify"><defs><filter height="300%" id="f1euy5mf2ega34" width="300%" x="-1" y="-1"><feGaussianBlur result="blurOut" stdDeviation="2.0"/><feColorMatrix in="blurOut" result="blurOut2" type="matrix" values="0 0 0 0 0 0 0 0 0 0 0 0 0 0 0 0 0 0 .4 0"/><feOffset dx="4.0" dy="4.0" in="blurOut2" result="blurOut3"/><feBlend in="SourceGraphic" in2="blurOut3" mode="normal"/></filter></defs><g><!--MD5=[cdc9858932958e0abfa4ba52c2ea5764]
class ConnectionCANdroid--><rect fill="#FEFECE" filter="url(#f1euy5mf2ega34)" height="86.4141" id="ConnectionCANdroid" style="stroke: #A80036; stroke-width: 1.5;" width="281" x="7" y="7"/><ellipse cx="79.25" cy="23" fill="#ADD1B2" rx="11" ry="11" style="stroke: #A80036; stroke-width: 1.0;"/><path d="M82.2188,28.6406 Q81.6406,28.9375 81,29.0781 Q80.3594,29.2344 79.6563,29.2344 Q77.1563,29.2344 75.8281,27.5938 Q74.5156,25.9375 74.5156,22.8125 Q74.5156,19.6875 75.8281,18.0313 Q77.1563,16.375 79.6563,16.375 Q80.3594,16.375 81,16.5313 Q81.6563,16.6875 82.2188,16.9844 L82.2188,19.7031 Q81.5938,19.125 81,18.8594 Q80.4063,18.5781 79.7813,18.5781 Q78.4375,18.5781 77.75,19.6563 Q77.0625,20.7188 77.0625,22.8125 Q77.0625,24.9063 77.75,25.9844 Q78.4375,27.0469 79.7813,27.0469 Q80.4063,27.0469 81,26.7813 Q81.5938,26.5 82.2188,25.9219 L82.2188,28.6406 Z "/><text fill="#000000" font-family="sans-serif" font-size="12" lengthAdjust="spacingAndGlyphs" textLength="128" x="99.75" y="27.1543">ConnectionCANdroid</text><line style="stroke: #A80036; stroke-width: 1.5;" x1="8" x2="287" y1="39" y2="39"/><line style="stroke: #A80036; stroke-width: 1.5;" x1="8" x2="287" y1="47" y2="47"/><ellipse cx="18" cy="58" fill="#84BE84" rx="3" ry="3" style="stroke: #038048; stroke-width: 1.0;"/><text fill="#000000" font-family="sans-serif" font-size="11" lengthAdjust="spacingAndGlyphs" textLength="255" x="27" y="61.2104">«thread» connect(ip : String, port : int) : void</text><ellipse cx="18" cy="70.8047" fill="#84BE84" rx="3" ry="3" style="stroke: #038048; stroke-width: 1.0;"/><text fill="#000000" font-family="sans-serif" font-size="11" lengthAdjust="spacingAndGlyphs" textLength="225" x="27" y="74.0151">«thread» write(message : String) : void</text><ellipse cx="18" cy="83.6094" fill="#84BE84" rx="3" ry="3" style="stroke: #038048; stroke-width: 1.0;"/><text fill="#000000" font-family="sans-serif" font-size="11" lengthAdjust="spacingAndGlyphs" textLength="80" x="27" y="86.8198">read() : String</text><!--MD5=[5753d3fac1ef5b6dd13b3662762a4c28]
@startuml

class ConnectionCANdroid 
{
+ <<thread>> connect(ip : String, port : int) : void
+ <<thread>> write(message : String) : void
+ read() : String
}

@enduml

PlantUML version 1.2020.02(Sun Mar 01 11:22:07 CET 2020)
(GPL source distribution)
Java Runtime: OpenJDK Runtime Environment
JVM: OpenJDK 64-Bit Server VM
Java Version: 11.0.19+7-post-Ubuntu-0ubuntu122.04.1
Operating System: Linux
Default Encoding: UTF-8
Language: fr
Country: FR
--></g></svg>