<?xml version="1.0" encoding="UTF-8" standalone="no"?><svg xmlns="http://www.w3.org/2000/svg" xmlns:xlink="http://www.w3.org/1999/xlink" contentScriptType="application/ecmascript" contentStyleType="text/css" height="965px" preserveAspectRatio="none" style="width:772px;height:965px;" version="1.1" viewBox="0 0 772 965" width="772px" zoomAndPan="magnify"><defs><filter height="300%" id="f294l5qs77dpq" width="300%" x="-1" y="-1"><feGaussianBlur result="blurOut" stdDeviation="2.0"/><feColorMatrix in="blurOut" result="blurOut2" type="matrix" values="0 0 0 0 0 0 0 0 0 0 0 0 0 0 0 0 0 0 .4 0"/><feOffset dx="4.0" dy="4.0" in="blurOut2" result="blurOut3"/><feBlend in="SourceGraphic" in2="blurOut3" mode="normal"/></filter></defs><g><!--MD5=[e70e097114b6d9eed4366bd45b5874e8]
cluster Dealer--><polygon fill="#FFFFFF" filter="url(#f294l5qs77dpq)" points="22,24,79,24,86,46.2969,750,46.2969,750,886,22,886,22,24" style="stroke: #000000; stroke-width: 1.5;"/><line style="stroke: #000000; stroke-width: 1.5;" x1="22" x2="86" y1="46.2969" y2="46.2969"/><text fill="#000000" font-family="sans-serif" font-size="14" font-weight="bold" lengthAdjust="spacingAndGlyphs" textLength="51" x="26" y="38.9951">Dealer</text><!--MD5=[b9fd66fe618c249086ea58728915e599]
cluster Datas--><polygon fill="#FFFFFF" filter="url(#f294l5qs77dpq)" points="46,67,96,67,103,89.2969,726,89.2969,726,862,46,862,46,67" style="stroke: #000000; stroke-width: 1.5;"/><line style="stroke: #000000; stroke-width: 1.5;" x1="46" x2="103" y1="89.2969" y2="89.2969"/><text fill="#000000" font-family="sans-serif" font-size="14" font-weight="bold" lengthAdjust="spacingAndGlyphs" textLength="44" x="50" y="81.9951">Datas</text><!--MD5=[aa7f586532e18719e6cefa70fc650583]
class Object--><rect fill="#FEFECE" filter="url(#f294l5qs77dpq)" height="73.6094" id="Object" style="stroke: #A80036; stroke-width: 1.5;" width="103" x="334.5" y="300"/><ellipse cx="363.45" cy="316" fill="#ADD1B2" rx="11" ry="11" style="stroke: #A80036; stroke-width: 1.0;"/><path d="M366.4188,321.6406 Q365.8406,321.9375 365.2,322.0781 Q364.5594,322.2344 363.8563,322.2344 Q361.3563,322.2344 360.0281,320.5938 Q358.7156,318.9375 358.7156,315.8125 Q358.7156,312.6875 360.0281,311.0313 Q361.3563,309.375 363.8563,309.375 Q364.5594,309.375 365.2,309.5313 Q365.8563,309.6875 366.4188,309.9844 L366.4188,312.7031 Q365.7938,312.125 365.2,311.8594 Q364.6063,311.5781 363.9813,311.5781 Q362.6375,311.5781 361.95,312.6563 Q361.2625,313.7188 361.2625,315.8125 Q361.2625,317.9063 361.95,318.9844 Q362.6375,320.0469 363.9813,320.0469 Q364.6063,320.0469 365.2,319.7813 Q365.7938,319.5 366.4188,318.9219 L366.4188,321.6406 Z "/><text fill="#000000" font-family="sans-serif" font-size="12" lengthAdjust="spacingAndGlyphs" textLength="40" x="380.55" y="320.1543">Object</text><line style="stroke: #A80036; stroke-width: 1.5;" x1="335.5" x2="436.5" y1="332" y2="332"/><text fill="#000000" font-family="sans-serif" font-size="11" lengthAdjust="spacingAndGlyphs" textLength="49" x="340.5" y="346.2104">a_id : int</text><text fill="#000000" font-family="sans-serif" font-size="11" lengthAdjust="spacingAndGlyphs" textLength="91" x="340.5" y="359.0151">a_name : String</text><line style="stroke: #A80036; stroke-width: 1.5;" x1="335.5" x2="436.5" y1="365.6094" y2="365.6094"/><!--MD5=[678ba86161b65c93147b2a3a8cf02be2]
class Frame--><rect fill="#FEFECE" filter="url(#f294l5qs77dpq)" height="137.6328" id="Frame" style="stroke: #A80036; stroke-width: 1.5;" width="218" x="277" y="102"/><ellipse cx="362.25" cy="118" fill="#ADD1B2" rx="11" ry="11" style="stroke: #A80036; stroke-width: 1.0;"/><path d="M365.2188,123.6406 Q364.6406,123.9375 364,124.0781 Q363.3594,124.2344 362.6563,124.2344 Q360.1563,124.2344 358.8281,122.5938 Q357.5156,120.9375 357.5156,117.8125 Q357.5156,114.6875 358.8281,113.0313 Q360.1563,111.375 362.6563,111.375 Q363.3594,111.375 364,111.5313 Q364.6563,111.6875 365.2188,111.9844 L365.2188,114.7031 Q364.5938,114.125 364,113.8594 Q363.4063,113.5781 362.7813,113.5781 Q361.4375,113.5781 360.75,114.6563 Q360.0625,115.7188 360.0625,117.8125 Q360.0625,119.9063 360.75,120.9844 Q361.4375,122.0469 362.7813,122.0469 Q363.4063,122.0469 364,121.7813 Q364.5938,121.5 365.2188,120.9219 L365.2188,123.6406 Z "/><text fill="#000000" font-family="sans-serif" font-size="12" lengthAdjust="spacingAndGlyphs" textLength="39" x="382.75" y="122.1543">Frame</text><line style="stroke: #A80036; stroke-width: 1.5;" x1="278" x2="494" y1="134" y2="134"/><text fill="#000000" font-family="sans-serif" font-size="11" lengthAdjust="spacingAndGlyphs" textLength="49" x="283" y="148.2104">a_id : int</text><text fill="#000000" font-family="sans-serif" font-size="11" lengthAdjust="spacingAndGlyphs" textLength="85" x="283" y="161.0151">a_idFrame : int</text><text fill="#000000" font-family="sans-serif" font-size="11" lengthAdjust="spacingAndGlyphs" textLength="61" x="283" y="173.8198">a_size : int</text><text fill="#000000" font-family="sans-serif" font-size="11" lengthAdjust="spacingAndGlyphs" textLength="84" x="283" y="186.6245">a_data : String</text><text fill="#000000" font-family="sans-serif" font-size="11" lengthAdjust="spacingAndGlyphs" textLength="97" x="283" y="199.4292">a_periodicity : int</text><text fill="#000000" font-family="sans-serif" font-size="11" lengthAdjust="spacingAndGlyphs" textLength="83" x="283" y="212.2339">a_objectId : int</text><line style="stroke: #A80036; stroke-width: 1.5;" x1="278" x2="494" y1="218.8281" y2="218.8281"/><ellipse cx="288" cy="229.8281" fill="#84BE84" rx="3" ry="3" style="stroke: #038048; stroke-width: 1.0;"/><text fill="#000000" font-family="sans-serif" font-size="11" lengthAdjust="spacingAndGlyphs" textLength="192" x="297" y="233.0386">setIdObject(p_idObject : int) : void</text><!--MD5=[384ca5efd7404dfd65476772df22927a]
class DAO--><rect fill="#FEFECE" filter="url(#f294l5qs77dpq)" height="291.2891" id="DAO" style="stroke: #A80036; stroke-width: 1.5;" width="648" x="62" y="434"/><ellipse cx="369.25" cy="450" fill="#B4A7E5" rx="11" ry="11" style="stroke: #A80036; stroke-width: 1.0;"/><path d="M365.1719,445.7656 L365.1719,443.6094 L372.5625,443.6094 L372.5625,445.7656 L370.0938,445.7656 L370.0938,453.8438 L372.5625,453.8438 L372.5625,456 L365.1719,456 L365.1719,453.8438 L367.6406,453.8438 L367.6406,445.7656 L365.1719,445.7656 Z "/><text fill="#000000" font-family="sans-serif" font-size="12" font-style="italic" lengthAdjust="spacingAndGlyphs" textLength="25" x="389.75" y="454.1543">DAO</text><line style="stroke: #A80036; stroke-width: 1.5;" x1="63" x2="709" y1="466" y2="466"/><line style="stroke: #A80036; stroke-width: 1.5;" x1="63" x2="709" y1="474" y2="474"/><ellipse cx="73" cy="485" fill="#84BE84" rx="3" ry="3" style="stroke: #038048; stroke-width: 1.0;"/><text fill="#000000" font-family="sans-serif" font-size="11" lengthAdjust="spacingAndGlyphs" textLength="195" x="82" y="488.2104">addObject(p_object : Object) : void</text><ellipse cx="73" cy="497.8047" fill="#84BE84" rx="3" ry="3" style="stroke: #038048; stroke-width: 1.0;"/><text fill="#000000" font-family="sans-serif" font-size="11" lengthAdjust="spacingAndGlyphs" textLength="220" x="82" y="501.0151">addFrameOnly(p_frame : Frame) : void</text><ellipse cx="73" cy="510.6094" fill="#84BE84" rx="3" ry="3" style="stroke: #038048; stroke-width: 1.0;"/><text fill="#000000" font-family="sans-serif" font-size="11" lengthAdjust="spacingAndGlyphs" textLength="134" x="82" y="513.8198">deleteAllObjects() : void</text><ellipse cx="73" cy="523.4141" fill="#84BE84" rx="3" ry="3" style="stroke: #038048; stroke-width: 1.0;"/><text fill="#000000" font-family="sans-serif" font-size="11" lengthAdjust="spacingAndGlyphs" textLength="134" x="82" y="526.6245">deleteAllFrames() : void</text><ellipse cx="73" cy="536.2188" fill="#84BE84" rx="3" ry="3" style="stroke: #038048; stroke-width: 1.0;"/><text fill="#000000" font-family="sans-serif" font-size="11" lengthAdjust="spacingAndGlyphs" textLength="249" x="82" y="539.4292">deleteSpecificObject(p_name : String) : void</text><ellipse cx="73" cy="549.0234" fill="#84BE84" rx="3" ry="3" style="stroke: #038048; stroke-width: 1.0;"/><text fill="#000000" font-family="sans-serif" font-size="11" lengthAdjust="spacingAndGlyphs" textLength="622" x="82" y="552.2339">deleteSpecificObject(p_idFrame : String, p_size : int, p_data : String, p_periodicity : int, p_idObject : int) : void</text><ellipse cx="73" cy="561.8281" fill="#84BE84" rx="3" ry="3" style="stroke: #038048; stroke-width: 1.0;"/><text fill="#000000" font-family="sans-serif" font-size="11" lengthAdjust="spacingAndGlyphs" textLength="265" x="82" y="565.0386">deleteAllFramesInObject(p_idObject : int) : void</text><ellipse cx="73" cy="574.6328" fill="#84BE84" rx="3" ry="3" style="stroke: #038048; stroke-width: 1.0;"/><text fill="#000000" font-family="sans-serif" font-size="11" lengthAdjust="spacingAndGlyphs" textLength="168" x="82" y="577.8433">getAllObjects() : List&lt;Object&gt;</text><ellipse cx="73" cy="587.4375" fill="#84BE84" rx="3" ry="3" style="stroke: #038048; stroke-width: 1.0;"/><text fill="#000000" font-family="sans-serif" font-size="11" lengthAdjust="spacingAndGlyphs" textLength="219" x="82" y="590.6479">getObjectById(p_idObject : int) : Object</text><ellipse cx="73" cy="600.2422" fill="#84BE84" rx="3" ry="3" style="stroke: #038048; stroke-width: 1.0;"/><text fill="#000000" font-family="sans-serif" font-size="11" lengthAdjust="spacingAndGlyphs" textLength="248" x="82" y="603.4526">getObjectByName(p_name : String) : Object</text><ellipse cx="73" cy="613.0469" fill="#84BE84" rx="3" ry="3" style="stroke: #038048; stroke-width: 1.0;"/><text fill="#000000" font-family="sans-serif" font-size="11" lengthAdjust="spacingAndGlyphs" textLength="320" x="82" y="616.2573">getFramesByIdFrame(p_idFrame : String) : List&lt;Frame&gt;</text><ellipse cx="73" cy="625.8516" fill="#84BE84" rx="3" ry="3" style="stroke: #038048; stroke-width: 1.0;"/><text fill="#000000" font-family="sans-serif" font-size="11" lengthAdjust="spacingAndGlyphs" textLength="253" x="82" y="629.062">getFramesBySize(p_size : int) : List&lt;Frame&gt;</text><ellipse cx="73" cy="638.6563" fill="#84BE84" rx="3" ry="3" style="stroke: #038048; stroke-width: 1.0;"/><text fill="#000000" font-family="sans-serif" font-size="11" lengthAdjust="spacingAndGlyphs" textLength="279" x="82" y="641.8667">getFramesByData(p_data : String) : List&lt;Frame&gt;</text><ellipse cx="73" cy="651.4609" fill="#84BE84" rx="3" ry="3" style="stroke: #038048; stroke-width: 1.0;"/><text fill="#000000" font-family="sans-serif" font-size="11" lengthAdjust="spacingAndGlyphs" textLength="344" x="82" y="654.6714">getFramesByPeriodicity(p_periodicity : String) : List&lt;Frame&gt;</text><ellipse cx="73" cy="664.2656" fill="#84BE84" rx="3" ry="3" style="stroke: #038048; stroke-width: 1.0;"/><text fill="#000000" font-family="sans-serif" font-size="11" lengthAdjust="spacingAndGlyphs" textLength="292" x="82" y="667.4761">getFramesByObjectId(int p_idObject) : List&lt;Frame&gt;</text><ellipse cx="73" cy="677.0703" fill="#84BE84" rx="3" ry="3" style="stroke: #038048; stroke-width: 1.0;"/><text fill="#000000" font-family="sans-serif" font-size="11" lengthAdjust="spacingAndGlyphs" textLength="298" x="82" y="680.2808">addFrame(p_frame : Frame, p_object : Object) : void</text><ellipse cx="73" cy="689.875" fill="#84BE84" rx="3" ry="3" style="stroke: #038048; stroke-width: 1.0;"/><text fill="#000000" font-family="sans-serif" font-size="11" lengthAdjust="spacingAndGlyphs" textLength="91" x="82" y="693.0854">deleteAll() : void</text><ellipse cx="73" cy="702.6797" fill="#84BE84" rx="3" ry="3" style="stroke: #038048; stroke-width: 1.0;"/><text fill="#000000" font-family="sans-serif" font-size="11" lengthAdjust="spacingAndGlyphs" textLength="217" x="82" y="705.8901">removeFrame(p_frame : Object) : void</text><ellipse cx="73" cy="715.4844" fill="#84BE84" rx="3" ry="3" style="stroke: #038048; stroke-width: 1.0;"/><text fill="#000000" font-family="sans-serif" font-size="11" lengthAdjust="spacingAndGlyphs" textLength="217" x="82" y="718.6948">removeObject(p_object : Object) : void</text><!--MD5=[30c7fe53c12f397c5b91742883d410d5]
class BDD--><rect fill="#FEFECE" filter="url(#f294l5qs77dpq)" height="60.8047" id="BDD" style="stroke: #A80036; stroke-width: 1.5;" width="82" x="345" y="785"/><ellipse cx="370.8" cy="801" fill="#A9DCDF" rx="11" ry="11" style="stroke: #A80036; stroke-width: 1.0;"/><path d="M370.9094,796.3438 L369.7531,801.4219 L372.0813,801.4219 L370.9094,796.3438 Z M369.425,794.1094 L372.4094,794.1094 L375.7688,806.5 L373.3156,806.5 L372.55,803.4375 L369.2688,803.4375 L368.5188,806.5 L366.0813,806.5 L369.425,794.1094 Z "/><text fill="#000000" font-family="sans-serif" font-size="12" font-style="italic" lengthAdjust="spacingAndGlyphs" textLength="26" x="387.2" y="805.1543">BDD</text><line style="stroke: #A80036; stroke-width: 1.5;" x1="346" x2="426" y1="817" y2="817"/><text fill="#000000" font-family="sans-serif" font-size="11" lengthAdjust="spacingAndGlyphs" textLength="70" x="351" y="831.2104">a_dao : DAO</text><line style="stroke: #A80036; stroke-width: 1.5;" x1="346" x2="426" y1="837.8047" y2="837.8047"/><!--MD5=[5db00888549904919e3a09c35d77129e]
class MainActivity--><rect fill="#FEFECE" filter="url(#f294l5qs77dpq)" height="48" id="MainActivity" style="stroke: #A80036; stroke-width: 1.5;" width="104" x="334" y="906"/><ellipse cx="349" cy="922" fill="#ADD1B2" rx="11" ry="11" style="stroke: #A80036; stroke-width: 1.0;"/><path d="M351.9688,927.6406 Q351.3906,927.9375 350.75,928.0781 Q350.1094,928.2344 349.4063,928.2344 Q346.9063,928.2344 345.5781,926.5938 Q344.2656,924.9375 344.2656,921.8125 Q344.2656,918.6875 345.5781,917.0313 Q346.9063,915.375 349.4063,915.375 Q350.1094,915.375 350.75,915.5313 Q351.4063,915.6875 351.9688,915.9844 L351.9688,918.7031 Q351.3438,918.125 350.75,917.8594 Q350.1563,917.5781 349.5313,917.5781 Q348.1875,917.5781 347.5,918.6563 Q346.8125,919.7188 346.8125,921.8125 Q346.8125,923.9063 347.5,924.9844 Q348.1875,926.0469 349.5313,926.0469 Q350.1563,926.0469 350.75,925.7813 Q351.3438,925.5 351.9688,924.9219 L351.9688,927.6406 Z "/><text fill="#000000" font-family="sans-serif" font-size="12" lengthAdjust="spacingAndGlyphs" textLength="72" x="363" y="926.1543">MainActivity</text><line style="stroke: #A80036; stroke-width: 1.5;" x1="335" x2="437" y1="938" y2="938"/><line style="stroke: #A80036; stroke-width: 1.5;" x1="335" x2="437" y1="946" y2="946"/><!--MD5=[654b4798cb65c587d01c7442a43d8af2]
link Frame to Object--><path d="M386,240.13 C386,258.63 386,278.1 386,294.63 " fill="none" id="Frame-&gt;Object" style="stroke: #A80036; stroke-width: 1.0;"/><polygon fill="#A80036" points="386,299.66,390,290.66,386,294.66,382,290.66,386,299.66" style="stroke: #A80036; stroke-width: 1.0;"/><!--MD5=[7ab093a72a4f9f120720e3dbf520b618]
link Object to DAO--><path d="M386,374.01 C386,389.35 386,408.37 386,428.58 " fill="none" id="Object-&gt;DAO" style="stroke: #A80036; stroke-width: 1.0;"/><polygon fill="#A80036" points="386,433.74,390,424.74,386,428.74,382,424.74,386,433.74" style="stroke: #A80036; stroke-width: 1.0;"/><!--MD5=[852f4da0b1516678d1fe9c606843f9ec]
link DAO to BDD--><path d="M386,725.03 C386,745.25 386,764.31 386,779.6 " fill="none" id="DAO-&gt;BDD" style="stroke: #A80036; stroke-width: 1.0;"/><polygon fill="#A80036" points="386,784.63,390,775.63,386,779.63,382,775.63,386,784.63" style="stroke: #A80036; stroke-width: 1.0;"/><!--MD5=[de133869d5c1301ca99b209db1aa5376]
link BDD to MainActivity--><path d="M386,846.06 C386,862.93 386,883.98 386,900.65 " fill="none" id="BDD-&gt;MainActivity" style="stroke: #A80036; stroke-width: 1.0;"/><polygon fill="#A80036" points="386,905.67,390,896.67,386,900.67,382,896.67,386,905.67" style="stroke: #A80036; stroke-width: 1.0;"/><!--MD5=[ea1e5d09f6a94a39cf4da63c6b155720]
@startuml


package Dealer{
package Datas { 

class Object
{
a_id : int
a_name : String
}

class Frame 
{
a_id : int
a_idFrame : int
a_size : int
a_data : String
a_periodicity : int
a_objectId : int
+ setIdObject(p_idObject : int) : void
}

interface DAO
{
+ addObject(p_object : Object) : void
+ addFrameOnly(p_frame : Frame) : void
+ deleteAllObjects() : void
+ deleteAllFrames() : void
+ deleteSpecificObject(p_name : String) : void
+ deleteSpecificObject(p_idFrame : String, p_size : int, p_data : String, p_periodicity : int, p_idObject : int) : void
+deleteAllFramesInObject(p_idObject : int) : void
+ getAllObjects() : List<Object>
+ getObjectById(p_idObject : int) : Object
+ getObjectByName(p_name : String) : Object
+ getFramesByIdFrame(p_idFrame : String) : List<Frame>
+ getFramesBySize(p_size : int) : List<Frame>
+ getFramesByData(p_data : String) : List<Frame>
+ getFramesByPeriodicity(p_periodicity : String) : List<Frame>
+ getFramesByObjectId(int p_idObject) : List<Frame>
+ addFrame(p_frame : Frame, p_object : Object) : void
+ deleteAll() : void
+ removeFrame(p_frame : Object) : void
+ removeObject(p_object : Object) : void
}

abstract class BDD
{
a_dao : DAO
}

}
}

Frame - -> Object
Object - -> DAO
DAO - -> BDD
BDD - -> MainActivity
@enduml 

PlantUML version 1.2020.02(Sun Mar 01 11:22:07 CET 2020)
(GPL source distribution)
Java Runtime: OpenJDK Runtime Environment
JVM: OpenJDK 64-Bit Server VM
Java Version: 11.0.19+7-post-Ubuntu-0ubuntu122.04.1
Operating System: Linux
Default Encoding: UTF-8
Language: fr
Country: FR
--></g></svg>