<?xml version="1.0" encoding="UTF-8" standalone="no"?><svg xmlns="http://www.w3.org/2000/svg" xmlns:xlink="http://www.w3.org/1999/xlink" contentScriptType="application/ecmascript" contentStyleType="text/css" height="462px" preserveAspectRatio="none" style="width:904px;height:462px;" version="1.1" viewBox="0 0 904 462" width="904px" zoomAndPan="magnify"><defs><filter height="300%" id="f6ze83b1swnhd" width="300%" x="-1" y="-1"><feGaussianBlur result="blurOut" stdDeviation="2.0"/><feColorMatrix in="blurOut" result="blurOut2" type="matrix" values="0 0 0 0 0 0 0 0 0 0 0 0 0 0 0 0 0 0 .4 0"/><feOffset dx="4.0" dy="4.0" in="blurOut2" result="blurOut3"/><feBlend in="SourceGraphic" in2="blurOut3" mode="normal"/></filter></defs><g><!--MD5=[a7ae611b68ab8f382caa75f7acdd86d2]
cluster Logger--><polygon fill="#FFFFFF" filter="url(#f6ze83b1swnhd)" points="173.5,24,235.5,24,242.5,46.2969,716.5,46.2969,716.5,359,173.5,359,173.5,24" style="stroke: #000000; stroke-width: 1.5;"/><line style="stroke: #000000; stroke-width: 1.5;" x1="173.5" x2="242.5" y1="46.2969" y2="46.2969"/><text fill="#000000" font-family="sans-serif" font-size="14" font-weight="bold" lengthAdjust="spacingAndGlyphs" textLength="56" x="177.5" y="38.9951">Logger</text><!--MD5=[b3e73fb1cbb6904de4d99cbb878bea55]
class LogManager--><rect fill="#FEFECE" filter="url(#f6ze83b1swnhd)" height="124.8281" id="LogManager" style="stroke: #A80036; stroke-width: 1.5;" width="223" x="352" y="218"/><ellipse cx="420.75" cy="234" fill="#ADD1B2" rx="11" ry="11" style="stroke: #A80036; stroke-width: 1.0;"/><path d="M423.7188,239.6406 Q423.1406,239.9375 422.5,240.0781 Q421.8594,240.2344 421.1563,240.2344 Q418.6563,240.2344 417.3281,238.5938 Q416.0156,236.9375 416.0156,233.8125 Q416.0156,230.6875 417.3281,229.0313 Q418.6563,227.375 421.1563,227.375 Q421.8594,227.375 422.5,227.5313 Q423.1563,227.6875 423.7188,227.9844 L423.7188,230.7031 Q423.0938,230.125 422.5,229.8594 Q421.9063,229.5781 421.2813,229.5781 Q419.9375,229.5781 419.25,230.6563 Q418.5625,231.7188 418.5625,233.8125 Q418.5625,235.9063 419.25,236.9844 Q419.9375,238.0469 421.2813,238.0469 Q421.9063,238.0469 422.5,237.7813 Q423.0938,237.5 423.7188,236.9219 L423.7188,239.6406 Z "/><text fill="#000000" font-family="sans-serif" font-size="12" lengthAdjust="spacingAndGlyphs" textLength="77" x="441.25" y="238.1543">LogManager</text><line style="stroke: #A80036; stroke-width: 1.5;" x1="353" x2="574" y1="250" y2="250"/><line style="stroke: #A80036; stroke-width: 1.5;" x1="353" x2="574" y1="258" y2="258"/><ellipse cx="363" cy="269" fill="#84BE84" rx="3" ry="3" style="stroke: #038048; stroke-width: 1.0;"/><text fill="#000000" font-family="sans-serif" font-size="11" lengthAdjust="spacingAndGlyphs" textLength="128" x="372" y="272.2104">dicoFrameSent() : void</text><ellipse cx="363" cy="281.8047" fill="#84BE84" rx="3" ry="3" style="stroke: #038048; stroke-width: 1.0;"/><text fill="#000000" font-family="sans-serif" font-size="11" lengthAdjust="spacingAndGlyphs" textLength="97" x="372" y="285.0151">setFrame() : void</text><ellipse cx="363" cy="294.6094" fill="#84BE84" rx="3" ry="3" style="stroke: #038048; stroke-width: 1.0;"/><text fill="#000000" font-family="sans-serif" font-size="11" lengthAdjust="spacingAndGlyphs" textLength="197" x="372" y="297.8198">getFrames(p_frame : String ): void</text><ellipse cx="363" cy="307.4141" fill="#84BE84" rx="3" ry="3" style="stroke: #038048; stroke-width: 1.0;"/><text fill="#000000" font-family="sans-serif" font-size="11" lengthAdjust="spacingAndGlyphs" textLength="84" x="372" y="310.6245">clearAll() : void</text><ellipse cx="363" cy="320.2188" fill="#84BE84" rx="3" ry="3" style="stroke: #038048; stroke-width: 1.0;"/><text fill="#000000" font-family="sans-serif" font-size="11" lengthAdjust="spacingAndGlyphs" textLength="70" x="372" y="323.4292">save() : void</text><ellipse cx="363" cy="333.0234" fill="#84BE84" rx="3" ry="3" style="stroke: #038048; stroke-width: 1.0;"/><text fill="#000000" font-family="sans-serif" font-size="11" lengthAdjust="spacingAndGlyphs" textLength="170" x="372" y="336.2339">createViewModel(): ViewModel</text><!--MD5=[aa79dc17db96389755dc992d78fcbbe0]
class FilesManager--><rect fill="#FEFECE" filter="url(#f6ze83b1swnhd)" height="99.2188" id="FilesManager" style="stroke: #A80036; stroke-width: 1.5;" width="178" x="522.5" y="59"/><ellipse cx="565.85" cy="75" fill="#ADD1B2" rx="11" ry="11" style="stroke: #A80036; stroke-width: 1.0;"/><path d="M568.8188,80.6406 Q568.2406,80.9375 567.6,81.0781 Q566.9594,81.2344 566.2563,81.2344 Q563.7563,81.2344 562.4281,79.5938 Q561.1156,77.9375 561.1156,74.8125 Q561.1156,71.6875 562.4281,70.0313 Q563.7563,68.375 566.2563,68.375 Q566.9594,68.375 567.6,68.5313 Q568.2563,68.6875 568.8188,68.9844 L568.8188,71.7031 Q568.1938,71.125 567.6,70.8594 Q567.0063,70.5781 566.3813,70.5781 Q565.0375,70.5781 564.35,71.6563 Q563.6625,72.7188 563.6625,74.8125 Q563.6625,76.9063 564.35,77.9844 Q565.0375,79.0469 566.3813,79.0469 Q567.0063,79.0469 567.6,78.7813 Q568.1938,78.5 568.8188,77.9219 L568.8188,80.6406 Z "/><text fill="#000000" font-family="sans-serif" font-size="12" lengthAdjust="spacingAndGlyphs" textLength="83" x="586.15" y="79.1543">FilesManager</text><line style="stroke: #A80036; stroke-width: 1.5;" x1="523.5" x2="699.5" y1="91" y2="91"/><line style="stroke: #A80036; stroke-width: 1.5;" x1="523.5" x2="699.5" y1="99" y2="99"/><ellipse cx="533.5" cy="110" fill="#84BE84" rx="3" ry="3" style="stroke: #038048; stroke-width: 1.0;"/><text fill="#000000" font-family="sans-serif" font-size="11" lengthAdjust="spacingAndGlyphs" textLength="105" x="542.5" y="113.2104">createFiles() : void</text><ellipse cx="533.5" cy="122.8047" fill="#84BE84" rx="3" ry="3" style="stroke: #038048; stroke-width: 1.0;"/><text fill="#000000" font-family="sans-serif" font-size="11" lengthAdjust="spacingAndGlyphs" textLength="113" x="542.5" y="126.0151">writeOnFiles() : void</text><ellipse cx="533.5" cy="135.6094" fill="#84BE84" rx="3" ry="3" style="stroke: #038048; stroke-width: 1.0;"/><text fill="#000000" font-family="sans-serif" font-size="11" lengthAdjust="spacingAndGlyphs" textLength="146" x="542.5" y="138.8198">saveFramesToFile() : void</text><ellipse cx="533.5" cy="148.4141" fill="#84BE84" rx="3" ry="3" style="stroke: #038048; stroke-width: 1.0;"/><text fill="#000000" font-family="sans-serif" font-size="11" lengthAdjust="spacingAndGlyphs" textLength="152" x="542.5" y="151.6245">isMaxFramesReach() : void</text><!--MD5=[e8a9813e106f9cf5632db8d301be7eea]
class Thesaurus--><rect fill="#FEFECE" filter="url(#f6ze83b1swnhd)" height="60.8047" id="Thesaurus" style="stroke: #A80036; stroke-width: 1.5;" width="297" x="190" y="78"/><ellipse cx="301.25" cy="94" fill="#ADD1B2" rx="11" ry="11" style="stroke: #A80036; stroke-width: 1.0;"/><path d="M304.2188,99.6406 Q303.6406,99.9375 303,100.0781 Q302.3594,100.2344 301.6563,100.2344 Q299.1563,100.2344 297.8281,98.5938 Q296.5156,96.9375 296.5156,93.8125 Q296.5156,90.6875 297.8281,89.0313 Q299.1563,87.375 301.6563,87.375 Q302.3594,87.375 303,87.5313 Q303.6563,87.6875 304.2188,87.9844 L304.2188,90.7031 Q303.5938,90.125 303,89.8594 Q302.4063,89.5781 301.7813,89.5781 Q300.4375,89.5781 299.75,90.6563 Q299.0625,91.7188 299.0625,93.8125 Q299.0625,95.9063 299.75,96.9844 Q300.4375,98.0469 301.7813,98.0469 Q302.4063,98.0469 303,97.7813 Q303.5938,97.5 304.2188,96.9219 L304.2188,99.6406 Z "/><text fill="#000000" font-family="sans-serif" font-size="12" lengthAdjust="spacingAndGlyphs" textLength="66" x="321.75" y="98.1543">Thesaurus</text><line style="stroke: #A80036; stroke-width: 1.5;" x1="191" x2="486" y1="110" y2="110"/><line style="stroke: #A80036; stroke-width: 1.5;" x1="191" x2="486" y1="118" y2="118"/><ellipse cx="201" cy="129" fill="#84BE84" rx="3" ry="3" style="stroke: #038048; stroke-width: 1.0;"/><text fill="#000000" font-family="sans-serif" font-size="11" lengthAdjust="spacingAndGlyphs" textLength="271" x="210" y="132.2104">getObjetFromIdFrame(idFrame : String) : Object</text><!--MD5=[7025ae8a5438310909a8e1d5127f8227]
class LogManagerViewModel--><rect fill="#FEFECE" filter="url(#f6ze83b1swnhd)" height="48" id="LogManagerViewModel" style="stroke: #A80036; stroke-width: 1.5;" width="174" x="122.5" y="403"/><ellipse cx="137.5" cy="419" fill="#ADD1B2" rx="11" ry="11" style="stroke: #A80036; stroke-width: 1.0;"/><path d="M140.4688,424.6406 Q139.8906,424.9375 139.25,425.0781 Q138.6094,425.2344 137.9063,425.2344 Q135.4063,425.2344 134.0781,423.5938 Q132.7656,421.9375 132.7656,418.8125 Q132.7656,415.6875 134.0781,414.0313 Q135.4063,412.375 137.9063,412.375 Q138.6094,412.375 139.25,412.5313 Q139.9063,412.6875 140.4688,412.9844 L140.4688,415.7031 Q139.8438,415.125 139.25,414.8594 Q138.6563,414.5781 138.0313,414.5781 Q136.6875,414.5781 136,415.6563 Q135.3125,416.7188 135.3125,418.8125 Q135.3125,420.9063 136,421.9844 Q136.6875,423.0469 138.0313,423.0469 Q138.6563,423.0469 139.25,422.7813 Q139.8438,422.5 140.4688,421.9219 L140.4688,424.6406 Z "/><text fill="#000000" font-family="sans-serif" font-size="12" lengthAdjust="spacingAndGlyphs" textLength="142" x="151.5" y="423.1543">LogManagerViewModel</text><line style="stroke: #A80036; stroke-width: 1.5;" x1="123.5" x2="295.5" y1="435" y2="435"/><line style="stroke: #A80036; stroke-width: 1.5;" x1="123.5" x2="295.5" y1="443" y2="443"/><!--MD5=[5db00888549904919e3a09c35d77129e]
class MainActivity--><rect fill="#FEFECE" filter="url(#f6ze83b1swnhd)" height="60.8047" id="MainActivity" style="stroke: #A80036; stroke-width: 1.5;" width="151" x="6" y="250"/><ellipse cx="42.15" cy="266" fill="#ADD1B2" rx="11" ry="11" style="stroke: #A80036; stroke-width: 1.0;"/><path d="M45.1188,271.6406 Q44.5406,271.9375 43.9,272.0781 Q43.2594,272.2344 42.5563,272.2344 Q40.0563,272.2344 38.7281,270.5938 Q37.4156,268.9375 37.4156,265.8125 Q37.4156,262.6875 38.7281,261.0313 Q40.0563,259.375 42.5563,259.375 Q43.2594,259.375 43.9,259.5313 Q44.5563,259.6875 45.1188,259.9844 L45.1188,262.7031 Q44.4938,262.125 43.9,261.8594 Q43.3063,261.5781 42.6813,261.5781 Q41.3375,261.5781 40.65,262.6563 Q39.9625,263.7188 39.9625,265.8125 Q39.9625,267.9063 40.65,268.9844 Q41.3375,270.0469 42.6813,270.0469 Q43.3063,270.0469 43.9,269.7813 Q44.4938,269.5 45.1188,268.9219 L45.1188,271.6406 Z "/><text fill="#000000" font-family="sans-serif" font-size="12" lengthAdjust="spacingAndGlyphs" textLength="72" x="60.85" y="270.1543">MainActivity</text><line style="stroke: #A80036; stroke-width: 1.5;" x1="7" x2="156" y1="282" y2="282"/><rect fill="none" height="6" style="stroke: #C82930; stroke-width: 1.0;" width="6" x="14" y="290"/><text fill="#000000" font-family="sans-serif" font-size="11" lengthAdjust="spacingAndGlyphs" textLength="125" x="26" y="296.2104">viewModel: ViewModel</text><line style="stroke: #A80036; stroke-width: 1.5;" x1="7" x2="156" y1="302.8047" y2="302.8047"/><!--MD5=[8377efa590c81e76e542760390739437]
class DispatcherCANdroid--><rect fill="#FEFECE" filter="url(#f6ze83b1swnhd)" height="48" id="DispatcherCANdroid" style="stroke: #A80036; stroke-width: 1.5;" width="157" x="736" y="84.5"/><ellipse cx="751" cy="100.5" fill="#ADD1B2" rx="11" ry="11" style="stroke: #A80036; stroke-width: 1.0;"/><path d="M753.9688,106.1406 Q753.3906,106.4375 752.75,106.5781 Q752.1094,106.7344 751.4063,106.7344 Q748.9063,106.7344 747.5781,105.0938 Q746.2656,103.4375 746.2656,100.3125 Q746.2656,97.1875 747.5781,95.5313 Q748.9063,93.875 751.4063,93.875 Q752.1094,93.875 752.75,94.0313 Q753.4063,94.1875 753.9688,94.4844 L753.9688,97.2031 Q753.3438,96.625 752.75,96.3594 Q752.1563,96.0781 751.5313,96.0781 Q750.1875,96.0781 749.5,97.1563 Q748.8125,98.2188 748.8125,100.3125 Q748.8125,102.4063 749.5,103.4844 Q750.1875,104.5469 751.5313,104.5469 Q752.1563,104.5469 752.75,104.2813 Q753.3438,104 753.9688,103.4219 L753.9688,106.1406 Z "/><text fill="#000000" font-family="sans-serif" font-size="12" lengthAdjust="spacingAndGlyphs" textLength="125" x="765" y="104.6543">DispatcherCANdroid</text><line style="stroke: #A80036; stroke-width: 1.5;" x1="737" x2="892" y1="116.5" y2="116.5"/><line style="stroke: #A80036; stroke-width: 1.5;" x1="737" x2="892" y1="124.5" y2="124.5"/><!--MD5=[b75ea01d48b49fa4be9005f9d51c9972]
link LogManager to LogManagerViewModel--><path d="M355.04,343.2 C319.72,363.3 282.44,384.51 254.45,400.43 " fill="none" id="LogManager-&gt;LogManagerViewModel" style="stroke: #A80036; stroke-width: 1.0;"/><polygon fill="#A80036" points="250.04,402.94,259.8405,401.9651,254.3856,400.467,255.8837,395.0121,250.04,402.94" style="stroke: #A80036; stroke-width: 1.0;"/><!--MD5=[bb766a34b3f4b127142bc92eae1edbc9]
reverse link MainActivity to LogManagerViewModel--><path d="M111.16,314.98 C134.96,341.85 167.76,378.88 188.81,402.64 " fill="none" id="MainActivity&lt;-LogManagerViewModel" style="stroke: #A80036; stroke-width: 1.0;"/><polygon fill="#A80036" points="107.71,311.09,110.6818,320.4798,111.0247,314.8333,116.6712,315.1762,107.71,311.09" style="stroke: #A80036; stroke-width: 1.0;"/><!--MD5=[aa3b910ccfe68768cddad500c5613ad0]
link DispatcherCANdroid to LogManager--><path d="M768.19,132.56 C751.88,140.64 733.39,149.76 716.5,158 C671.92,179.74 622.79,203.4 579.78,224.01 " fill="none" id="DispatcherCANdroid-&gt;LogManager" style="stroke: #A80036; stroke-width: 1.0;"/><polygon fill="#A80036" points="575.1,226.25,584.944,225.9412,579.6031,224.0771,581.4673,218.7362,575.1,226.25" style="stroke: #A80036; stroke-width: 1.0;"/><!--MD5=[ad98164320b2d85e0c7d9914591e4006]
link FilesManager to LogManager--><path d="M569.09,158.22 C554.08,175.45 536.94,195.15 520.89,213.58 " fill="none" id="FilesManager-&gt;LogManager" style="stroke: #A80036; stroke-width: 1.0;"/><polygon fill="#A80036" points="517.27,217.73,526.1979,213.5716,520.5544,213.96,520.166,208.3165,517.27,217.73" style="stroke: #A80036; stroke-width: 1.0;"/><!--MD5=[6c2f573b41f473770614bef9c4a6bd33]
link Thesaurus to LogManager--><path d="M360.27,139.11 C375.41,159.7 396.2,187.97 415.15,213.74 " fill="none" id="Thesaurus-&gt;LogManager" style="stroke: #A80036; stroke-width: 1.0;"/><polygon fill="#A80036" points="418.17,217.86,416.0689,208.2379,415.2113,213.8293,409.6199,212.9718,418.17,217.86" style="stroke: #A80036; stroke-width: 1.0;"/><!--MD5=[5a00f6a2290b8e7322c29859437fd7c4]
@startuml

package Logger {
class LogManager
{
+ dicoFrameSent() : void
+ setFrame() : void
+ getFrames(p_frame : String ): void
+ clearAll() : void
+ save() : void
+createViewModel(): ViewModel
}

class FilesManager
{
+ createFiles() : void
+ writeOnFiles() : void
+ saveFramesToFile() : void
+ isMaxFramesReach() : void
}

class Thesaurus
{
+ getObjetFromIdFrame(idFrame : String) : Object
}    



}

class LogManagerViewModel 
{

}

class MainActivity 
{
    -viewModel: ViewModel
}

LogManager - -> LogManagerViewModel
MainActivity <- - LogManagerViewModel
DispatcherCANdroid - -> LogManager 
FilesManager - -> LogManager
Thesaurus - -> LogManager

@enduml

PlantUML version 1.2020.02(Sun Mar 01 11:22:07 CET 2020)
(GPL source distribution)
Java Runtime: OpenJDK Runtime Environment
JVM: OpenJDK 64-Bit Server VM
Java Version: 11.0.19+7-post-Ubuntu-0ubuntu122.04.1
Operating System: Linux
Default Encoding: UTF-8
Language: fr
Country: FR
--></g></svg>