<?xml version="1.0" encoding="UTF-8" standalone="no"?><svg xmlns="http://www.w3.org/2000/svg" xmlns:xlink="http://www.w3.org/1999/xlink" contentScriptType="application/ecmascript" contentStyleType="text/css" height="1138px" preserveAspectRatio="none" style="width:659px;height:1138px;" version="1.1" viewBox="0 0 659 1138" width="659px" zoomAndPan="magnify"><defs><filter height="300%" id="f11csrfjweu7ug" width="300%" x="-1" y="-1"><feGaussianBlur result="blurOut" stdDeviation="2.0"/><feColorMatrix in="blurOut" result="blurOut2" type="matrix" values="0 0 0 0 0 0 0 0 0 0 0 0 0 0 0 0 0 0 .4 0"/><feOffset dx="4.0" dy="4.0" in="blurOut2" result="blurOut3"/><feBlend in="SourceGraphic" in2="blurOut3" mode="normal"/></filter></defs><g><line style="stroke: #A80036; stroke-width: 1.0;" x1="45" x2="45" y1="86.2969" y2="581.8438"/><line style="stroke: #A80036; stroke-width: 1.0; stroke-dasharray: 1.0,4.0;" x1="45" x2="45" y1="581.8438" y2="622.6484"/><line style="stroke: #A80036; stroke-width: 1.0;" x1="45" x2="45" y1="622.6484" y2="1051.375"/><line style="stroke: #A80036; stroke-width: 1.0;" x1="124" x2="124" y1="86.2969" y2="581.8438"/><line style="stroke: #A80036; stroke-width: 1.0; stroke-dasharray: 1.0,4.0;" x1="124" x2="124" y1="581.8438" y2="622.6484"/><line style="stroke: #A80036; stroke-width: 1.0;" x1="124" x2="124" y1="622.6484" y2="1051.375"/><line style="stroke: #A80036; stroke-width: 1.0;" x1="222" x2="222" y1="200.2109" y2="581.8438"/><line style="stroke: #A80036; stroke-width: 1.0; stroke-dasharray: 1.0,4.0;" x1="222" x2="222" y1="581.8438" y2="622.6484"/><line style="stroke: #A80036; stroke-width: 1.0;" x1="222" x2="222" y1="622.6484" y2="1051.375"/><line style="stroke: #A80036; stroke-width: 1.0;" x1="318" x2="318" y1="245.5078" y2="581.8438"/><line style="stroke: #A80036; stroke-width: 1.0; stroke-dasharray: 1.0,4.0;" x1="318" x2="318" y1="581.8438" y2="622.6484"/><line style="stroke: #A80036; stroke-width: 1.0;" x1="318" x2="318" y1="622.6484" y2="1051.375"/><line style="stroke: #A80036; stroke-width: 1.0;" x1="418" x2="418" y1="290.8047" y2="581.8438"/><line style="stroke: #A80036; stroke-width: 1.0; stroke-dasharray: 1.0,4.0;" x1="418" x2="418" y1="581.8438" y2="622.6484"/><line style="stroke: #A80036; stroke-width: 1.0;" x1="418" x2="418" y1="622.6484" y2="1051.375"/><line style="stroke: #A80036; stroke-width: 1.0;" x1="506" x2="506" y1="336.1016" y2="581.8438"/><line style="stroke: #A80036; stroke-width: 1.0; stroke-dasharray: 1.0,4.0;" x1="506" x2="506" y1="581.8438" y2="622.6484"/><line style="stroke: #A80036; stroke-width: 1.0;" x1="506" x2="506" y1="622.6484" y2="1051.375"/><line style="stroke: #A80036; stroke-width: 1.0;" x1="580" x2="580" y1="381.3984" y2="581.8438"/><line style="stroke: #A80036; stroke-width: 1.0; stroke-dasharray: 1.0,4.0;" x1="580" x2="580" y1="581.8438" y2="622.6484"/><line style="stroke: #A80036; stroke-width: 1.0;" x1="580" x2="580" y1="622.6484" y2="1051.375"/><line style="stroke: #A80036; stroke-width: 1.0;" x1="636" x2="636" y1="86.2969" y2="581.8438"/><line style="stroke: #A80036; stroke-width: 1.0; stroke-dasharray: 1.0,4.0;" x1="636" x2="636" y1="581.8438" y2="622.6484"/><line style="stroke: #A80036; stroke-width: 1.0;" x1="636" x2="636" y1="622.6484" y2="1051.375"/><text fill="#000000" font-family="sans-serif" font-size="14" lengthAdjust="spacingAndGlyphs" textLength="68" x="8" y="82.9951">Utilisateur</text><ellipse cx="45" cy="13" fill="#FEFECE" filter="url(#f11csrfjweu7ug)" rx="8" ry="8" style="stroke: #A80036; stroke-width: 2.0;"/><path d="M45,21 L45,48 M32,29 L58,29 M45,48 L32,63 M45,48 L58,63 " fill="none" filter="url(#f11csrfjweu7ug)" style="stroke: #A80036; stroke-width: 2.0;"/><text fill="#000000" font-family="sans-serif" font-size="14" lengthAdjust="spacingAndGlyphs" textLength="68" x="8" y="1063.3701">Utilisateur</text><ellipse cx="45" cy="1076.6719" fill="#FEFECE" filter="url(#f11csrfjweu7ug)" rx="8" ry="8" style="stroke: #A80036; stroke-width: 2.0;"/><path d="M45,1084.6719 L45,1111.6719 M32,1092.6719 L58,1092.6719 M45,1111.6719 L32,1126.6719 M45,1111.6719 L58,1126.6719 " fill="none" filter="url(#f11csrfjweu7ug)" style="stroke: #A80036; stroke-width: 2.0;"/><rect fill="#FEFECE" filter="url(#f11csrfjweu7ug)" height="30.2969" style="stroke: #A80036; stroke-width: 1.5;" width="60" x="92" y="51"/><text fill="#000000" font-family="sans-serif" font-size="14" lengthAdjust="spacingAndGlyphs" textLength="46" x="99" y="70.9951">Starter</text><rect fill="#FEFECE" filter="url(#f11csrfjweu7ug)" height="30.2969" style="stroke: #A80036; stroke-width: 1.5;" width="60" x="92" y="1050.375"/><text fill="#000000" font-family="sans-serif" font-size="14" lengthAdjust="spacingAndGlyphs" textLength="46" x="99" y="1070.3701">Starter</text><rect fill="#FEFECE" filter="url(#f11csrfjweu7ug)" height="30.2969" style="stroke: #A80036; stroke-width: 1.5;" width="75" x="183" y="1050.375"/><text fill="#000000" font-family="sans-serif" font-size="14" lengthAdjust="spacingAndGlyphs" textLength="61" x="190" y="1070.3701">Postman</text><rect fill="#FEFECE" filter="url(#f11csrfjweu7ug)" height="30.2969" style="stroke: #A80036; stroke-width: 1.5;" width="89" x="272" y="1050.375"/><text fill="#000000" font-family="sans-serif" font-size="14" lengthAdjust="spacingAndGlyphs" textLength="75" x="279" y="1070.3701">Dispatcher</text><rect fill="#FEFECE" filter="url(#f11csrfjweu7ug)" height="30.2969" style="stroke: #A80036; stroke-width: 1.5;" width="83" x="375" y="1050.375"/><text fill="#000000" font-family="sans-serif" font-size="14" lengthAdjust="spacingAndGlyphs" textLength="69" x="382" y="1070.3701">DriverCAN</text><rect fill="#FEFECE" filter="url(#f11csrfjweu7ug)" height="30.2969" style="stroke: #A80036; stroke-width: 1.5;" width="64" x="472" y="1050.375"/><text fill="#000000" font-family="sans-serif" font-size="14" lengthAdjust="spacingAndGlyphs" textLength="50" x="479" y="1070.3701">Sender</text><rect fill="#FEFECE" filter="url(#f11csrfjweu7ug)" height="30.2969" style="stroke: #A80036; stroke-width: 1.5;" width="57" x="550" y="1050.375"/><text fill="#000000" font-family="sans-serif" font-size="14" lengthAdjust="spacingAndGlyphs" textLength="43" x="557" y="1070.3701">Sniffer</text><rect fill="#FEFECE" filter="url(#f11csrfjweu7ug)" height="30.2969" style="stroke: #A80036; stroke-width: 1.5;" width="27" x="621" y="51"/><text fill="#000000" font-family="sans-serif" font-size="14" lengthAdjust="spacingAndGlyphs" textLength="13" x="628" y="70.9951">UI</text><rect fill="#FEFECE" filter="url(#f11csrfjweu7ug)" height="30.2969" style="stroke: #A80036; stroke-width: 1.5;" width="27" x="621" y="1050.375"/><text fill="#000000" font-family="sans-serif" font-size="14" lengthAdjust="spacingAndGlyphs" textLength="13" x="628" y="1070.3701">UI</text><polygon fill="#A80036" points="112,113.4297,122,117.4297,112,121.4297,116,117.4297" style="stroke: #A80036; stroke-width: 1.0;"/><line style="stroke: #A80036; stroke-width: 1.0;" x1="45" x2="118" y1="117.4297" y2="117.4297"/><text fill="#000000" font-family="sans-serif" font-size="13" lengthAdjust="spacingAndGlyphs" textLength="42" x="52" y="112.3638">main()</text><line style="stroke: #A80036; stroke-width: 1.0;" x1="124" x2="166" y1="146.5625" y2="146.5625"/><line style="stroke: #A80036; stroke-width: 1.0;" x1="166" x2="166" y1="146.5625" y2="159.5625"/><line style="stroke: #A80036; stroke-width: 1.0;" x1="125" x2="166" y1="159.5625" y2="159.5625"/><polygon fill="#A80036" points="135,155.5625,125,159.5625,135,163.5625,131,159.5625" style="stroke: #A80036; stroke-width: 1.0;"/><text fill="#000000" font-family="sans-serif" font-size="13" lengthAdjust="spacingAndGlyphs" textLength="35" x="131" y="141.4966">new()</text><polygon fill="#A80036" points="171,184.6953,181,188.6953,171,192.6953,175,188.6953" style="stroke: #A80036; stroke-width: 1.0;"/><line style="stroke: #A80036; stroke-width: 1.0;" x1="124" x2="177" y1="188.6953" y2="188.6953"/><text fill="#000000" font-family="sans-serif" font-size="13" lengthAdjust="spacingAndGlyphs" textLength="35" x="131" y="183.6294">new()</text><rect fill="#FEFECE" filter="url(#f11csrfjweu7ug)" height="30.2969" style="stroke: #A80036; stroke-width: 1.5;" width="75" x="183" y="167.5625"/><text fill="#000000" font-family="sans-serif" font-size="14" lengthAdjust="spacingAndGlyphs" textLength="61" x="190" y="187.5576">Postman</text><polygon fill="#A80036" points="260,229.9922,270,233.9922,260,237.9922,264,233.9922" style="stroke: #A80036; stroke-width: 1.0;"/><line style="stroke: #A80036; stroke-width: 1.0;" x1="124" x2="266" y1="233.9922" y2="233.9922"/><text fill="#000000" font-family="sans-serif" font-size="13" lengthAdjust="spacingAndGlyphs" textLength="35" x="131" y="228.9263">new()</text><rect fill="#FEFECE" filter="url(#f11csrfjweu7ug)" height="30.2969" style="stroke: #A80036; stroke-width: 1.5;" width="89" x="272" y="212.8594"/><text fill="#000000" font-family="sans-serif" font-size="14" lengthAdjust="spacingAndGlyphs" textLength="75" x="279" y="232.8545">Dispatcher</text><polygon fill="#A80036" points="363,275.2891,373,279.2891,363,283.2891,367,279.2891" style="stroke: #A80036; stroke-width: 1.0;"/><line style="stroke: #A80036; stroke-width: 1.0;" x1="124" x2="369" y1="279.2891" y2="279.2891"/><text fill="#000000" font-family="sans-serif" font-size="13" lengthAdjust="spacingAndGlyphs" textLength="35" x="131" y="274.2231">new()</text><rect fill="#FEFECE" filter="url(#f11csrfjweu7ug)" height="30.2969" style="stroke: #A80036; stroke-width: 1.5;" width="83" x="375" y="258.1563"/><text fill="#000000" font-family="sans-serif" font-size="14" lengthAdjust="spacingAndGlyphs" textLength="69" x="382" y="278.1514">DriverCAN</text><polygon fill="#A80036" points="460,320.5859,470,324.5859,460,328.5859,464,324.5859" style="stroke: #A80036; stroke-width: 1.0;"/><line style="stroke: #A80036; stroke-width: 1.0;" x1="124" x2="466" y1="324.5859" y2="324.5859"/><text fill="#000000" font-family="sans-serif" font-size="13" lengthAdjust="spacingAndGlyphs" textLength="35" x="131" y="319.52">new()</text><rect fill="#FEFECE" filter="url(#f11csrfjweu7ug)" height="30.2969" style="stroke: #A80036; stroke-width: 1.5;" width="64" x="472" y="303.4531"/><text fill="#000000" font-family="sans-serif" font-size="14" lengthAdjust="spacingAndGlyphs" textLength="50" x="479" y="323.4482">Sender</text><polygon fill="#A80036" points="538,365.8828,548,369.8828,538,373.8828,542,369.8828" style="stroke: #A80036; stroke-width: 1.0;"/><line style="stroke: #A80036; stroke-width: 1.0;" x1="124" x2="544" y1="369.8828" y2="369.8828"/><text fill="#000000" font-family="sans-serif" font-size="13" lengthAdjust="spacingAndGlyphs" textLength="35" x="131" y="364.8169">new()</text><rect fill="#FEFECE" filter="url(#f11csrfjweu7ug)" height="30.2969" style="stroke: #A80036; stroke-width: 1.5;" width="57" x="550" y="348.75"/><text fill="#000000" font-family="sans-serif" font-size="14" lengthAdjust="spacingAndGlyphs" textLength="43" x="557" y="368.7451">Sniffer</text><line style="stroke: #A80036; stroke-width: 1.0;" x1="124" x2="166" y1="415.1797" y2="415.1797"/><line style="stroke: #A80036; stroke-width: 1.0;" x1="166" x2="166" y1="415.1797" y2="428.1797"/><line style="stroke: #A80036; stroke-width: 1.0;" x1="125" x2="166" y1="428.1797" y2="428.1797"/><polygon fill="#A80036" points="135,424.1797,125,428.1797,135,432.1797,131,428.1797" style="stroke: #A80036; stroke-width: 1.0;"/><text fill="#000000" font-family="sans-serif" font-size="13" lengthAdjust="spacingAndGlyphs" textLength="40" x="131" y="410.1138">start()</text><polygon fill="#A80036" points="210.5,453.3125,220.5,457.3125,210.5,461.3125,214.5,457.3125" style="stroke: #A80036; stroke-width: 1.0;"/><line style="stroke: #A80036; stroke-width: 1.0;" x1="124" x2="216.5" y1="457.3125" y2="457.3125"/><text fill="#000000" font-family="sans-serif" font-size="13" lengthAdjust="spacingAndGlyphs" textLength="40" x="131" y="452.2466">start()</text><polygon fill="#A80036" points="306.5,482.4453,316.5,486.4453,306.5,490.4453,310.5,486.4453" style="stroke: #A80036; stroke-width: 1.0;"/><line style="stroke: #A80036; stroke-width: 1.0;" x1="124" x2="312.5" y1="486.4453" y2="486.4453"/><text fill="#000000" font-family="sans-serif" font-size="13" lengthAdjust="spacingAndGlyphs" textLength="40" x="131" y="481.3794">start()</text><polygon fill="#A80036" points="494,511.5781,504,515.5781,494,519.5781,498,515.5781" style="stroke: #A80036; stroke-width: 1.0;"/><line style="stroke: #A80036; stroke-width: 1.0;" x1="124" x2="500" y1="515.5781" y2="515.5781"/><text fill="#000000" font-family="sans-serif" font-size="13" lengthAdjust="spacingAndGlyphs" textLength="40" x="131" y="510.5122">start()</text><polygon fill="#A80036" points="568.5,540.7109,578.5,544.7109,568.5,548.7109,572.5,544.7109" style="stroke: #A80036; stroke-width: 1.0;"/><line style="stroke: #A80036; stroke-width: 1.0;" x1="124" x2="574.5" y1="544.7109" y2="544.7109"/><text fill="#000000" font-family="sans-serif" font-size="13" lengthAdjust="spacingAndGlyphs" textLength="40" x="131" y="539.645">start()</text><polygon fill="#A80036" points="624.5,569.8438,634.5,573.8438,624.5,577.8438,628.5,573.8438" style="stroke: #A80036; stroke-width: 1.0;"/><line style="stroke: #A80036; stroke-width: 1.0;" x1="124" x2="630.5" y1="573.8438" y2="573.8438"/><text fill="#000000" font-family="sans-serif" font-size="13" lengthAdjust="spacingAndGlyphs" textLength="121" x="131" y="568.7778">startCANgateway()</text><text fill="#000000" font-family="sans-serif" font-size="11" lengthAdjust="spacingAndGlyphs" textLength="240" x="220.75" y="606.0542">Utilisateur souhaite arrêter le programme</text><polygon fill="#A80036" points="112,639.7813,122,643.7813,112,647.7813,116,643.7813" style="stroke: #A80036; stroke-width: 1.0;"/><line style="stroke: #A80036; stroke-width: 1.0;" x1="45" x2="118" y1="643.7813" y2="643.7813"/><text fill="#000000" font-family="sans-serif" font-size="13" lengthAdjust="spacingAndGlyphs" textLength="42" x="52" y="638.7153">SIGINT</text><polygon fill="#A80036" points="624.5,668.9141,634.5,672.9141,624.5,676.9141,628.5,672.9141" style="stroke: #A80036; stroke-width: 1.0;"/><line style="stroke: #A80036; stroke-width: 1.0;" x1="124" x2="630.5" y1="672.9141" y2="672.9141"/><text fill="#000000" font-family="sans-serif" font-size="13" lengthAdjust="spacingAndGlyphs" textLength="119" x="131" y="667.8481">stopCANgateway()</text><line style="stroke: #A80036; stroke-width: 1.0;" x1="124" x2="166" y1="702.0469" y2="702.0469"/><line style="stroke: #A80036; stroke-width: 1.0;" x1="166" x2="166" y1="702.0469" y2="715.0469"/><line style="stroke: #A80036; stroke-width: 1.0;" x1="125" x2="166" y1="715.0469" y2="715.0469"/><polygon fill="#A80036" points="135,711.0469,125,715.0469,135,719.0469,131,715.0469" style="stroke: #A80036; stroke-width: 1.0;"/><text fill="#000000" font-family="sans-serif" font-size="13" lengthAdjust="spacingAndGlyphs" textLength="38" x="131" y="696.981">stop()</text><polygon fill="#A80036" points="568.5,740.1797,578.5,744.1797,568.5,748.1797,572.5,744.1797" style="stroke: #A80036; stroke-width: 1.0;"/><line style="stroke: #A80036; stroke-width: 1.0;" x1="124" x2="574.5" y1="744.1797" y2="744.1797"/><text fill="#000000" font-family="sans-serif" font-size="13" lengthAdjust="spacingAndGlyphs" textLength="38" x="131" y="739.1138">stop()</text><polygon fill="#A80036" points="494,769.3125,504,773.3125,494,777.3125,498,773.3125" style="stroke: #A80036; stroke-width: 1.0;"/><line style="stroke: #A80036; stroke-width: 1.0;" x1="124" x2="500" y1="773.3125" y2="773.3125"/><text fill="#000000" font-family="sans-serif" font-size="13" lengthAdjust="spacingAndGlyphs" textLength="38" x="131" y="768.2466">stop()</text><polygon fill="#A80036" points="210.5,798.4453,220.5,802.4453,210.5,806.4453,214.5,802.4453" style="stroke: #A80036; stroke-width: 1.0;"/><line style="stroke: #A80036; stroke-width: 1.0;" x1="124" x2="216.5" y1="802.4453" y2="802.4453"/><text fill="#000000" font-family="sans-serif" font-size="13" lengthAdjust="spacingAndGlyphs" textLength="38" x="131" y="797.3794">stop()</text><polygon fill="#A80036" points="306.5,827.5781,316.5,831.5781,306.5,835.5781,310.5,831.5781" style="stroke: #A80036; stroke-width: 1.0;"/><line style="stroke: #A80036; stroke-width: 1.0;" x1="222.5" x2="312.5" y1="831.5781" y2="831.5781"/><text fill="#000000" font-family="sans-serif" font-size="13" lengthAdjust="spacingAndGlyphs" textLength="38" x="229.5" y="826.5122">stop()</text><line style="stroke: #A80036; stroke-width: 1.0;" x1="124" x2="166" y1="860.7109" y2="860.7109"/><line style="stroke: #A80036; stroke-width: 1.0;" x1="166" x2="166" y1="860.7109" y2="873.7109"/><line style="stroke: #A80036; stroke-width: 1.0;" x1="125" x2="166" y1="873.7109" y2="873.7109"/><polygon fill="#A80036" points="135,869.7109,125,873.7109,135,877.7109,131,873.7109" style="stroke: #A80036; stroke-width: 1.0;"/><text fill="#000000" font-family="sans-serif" font-size="13" lengthAdjust="spacingAndGlyphs" textLength="35" x="131" y="855.645">free()</text><polygon fill="#A80036" points="568.5,898.8438,578.5,902.8438,568.5,906.8438,572.5,902.8438" style="stroke: #A80036; stroke-width: 1.0;"/><line style="stroke: #A80036; stroke-width: 1.0;" x1="124" x2="574.5" y1="902.8438" y2="902.8438"/><text fill="#000000" font-family="sans-serif" font-size="13" lengthAdjust="spacingAndGlyphs" textLength="35" x="131" y="897.7778">free()</text><line style="stroke: #A80036; stroke-width: 2.0;" x1="571.5" x2="589.5" y1="893.8438" y2="911.8438"/><line style="stroke: #A80036; stroke-width: 2.0;" x1="571.5" x2="589.5" y1="911.8438" y2="893.8438"/><polygon fill="#A80036" points="494,927.9766,504,931.9766,494,935.9766,498,931.9766" style="stroke: #A80036; stroke-width: 1.0;"/><line style="stroke: #A80036; stroke-width: 1.0;" x1="124" x2="500" y1="931.9766" y2="931.9766"/><text fill="#000000" font-family="sans-serif" font-size="13" lengthAdjust="spacingAndGlyphs" textLength="35" x="131" y="926.9106">free()</text><line style="stroke: #A80036; stroke-width: 2.0;" x1="497" x2="515" y1="922.9766" y2="940.9766"/><line style="stroke: #A80036; stroke-width: 2.0;" x1="497" x2="515" y1="940.9766" y2="922.9766"/><polygon fill="#A80036" points="406.5,957.1094,416.5,961.1094,406.5,965.1094,410.5,961.1094" style="stroke: #A80036; stroke-width: 1.0;"/><line style="stroke: #A80036; stroke-width: 1.0;" x1="124" x2="412.5" y1="961.1094" y2="961.1094"/><text fill="#000000" font-family="sans-serif" font-size="13" lengthAdjust="spacingAndGlyphs" textLength="35" x="131" y="956.0435">free()</text><line style="stroke: #A80036; stroke-width: 2.0;" x1="409.5" x2="427.5" y1="952.1094" y2="970.1094"/><line style="stroke: #A80036; stroke-width: 2.0;" x1="409.5" x2="427.5" y1="970.1094" y2="952.1094"/><polygon fill="#A80036" points="306.5,986.2422,316.5,990.2422,306.5,994.2422,310.5,990.2422" style="stroke: #A80036; stroke-width: 1.0;"/><line style="stroke: #A80036; stroke-width: 1.0;" x1="124" x2="312.5" y1="990.2422" y2="990.2422"/><text fill="#000000" font-family="sans-serif" font-size="13" lengthAdjust="spacingAndGlyphs" textLength="35" x="131" y="985.1763">free()</text><line style="stroke: #A80036; stroke-width: 2.0;" x1="309.5" x2="327.5" y1="981.2422" y2="999.2422"/><line style="stroke: #A80036; stroke-width: 2.0;" x1="309.5" x2="327.5" y1="999.2422" y2="981.2422"/><polygon fill="#A80036" points="210.5,1015.375,220.5,1019.375,210.5,1023.375,214.5,1019.375" style="stroke: #A80036; stroke-width: 1.0;"/><line style="stroke: #A80036; stroke-width: 1.0;" x1="124" x2="216.5" y1="1019.375" y2="1019.375"/><text fill="#000000" font-family="sans-serif" font-size="13" lengthAdjust="spacingAndGlyphs" textLength="35" x="131" y="1014.3091">free()</text><line style="stroke: #A80036; stroke-width: 2.0;" x1="213.5" x2="231.5" y1="1010.375" y2="1028.375"/><line style="stroke: #A80036; stroke-width: 2.0;" x1="213.5" x2="231.5" y1="1028.375" y2="1010.375"/><polygon fill="#A80036" points="56,1029.375,46,1033.375,56,1037.375,52,1033.375" style="stroke: #A80036; stroke-width: 1.0;"/><line style="stroke: #A80036; stroke-width: 1.0; stroke-dasharray: 2.0,2.0;" x1="50" x2="123" y1="1033.375" y2="1033.375"/><!--MD5=[2bad5759ce3c149a70de7db8ef912198]
@startuml 

skinparam LifelineStrategy solid

actor Utilisateur

Utilisateur -> Starter : main()
Starter -> Starter : new()
create Postman
Starter -> Postman : new()
create Dispatcher
Starter -> Dispatcher : new()
create DriverCAN
Starter -> DriverCAN : new()
create Sender
Starter -> Sender : new()
create Sniffer
Starter -> Sniffer : new()

Starter -> Starter : start()
Starter -> Postman : start()
Starter -> Dispatcher : start()
Starter -> Sender : start()
Starter -> Sniffer : start()

Starter -> UI : startCANgateway()

... Utilisateur souhaite arrêter le programme ...

Utilisateur -> Starter : SIGINT

Starter -> UI : stopCANgateway()

Starter -> Starter : stop()
Starter -> Sniffer : stop()
Starter -> Sender : stop()
Starter -> Postman : stop()
Postman -> Dispatcher : stop()

Starter -> Starter : free()
Starter -> Sniffer : free()
destroy Sniffer
Starter -> Sender : free()
destroy Sender
Starter -> DriverCAN : free()
destroy DriverCAN
Starter -> Dispatcher : free()
destroy Dispatcher
Starter -> Postman : free()
destroy Postman
Starter - -> Utilisateur 

@enduml

PlantUML version 1.2020.02(Sun Mar 01 11:22:07 CET 2020)
(GPL source distribution)
Java Runtime: OpenJDK Runtime Environment
JVM: OpenJDK 64-Bit Server VM
Java Version: 11.0.19+7-post-Ubuntu-0ubuntu122.04.1
Operating System: Linux
Default Encoding: UTF-8
Language: fr
Country: FR
--></g></svg>