<?xml version="1.0" encoding="UTF-8" standalone="no"?><svg xmlns="http://www.w3.org/2000/svg" xmlns:xlink="http://www.w3.org/1999/xlink" contentScriptType="application/ecmascript" contentStyleType="text/css" height="130px" preserveAspectRatio="none" style="width:332px;height:130px;" version="1.1" viewBox="0 0 332 130" width="332px" zoomAndPan="magnify"><defs><filter height="300%" id="fkqpbkjql1k9u" width="300%" x="-1" y="-1"><feGaussianBlur result="blurOut" stdDeviation="2.0"/><feColorMatrix in="blurOut" result="blurOut2" type="matrix" values="0 0 0 0 0 0 0 0 0 0 0 0 0 0 0 0 0 0 .4 0"/><feOffset dx="4.0" dy="4.0" in="blurOut2" result="blurOut3"/><feBlend in="SourceGraphic" in2="blurOut3" mode="normal"/></filter></defs><g><!--MD5=[c83b901120dbaef6e2f6f9bb7eeec3ac]
class SendFrames--><rect fill="#FEFECE" filter="url(#fkqpbkjql1k9u)" height="112.0234" id="SendFrames" style="stroke: #A80036; stroke-width: 1.5;" width="314" x="7" y="7"/><ellipse cx="120.75" cy="23" fill="#ADD1B2" rx="11" ry="11" style="stroke: #A80036; stroke-width: 1.0;"/><path d="M123.7188,28.6406 Q123.1406,28.9375 122.5,29.0781 Q121.8594,29.2344 121.1563,29.2344 Q118.6563,29.2344 117.3281,27.5938 Q116.0156,25.9375 116.0156,22.8125 Q116.0156,19.6875 117.3281,18.0313 Q118.6563,16.375 121.1563,16.375 Q121.8594,16.375 122.5,16.5313 Q123.1563,16.6875 123.7188,16.9844 L123.7188,19.7031 Q123.0938,19.125 122.5,18.8594 Q121.9063,18.5781 121.2813,18.5781 Q119.9375,18.5781 119.25,19.6563 Q118.5625,20.7188 118.5625,22.8125 Q118.5625,24.9063 119.25,25.9844 Q119.9375,27.0469 121.2813,27.0469 Q121.9063,27.0469 122.5,26.7813 Q123.0938,26.5 123.7188,25.9219 L123.7188,28.6406 Z "/><text fill="#000000" font-family="sans-serif" font-size="12" lengthAdjust="spacingAndGlyphs" textLength="78" x="141.25" y="27.1543">SendFrames</text><line style="stroke: #A80036; stroke-width: 1.5;" x1="8" x2="320" y1="39" y2="39"/><line style="stroke: #A80036; stroke-width: 1.5;" x1="8" x2="320" y1="47" y2="47"/><ellipse cx="18" cy="58" fill="#84BE84" rx="3" ry="3" style="stroke: #038048; stroke-width: 1.0;"/><text fill="#000000" font-family="sans-serif" font-size="11" lengthAdjust="spacingAndGlyphs" textLength="288" x="27" y="61.2104">startSending(framesToSend : List&lt;String&gt; ) : void</text><ellipse cx="18" cy="70.8047" fill="#84BE84" rx="3" ry="3" style="stroke: #038048; stroke-width: 1.0;"/><text fill="#000000" font-family="sans-serif" font-size="11" lengthAdjust="spacingAndGlyphs" textLength="114" x="27" y="74.0151">stopSending() : void</text><rect fill="#F24D5C" height="6" style="stroke: #C82930; stroke-width: 1.0;" width="6" x="15" y="80.6094"/><text fill="#000000" font-family="sans-serif" font-size="11" lengthAdjust="spacingAndGlyphs" textLength="146" x="27" y="86.8198">askSendingSate() : String</text><rect fill="#F24D5C" height="6" style="stroke: #C82930; stroke-width: 1.0;" width="6" x="15" y="93.4141"/><text fill="#000000" font-family="sans-serif" font-size="11" lengthAdjust="spacingAndGlyphs" textLength="71" x="27" y="99.6245">send() : void</text><rect fill="#F24D5C" height="6" style="stroke: #C82930; stroke-width: 1.0;" width="6" x="15" y="106.2188"/><text fill="#000000" font-family="sans-serif" font-size="11" lengthAdjust="spacingAndGlyphs" textLength="203" x="27" y="112.4292">setNumberFramesToSend() : String</text><!--MD5=[bdb7778e8dda6239954c91393e244e71]
@startuml

class SendFrames
{
    + startSending(framesToSend : List<String> ) : void
    + stopSending() : void
    - askSendingSate() : String
    - send() : void
    - setNumberFramesToSend() : String
}

@enduml

PlantUML version 1.2020.02(Sun Mar 01 11:22:07 CET 2020)
(GPL source distribution)
Java Runtime: OpenJDK Runtime Environment
JVM: OpenJDK 64-Bit Server VM
Java Version: 11.0.19+7-post-Ubuntu-0ubuntu122.04.1
Operating System: Linux
Default Encoding: UTF-8
Language: fr
Country: FR
--></g></svg>