<?xml version="1.0" encoding="UTF-8" standalone="no"?><svg xmlns="http://www.w3.org/2000/svg" xmlns:xlink="http://www.w3.org/1999/xlink" contentScriptType="application/ecmascript" contentStyleType="text/css" height="598px" preserveAspectRatio="none" style="width:1369px;height:598px;" version="1.1" viewBox="0 0 1369 598" width="1369px" zoomAndPan="magnify"><defs><filter height="300%" id="fht6wbn7kjh7a" width="300%" x="-1" y="-1"><feGaussianBlur result="blurOut" stdDeviation="2.0"/><feColorMatrix in="blurOut" result="blurOut2" type="matrix" values="0 0 0 0 0 0 0 0 0 0 0 0 0 0 0 0 0 0 .4 0"/><feOffset dx="4.0" dy="4.0" in="blurOut2" result="blurOut3"/><feBlend in="SourceGraphic" in2="blurOut3" mode="normal"/></filter></defs><g><!--MD5=[c16d822e175d79abcb56292e8c5a0d37]
cluster Network--><polygon fill="#FFFFFF" filter="url(#fht6wbn7kjh7a)" points="22,24,95,24,102,46.2969,1347,46.2969,1347,586,22,586,22,24" style="stroke: #000000; stroke-width: 1.5;"/><line style="stroke: #000000; stroke-width: 1.5;" x1="22" x2="102" y1="46.2969" y2="46.2969"/><text fill="#000000" font-family="sans-serif" font-size="14" font-weight="bold" lengthAdjust="spacingAndGlyphs" textLength="67" x="26" y="38.9951">Network</text><!--MD5=[b187d3626ad05e278332dac020423c48]
cluster Obsersver--><polygon fill="#FFFFFF" filter="url(#fht6wbn7kjh7a)" points="1077,67,1166,67,1173,89.2969,1323,89.2969,1323,351,1077,351,1077,67" style="stroke: #000000; stroke-width: 1.5;"/><line style="stroke: #000000; stroke-width: 1.5;" x1="1077" x2="1173" y1="89.2969" y2="89.2969"/><text fill="#000000" font-family="sans-serif" font-size="14" font-weight="bold" lengthAdjust="spacingAndGlyphs" textLength="83" x="1081" y="81.9951">Obsersver</text><!--MD5=[406b65fecc21e832f7a9b6ebadc6dce1]
cluster Client--><polygon fill="#FFFFFF" filter="url(#fht6wbn7kjh7a)" points="46,201,97,201,104,223.2969,1053,223.2969,1053,562,46,562,46,201" style="stroke: #000000; stroke-width: 1.5;"/><line style="stroke: #000000; stroke-width: 1.5;" x1="46" x2="104" y1="223.2969" y2="223.2969"/><text fill="#000000" font-family="sans-serif" font-size="14" font-weight="bold" lengthAdjust="spacingAndGlyphs" textLength="45" x="50" y="215.9951">Client</text><!--MD5=[e1170d1310756aebb62623713388dda7]
class NetworkState--><rect fill="#FEFECE" filter="url(#fht6wbn7kjh7a)" height="73.6094" id="NetworkState" style="stroke: #A80036; stroke-width: 1.5;" width="214" x="1093" y="102"/><ellipse cx="1153.25" cy="118" fill="#EB937F" rx="11" ry="11" style="stroke: #A80036; stroke-width: 1.0;"/><path d="M1157.3594,124 L1149.6406,124 L1149.6406,111.6094 L1157.3594,111.6094 L1157.3594,113.7656 L1152.0938,113.7656 L1152.0938,116.4375 L1156.8594,116.4375 L1156.8594,118.5938 L1152.0938,118.5938 L1152.0938,121.8438 L1157.3594,121.8438 L1157.3594,124 Z "/><text fill="#000000" font-family="sans-serif" font-size="12" lengthAdjust="spacingAndGlyphs" textLength="85" x="1173.75" y="122.1543">NetworkState</text><line style="stroke: #A80036; stroke-width: 1.5;" x1="1094" x2="1306" y1="134" y2="134"/><text fill="#000000" font-family="sans-serif" font-size="11" lengthAdjust="spacingAndGlyphs" textLength="172" x="1099" y="148.2104">NETWORK_STATE_CONNECTED</text><text fill="#000000" font-family="sans-serif" font-size="11" lengthAdjust="spacingAndGlyphs" textLength="202" x="1099" y="161.0151">NETWORK_STATE_NOT_CONNECTED</text><line style="stroke: #A80036; stroke-width: 1.5;" x1="1094" x2="1306" y1="167.6094" y2="167.6094"/><!--MD5=[3334dbde63ce3d00708e67c78dbfb583]
class SocketListener--><rect fill="#FEFECE" filter="url(#fht6wbn7kjh7a)" height="86.4141" id="SocketListener" style="stroke: #A80036; stroke-width: 1.5;" width="202" x="1096" y="249"/><ellipse cx="1146.25" cy="265" fill="#B4A7E5" rx="11" ry="11" style="stroke: #A80036; stroke-width: 1.0;"/><path d="M1142.1719,260.7656 L1142.1719,258.6094 L1149.5625,258.6094 L1149.5625,260.7656 L1147.0938,260.7656 L1147.0938,268.8438 L1149.5625,268.8438 L1149.5625,271 L1142.1719,271 L1142.1719,268.8438 L1144.6406,268.8438 L1144.6406,260.7656 L1142.1719,260.7656 Z "/><text fill="#000000" font-family="sans-serif" font-size="12" font-style="italic" lengthAdjust="spacingAndGlyphs" textLength="93" x="1166.75" y="269.1543">SocketListener</text><line style="stroke: #A80036; stroke-width: 1.5;" x1="1097" x2="1297" y1="281" y2="281"/><line style="stroke: #A80036; stroke-width: 1.5;" x1="1097" x2="1297" y1="289" y2="289"/><text fill="#000000" font-family="sans-serif" font-size="11" lengthAdjust="spacingAndGlyphs" textLength="117" x="1102" y="303.2104">onConnected() : void</text><text fill="#000000" font-family="sans-serif" font-size="11" lengthAdjust="spacingAndGlyphs" textLength="136" x="1102" y="316.0151">onNotConnected() : void</text><text fill="#000000" font-family="sans-serif" font-size="11" lengthAdjust="spacingAndGlyphs" textLength="190" x="1102" y="328.8198">getNetworkState() : NetworkState</text><!--MD5=[cdc9858932958e0abfa4ba52c2ea5764]
class ConnectionCANdroid--><rect fill="#FEFECE" filter="url(#fht6wbn7kjh7a)" height="112.0234" id="ConnectionCANdroid" style="stroke: #A80036; stroke-width: 1.5;" width="317" x="719.5" y="236"/><ellipse cx="809.75" cy="252" fill="#ADD1B2" rx="11" ry="11" style="stroke: #A80036; stroke-width: 1.0;"/><path d="M812.7188,257.6406 Q812.1406,257.9375 811.5,258.0781 Q810.8594,258.2344 810.1563,258.2344 Q807.6563,258.2344 806.3281,256.5938 Q805.0156,254.9375 805.0156,251.8125 Q805.0156,248.6875 806.3281,247.0313 Q807.6563,245.375 810.1563,245.375 Q810.8594,245.375 811.5,245.5313 Q812.1563,245.6875 812.7188,245.9844 L812.7188,248.7031 Q812.0938,248.125 811.5,247.8594 Q810.9063,247.5781 810.2813,247.5781 Q808.9375,247.5781 808.25,248.6563 Q807.5625,249.7188 807.5625,251.8125 Q807.5625,253.9063 808.25,254.9844 Q808.9375,256.0469 810.2813,256.0469 Q810.9063,256.0469 811.5,255.7813 Q812.0938,255.5 812.7188,254.9219 L812.7188,257.6406 Z "/><text fill="#000000" font-family="sans-serif" font-size="12" lengthAdjust="spacingAndGlyphs" textLength="128" x="830.25" y="256.1543">ConnectionCANdroid</text><line style="stroke: #A80036; stroke-width: 1.5;" x1="720.5" x2="1035.5" y1="268" y2="268"/><rect fill="none" height="6" style="stroke: #C82930; stroke-width: 1.0;" width="6" x="727.5" y="276"/><text fill="#000000" font-family="sans-serif" font-size="11" lengthAdjust="spacingAndGlyphs" textLength="100" x="739.5" y="282.2104">a_socket : Socket</text><rect fill="none" height="6" style="stroke: #C82930; stroke-width: 1.0;" width="6" x="727.5" y="288.8047"/><text fill="#000000" font-family="sans-serif" font-size="11" lengthAdjust="spacingAndGlyphs" textLength="207" x="739.5" y="295.0151">a_executorService : ExecutorService</text><line style="stroke: #A80036; stroke-width: 1.5;" x1="720.5" x2="1035.5" y1="301.6094" y2="301.6094"/><ellipse cx="730.5" cy="312.6094" fill="#84BE84" rx="3" ry="3" style="stroke: #038048; stroke-width: 1.0;"/><text fill="#000000" font-family="sans-serif" font-size="11" lengthAdjust="spacingAndGlyphs" textLength="291" x="739.5" y="315.8198">«thread» connect(p_ip:String, p_port:Integer) : void</text><ellipse cx="730.5" cy="325.4141" fill="#84BE84" rx="3" ry="3" style="stroke: #038048; stroke-width: 1.0;"/><text fill="#000000" font-family="sans-serif" font-size="11" lengthAdjust="spacingAndGlyphs" textLength="228" x="739.5" y="328.6245">«thread» write(p_message:byte[]) : void</text><ellipse cx="730.5" cy="338.2188" fill="#84BE84" rx="3" ry="3" style="stroke: #038048; stroke-width: 1.0;"/><text fill="#000000" font-family="sans-serif" font-size="11" lengthAdjust="spacingAndGlyphs" textLength="78" x="739.5" y="341.4292">read() : byte[]</text><!--MD5=[529cab3b0c5a0c2d0a7e390be753685b]
class CommunicationCANdroid--><rect fill="#FEFECE" filter="url(#fht6wbn7kjh7a)" height="137.6328" id="CommunicationCANdroid" style="stroke: #A80036; stroke-width: 1.5;" width="226" x="533" y="408"/><ellipse cx="566.45" cy="424" fill="#ADD1B2" rx="11" ry="11" style="stroke: #A80036; stroke-width: 1.0;"/><path d="M569.4188,429.6406 Q568.8406,429.9375 568.2,430.0781 Q567.5594,430.2344 566.8563,430.2344 Q564.3563,430.2344 563.0281,428.5938 Q561.7156,426.9375 561.7156,423.8125 Q561.7156,420.6875 563.0281,419.0313 Q564.3563,417.375 566.8563,417.375 Q567.5594,417.375 568.2,417.5313 Q568.8563,417.6875 569.4188,417.9844 L569.4188,420.7031 Q568.7938,420.125 568.2,419.8594 Q567.6063,419.5781 566.9813,419.5781 Q565.6375,419.5781 564.95,420.6563 Q564.2625,421.7188 564.2625,423.8125 Q564.2625,425.9063 564.95,426.9844 Q565.6375,428.0469 566.9813,428.0469 Q567.6063,428.0469 568.2,427.7813 Q568.7938,427.5 569.4188,426.9219 L569.4188,429.6406 Z "/><text fill="#000000" font-family="sans-serif" font-size="12" lengthAdjust="spacingAndGlyphs" textLength="153" x="584.55" y="428.1543">CommunicationCANdroid</text><line style="stroke: #A80036; stroke-width: 1.5;" x1="534" x2="758" y1="440" y2="440"/><rect fill="none" height="6" style="stroke: #C82930; stroke-width: 1.0;" width="6" x="541" y="448"/><text fill="#000000" font-family="sans-serif" font-size="11" lengthAdjust="spacingAndGlyphs" textLength="74" x="553" y="454.2104">a_connection</text><rect fill="none" height="6" style="stroke: #C82930; stroke-width: 1.0;" width="6" x="541" y="460.8047"/><text fill="#000000" font-family="sans-serif" font-size="11" lengthAdjust="spacingAndGlyphs" textLength="59" x="553" y="467.0151">a_protocol</text><line style="stroke: #A80036; stroke-width: 1.5;" x1="534" x2="758" y1="473.6094" y2="473.6094"/><ellipse cx="544" cy="484.6094" fill="#84BE84" rx="3" ry="3" style="stroke: #038048; stroke-width: 1.0;"/><text fill="#000000" font-family="sans-serif" font-size="11" lengthAdjust="spacingAndGlyphs" textLength="120" x="553" y="487.8198">receiveFrame() : void</text><ellipse cx="544" cy="497.4141" fill="#84BE84" rx="3" ry="3" style="stroke: #038048; stroke-width: 1.0;"/><text fill="#000000" font-family="sans-serif" font-size="11" lengthAdjust="spacingAndGlyphs" textLength="119" x="553" y="500.6245">connectClient() : void</text><ellipse cx="544" cy="510.2188" fill="#84BE84" rx="3" ry="3" style="stroke: #038048; stroke-width: 1.0;"/><text fill="#000000" font-family="sans-serif" font-size="11" lengthAdjust="spacingAndGlyphs" textLength="136" x="553" y="513.4292">disconnectClient() : void</text><ellipse cx="544" cy="523.0234" fill="#84BE84" rx="3" ry="3" style="stroke: #038048; stroke-width: 1.0;"/><text fill="#000000" font-family="sans-serif" font-size="11" lengthAdjust="spacingAndGlyphs" textLength="200" x="553" y="526.2339">sendFrame(p_frame : String) : void</text><ellipse cx="544" cy="535.8281" fill="#84BE84" rx="3" ry="3" style="stroke: #038048; stroke-width: 1.0;"/><text fill="#000000" font-family="sans-serif" font-size="11" lengthAdjust="spacingAndGlyphs" textLength="62" x="553" y="539.0386">run() : void</text><!--MD5=[948346f2dfe9866ea883595a582714fa]
class Thread--><rect fill="#FEFECE" filter="url(#fht6wbn7kjh7a)" height="48" id="Thread" style="stroke: #A80036; stroke-width: 1.5;" width="76" x="608" y="268"/><ellipse cx="623" cy="284" fill="#ADD1B2" rx="11" ry="11" style="stroke: #A80036; stroke-width: 1.0;"/><path d="M625.9688,289.6406 Q625.3906,289.9375 624.75,290.0781 Q624.1094,290.2344 623.4063,290.2344 Q620.9063,290.2344 619.5781,288.5938 Q618.2656,286.9375 618.2656,283.8125 Q618.2656,280.6875 619.5781,279.0313 Q620.9063,277.375 623.4063,277.375 Q624.1094,277.375 624.75,277.5313 Q625.4063,277.6875 625.9688,277.9844 L625.9688,280.7031 Q625.3438,280.125 624.75,279.8594 Q624.1563,279.5781 623.5313,279.5781 Q622.1875,279.5781 621.5,280.6563 Q620.8125,281.7188 620.8125,283.8125 Q620.8125,285.9063 621.5,286.9844 Q622.1875,288.0469 623.5313,288.0469 Q624.1563,288.0469 624.75,287.7813 Q625.3438,287.5 625.9688,286.9219 L625.9688,289.6406 Z "/><text fill="#000000" font-family="sans-serif" font-size="12" lengthAdjust="spacingAndGlyphs" textLength="44" x="637" y="288.1543">Thread</text><line style="stroke: #A80036; stroke-width: 1.5;" x1="609" x2="683" y1="300" y2="300"/><line style="stroke: #A80036; stroke-width: 1.5;" x1="609" x2="683" y1="308" y2="308"/><!--MD5=[9cf1d0d1c467ab6241a70284e039f892]
class ProtocolCANdroid--><rect fill="#FEFECE" filter="url(#fht6wbn7kjh7a)" height="73.6094" id="ProtocolCANdroid" style="stroke: #A80036; stroke-width: 1.5;" width="274" x="299" y="255"/><ellipse cx="377.25" cy="271" fill="#ADD1B2" rx="11" ry="11" style="stroke: #A80036; stroke-width: 1.0;"/><path d="M380.2188,276.6406 Q379.6406,276.9375 379,277.0781 Q378.3594,277.2344 377.6563,277.2344 Q375.1563,277.2344 373.8281,275.5938 Q372.5156,273.9375 372.5156,270.8125 Q372.5156,267.6875 373.8281,266.0313 Q375.1563,264.375 377.6563,264.375 Q378.3594,264.375 379,264.5313 Q379.6563,264.6875 380.2188,264.9844 L380.2188,267.7031 Q379.5938,267.125 379,266.8594 Q378.4063,266.5781 377.7813,266.5781 Q376.4375,266.5781 375.75,267.6563 Q375.0625,268.7188 375.0625,270.8125 Q375.0625,272.9063 375.75,273.9844 Q376.4375,275.0469 377.7813,275.0469 Q378.4063,275.0469 379,274.7813 Q379.5938,274.5 380.2188,273.9219 L380.2188,276.6406 Z "/><text fill="#000000" font-family="sans-serif" font-size="12" lengthAdjust="spacingAndGlyphs" textLength="109" x="397.75" y="275.1543">ProtocolCANdroid</text><line style="stroke: #A80036; stroke-width: 1.5;" x1="300" x2="572" y1="287" y2="287"/><line style="stroke: #A80036; stroke-width: 1.5;" x1="300" x2="572" y1="295" y2="295"/><ellipse cx="310" cy="306" fill="#84BE84" rx="3" ry="3" style="stroke: #038048; stroke-width: 1.0;"/><text fill="#000000" font-family="sans-serif" font-size="11" lengthAdjust="spacingAndGlyphs" textLength="248" x="319" y="309.2104">encodeMessage(String p_message) : byte[]</text><ellipse cx="310" cy="318.8047" fill="#84BE84" rx="3" ry="3" style="stroke: #038048; stroke-width: 1.0;"/><text fill="#000000" font-family="sans-serif" font-size="11" lengthAdjust="spacingAndGlyphs" textLength="235" x="319" y="322.0151">decodeMessage(message:byte[]) : String</text><!--MD5=[8377efa590c81e76e542760390739437]
class DispatcherCANdroid--><rect fill="#FEFECE" filter="url(#fht6wbn7kjh7a)" height="60.8047" id="DispatcherCANdroid" style="stroke: #A80036; stroke-width: 1.5;" width="202" x="62" y="261.5"/><ellipse cx="97.25" cy="277.5" fill="#ADD1B2" rx="11" ry="11" style="stroke: #A80036; stroke-width: 1.0;"/><path d="M100.2188,283.1406 Q99.6406,283.4375 99,283.5781 Q98.3594,283.7344 97.6563,283.7344 Q95.1563,283.7344 93.8281,282.0938 Q92.5156,280.4375 92.5156,277.3125 Q92.5156,274.1875 93.8281,272.5313 Q95.1563,270.875 97.6563,270.875 Q98.3594,270.875 99,271.0313 Q99.6563,271.1875 100.2188,271.4844 L100.2188,274.2031 Q99.5938,273.625 99,273.3594 Q98.4063,273.0781 97.7813,273.0781 Q96.4375,273.0781 95.75,274.1563 Q95.0625,275.2188 95.0625,277.3125 Q95.0625,279.4063 95.75,280.4844 Q96.4375,281.5469 97.7813,281.5469 Q98.4063,281.5469 99,281.2813 Q99.5938,281 100.2188,280.4219 L100.2188,283.1406 Z "/><text fill="#000000" font-family="sans-serif" font-size="12" lengthAdjust="spacingAndGlyphs" textLength="125" x="115.75" y="281.6543">DispatcherCANdroid</text><line style="stroke: #A80036; stroke-width: 1.5;" x1="63" x2="263" y1="293.5" y2="293.5"/><line style="stroke: #A80036; stroke-width: 1.5;" x1="63" x2="263" y1="301.5" y2="301.5"/><ellipse cx="73" cy="312.5" fill="#84BE84" rx="3" ry="3" style="stroke: #038048; stroke-width: 1.0;"/><text fill="#000000" font-family="sans-serif" font-size="11" lengthAdjust="spacingAndGlyphs" textLength="176" x="82" y="315.7104">dispatch(p_frame:String) : void</text><!--MD5=[657e08da5fda12ae69568723c24366d2]
reverse link Thread to CommunicationCANdroid--><path d="M646,336.32 C646,357.63 646,383.82 646,407.75 " fill="none" id="Thread&lt;-CommunicationCANdroid" style="stroke: #A80036; stroke-width: 1.0;"/><polygon fill="none" points="639,336.18,646,316.18,653,336.18,639,336.18" style="stroke: #A80036; stroke-width: 1.0;"/><!--MD5=[0470239505dcc073b2a1d20eee8f67b3]
reverse link SocketListener to CommunicationCANdroid--><path d="M1092.35,343.16 C1079.22,348.8 1065.88,354.23 1053,359 C955.62,395.08 841.8,426.97 759.32,448.3 " fill="none" id="SocketListener&lt;-CommunicationCANdroid" style="stroke: #A80036; stroke-width: 1.0; stroke-dasharray: 7.0,7.0;"/><polygon fill="none" points="1089.57,336.74,1110.69,335.1,1095.2,349.56,1089.57,336.74" style="stroke: #A80036; stroke-width: 1.0;"/><!--MD5=[b84daa86b031a5cafddb4d858dc20a76]
reverse link ProtocolCANdroid to CommunicationCANdroid--><path d="M481.47,332.62 C506.62,354.54 538.57,382.38 567.62,407.7 " fill="none" id="ProtocolCANdroid&lt;-CommunicationCANdroid" style="stroke: #A80036; stroke-width: 1.0;"/><polygon fill="#A80036" points="477.49,329.15,481.6484,338.0779,481.26,332.4344,486.9035,332.046,477.49,329.15" style="stroke: #A80036; stroke-width: 1.0;"/><!--MD5=[921957e72e16333cc6afb5758cb70c14]
reverse link ConnectionCANdroid to CommunicationCANdroid--><path d="M803.87,351.47 C781.19,369.36 756.05,389.2 732.61,407.68 " fill="none" id="ConnectionCANdroid&lt;-CommunicationCANdroid" style="stroke: #A80036; stroke-width: 1.0;"/><polygon fill="#A80036" points="808.08,348.15,798.5412,350.6019,804.1604,351.2542,803.508,356.8734,808.08,348.15" style="stroke: #A80036; stroke-width: 1.0;"/><!--MD5=[71865d4b9019e35fd878058d4e8a983f]
reverse link DispatcherCANdroid to CommunicationCANdroid--><path d="M215.19,325.15 C235.31,336.75 258.79,349.34 281,359 C363.08,394.68 459.67,425.17 532.86,446.07 " fill="none" id="DispatcherCANdroid&lt;-CommunicationCANdroid" style="stroke: #A80036; stroke-width: 1.0;"/><polygon fill="#A80036" points="210.69,322.54,216.4633,330.5193,215.0135,325.0514,220.4815,323.6016,210.69,322.54" style="stroke: #A80036; stroke-width: 1.0;"/><!--MD5=[615c3776c793dacba142ee19bc99da61]
link NetworkState to SocketListener--><path d="M1199.28,176.17 C1198.88,196.44 1198.37,221.97 1197.94,243.8 " fill="none" id="NetworkState-&gt;SocketListener" style="stroke: #A80036; stroke-width: 1.0;"/><polygon fill="#A80036" points="1197.83,248.97,1202.0092,240.0518,1197.93,243.971,1194.0108,239.8918,1197.83,248.97" style="stroke: #A80036; stroke-width: 1.0;"/><!--MD5=[54f85925eadb6b790a9dc1b650a48884]
@startuml
package Network {
package Obsersver {

Enum NetworkState
{
NETWORK_STATE_CONNECTED
NETWORK_STATE_NOT_CONNECTED
}

interface SocketListener
{
onConnected() : void
onNotConnected() : void
getNetworkState() : NetworkState
}
}

package Client {

class ConnectionCANdroid 
{
- a_socket : Socket
- a_executorService : ExecutorService

+ <<thread>> connect(p_ip:String, p_port:Integer) : void
+ <<thread>> write(p_message:byte[]) : void
+ read() : byte[]
}

class CommunicationCANdroid extends Thread implements SocketListener
{
- a_connection
- a_protocol

+ receiveFrame() : void
+ connectClient() : void
+ disconnectClient() : void
+ sendFrame(p_frame : String) : void
+ run() : void
}

class ProtocolCANdroid 
{

+ encodeMessage(String p_message) : byte[]
+ decodeMessage(message:byte[]) : String
}

class DispatcherCANdroid
{
+ dispatch(p_frame:String) : void
}

}
ProtocolCANdroid <- - CommunicationCANdroid
ConnectionCANdroid <- - CommunicationCANdroid
DispatcherCANdroid <- - CommunicationCANdroid
NetworkState - -> SocketListener
}


@enduml

PlantUML version 1.2020.02(Sun Mar 01 11:22:07 CET 2020)
(GPL source distribution)
Java Runtime: OpenJDK Runtime Environment
JVM: OpenJDK 64-Bit Server VM
Java Version: 11.0.19+7-post-Ubuntu-0ubuntu122.04.1
Operating System: Linux
Default Encoding: UTF-8
Language: fr
Country: FR
--></g></svg>